<?xml version="1.0" encoding="UTF-8"?>
<svg width="70px" height="65px" viewBox="0 0 70 65" version="1.1" xmlns="http://www.w3.org/2000/svg" xmlns:xlink="http://www.w3.org/1999/xlink">
    <title>icon</title>
    <g id="Page-1" stroke="none" stroke-width="1" fill="none" fill-rule="evenodd">
        <g id="Old-customers-:-start-point---step-1" transform="translate(-412.000000, -601.000000)" fill="#6933FF">
            <g id="Group" transform="translate(343.000000, 158.000000)">
                <g id="bloc-1-copy-3" transform="translate(47.000000, 416.000000)">
                    <g id="icon" transform="translate(22.000000, 27.000000)">
                        <path d="M11.1064315,42.605677 C22.7481769,64.8560574 54.2255172,56.6140608 61.9961229,35.618348 C63.340702,31.9861496 63.9225595,27.6600564 61.7502074,24.4545975 C59.3119289,20.8566883 54.3672464,20.0001086 49.9989272,20.088429 C45.6302697,20.1767496 41.0563151,20.8509734 37.0457421,19.1364462 C30.3312366,16.2666022 27.5042045,8.46357931 19.0891096,9.25418783 C12.4246496,9.88035486 9.12321725,14.8590243 7.88120774,20.8736077 C6.3746818,28.1677827 7.63498368,35.9709901 11.1064315,42.605677 Z" id="Fill-165-Copy" fill-opacity="0.189958479" transform="translate(35.224641, 32.509418) scale(-1, 1) rotate(22.000000) translate(-35.224641, -32.509418) "></path>
                        <path d="M48.8438158,9.79658454 L55.1001879,16.0529567 L52.180515,18.9726296 L50.5121165,17.3042311 L49.052329,18.7640186 C56.3514623,25.4375148 57.8112499,36.2818606 52.5976391,44.8322684 C46.7582933,54.8424638 33.8285227,57.9706498 24.0268405,51.9227908 C14.2251583,45.8749319 11.09707,33.3621877 16.936318,23.3519923 C22.7755661,13.3417969 35.7054344,10.2136108 45.7156297,16.2614698 L45.7156297,16.2614698 L47.5925414,14.3845582 L45.9241429,12.7162574 L48.8438158,9.79658454 Z M34.8711862,19.3896559 C26.7379025,19.3896559 20.2730172,25.8546389 20.2730172,33.9879226 C20.2730172,42.1212064 26.7379025,48.5860916 34.8711862,48.5860916 C43.00447,48.5860916 49.4693553,42.1211086 49.4693553,33.9878249 L49.4693553,33.9878249 L34.8711862,33.9878249 Z M41.1276561,5 L41.1276561,9.17094733 L36.9567088,9.17094733 L36.9567088,11.2563721 C35.4968235,11.047859 34.245549,11.047859 32.7857615,11.2563721 L32.7857615,11.2563721 L32.7857615,9.17094733 L28.6148141,9.17094733 L28.6148141,5 L41.1276561,5 Z" id="Combined-Shape" fill-rule="nonzero"></path>
                    </g>
                </g>
            </g>
        </g>
    </g>
</svg>