<svg xmlns="http://www.w3.org/2000/svg" viewBox="0 0 566.67 566.67"><defs><style>.cls-1{fill:#3767da;}</style></defs><g id="Calque_2" data-name="Calque 2"><g id="Calque_1-2" data-name="Calque 1"><g id="Interface_External_Link" data-name="Interface / External_Link"><g id="Vector"><path class="cls-1" d="M393.44,566.67H139.9c-41.22,0-63.93,0-85.31-10.9A99.37,99.37,0,0,1,10.9,512.06C0,490.67,0,467.94,0,426.67V173.34c0-41.28,0-64,10.9-85.41a99.4,99.4,0,0,1,43.69-43.7C76,33.33,98.73,33.33,140,33.33h60A33.34,33.34,0,0,1,200,100H140c-28.92,0-48,0-55.15,3.63A33.16,33.16,0,0,0,70.3,118.19c-3.63,7.13-3.63,26.24-3.63,55.15V426.67c0,28.9,0,48,3.63,55.13a33.13,33.13,0,0,0,14.56,14.57C92,500,111,500,139.9,500H393.44c28.84,0,47.89,0,55-3.63A33.53,33.53,0,0,0,463,481.79c3.63-7.12,3.63-26.17,3.63-55v-60.1a33.33,33.33,0,1,1,66.66,0v60.1c0,41.21,0,63.91-10.89,85.28a99.4,99.4,0,0,1-43.73,43.73C457.34,566.67,434.64,566.67,393.44,566.67ZM300,300a33.33,33.33,0,0,1-23.57-56.9L452.86,66.67H366.67a33.34,33.34,0,1,1,0-66.67H533.1c.85,0,1.71,0,2.57.08h.07a33.31,33.31,0,0,1,30.84,30.83V31c.06.85.08,1.71.08,2.57V200A33.34,33.34,0,0,1,500,200V113.81L323.57,290.24A33.22,33.22,0,0,1,300,300Z"/></g></g></g></g></svg>