<?xml version="1.0" encoding="UTF-8"?>
<svg width="117px" height="34px" viewBox="0 0 117 34" version="1.1" xmlns="http://www.w3.org/2000/svg" xmlns:xlink="http://www.w3.org/1999/xlink">
    <title>logo</title>
    <defs>
        <polygon id="path-1" points="0.400880622 0.452586902 15.6832694 0.452586902 15.6832694 10.2705326 0.400880622 10.2705326"></polygon>
        <polygon id="path-3" points="0 0.308129989 32.967387 0.308129989 32.967387 33.2751187 0 33.2751187"></polygon>
    </defs>
    <g id="onboarding-nouvelle-proposition-2" stroke="none" stroke-width="1" fill="none" fill-rule="evenodd">
        <g id="Onboarding-:-step-3---Financement---Prise-de-RDV" transform="translate(-391.000000, -218.000000)">
            <g id="Group" transform="translate(343.000000, 139.000000)">
                <g id="logo" transform="translate(48.000000, 79.000000)">
                    <g id="Group-3" transform="translate(100.899083, 11.807339)">
                        <mask id="mask-2" fill="white">
                            <use xlink:href="#path-1"></use>
                        </mask>
                        <g id="Clip-2"></g>
                        <path d="M1.86604754,1.9474643 C3.27463386,-0.12325369 7.20764887,-0.0485827682 8.27128524,2.25408177 C8.31470892,2.20694575 8.35862052,2.17101037 8.3869191,2.12620782 C9.01924604,1.14055166 9.97017598,0.644923414 11.1411518,0.499315118 C11.8315396,0.413443558 12.519,0.440511767 13.1908474,0.625788991 C14.404759,0.960408057 15.1405221,1.75892022 15.4332661,2.90045193 C15.5893962,3.50901994 15.652824,4.15072318 15.6659975,4.77842561 C15.6981993,6.31991344 15.6767314,7.86280136 15.6757556,9.40475588 C15.6757556,9.5074284 15.6757556,9.6110343 15.6611184,9.71277343 C15.6108641,10.0665269 15.3434912,10.2728053 14.947799,10.2705326 C14.5691835,10.2676717 14.3125446,10.0609266 14.2652177,9.71090666 C14.2496047,9.59236657 14.2515563,9.47149302 14.2510684,9.35155285 C14.2505805,7.88706941 14.2642419,6.42165257 14.242774,4.95670243 C14.2359433,4.46434105 14.1910559,3.96031233 14.0720067,3.48241843 C13.8397631,2.5494986 13.2440292,1.90732868 12.2194254,1.74211927 C11.1255388,1.56570921 10.1692419,1.81819027 9.47934195,2.70630754 C8.99241118,3.33307659 8.79139366,4.06158476 8.78017181,4.82836179 C8.75821601,6.31011288 8.76699833,7.79186398 8.76260717,9.27408177 C8.76211927,9.38562146 8.76358299,9.49716115 8.75187323,9.60776745 C8.7055221,10.0627934 8.45522602,10.2816725 8.00244871,10.2700052 C7.5872402,10.2592712 7.33255296,10.0030566 7.33060133,9.56016474 C7.32474646,8.00934304 7.34426272,6.45852134 7.31840367,4.90863303 C7.30962135,4.39993738 7.25595163,3.87677423 7.11543453,3.38861308 C6.77585154,2.20647906 5.80101418,1.59744436 4.52221101,1.69591663 C3.16680651,1.79998923 2.23490492,2.64750419 1.9592377,4.06298484 C1.88117264,4.46480774 1.85141034,4.87923135 1.84750709,5.28805465 C1.8338457,6.64986558 1.84311593,8.0121432 1.8406764,9.37442082 C1.84018849,9.50182808 1.8338457,9.63250219 1.80652294,9.75617591 C1.73187323,10.0945285 1.5006055,10.2667383 1.14053044,10.2705326 C0.75898749,10.2742054 0.520401168,10.1057292 0.436969141,9.76504308 C0.412573812,9.66610411 0.40281568,9.56203151 0.40281568,9.46029238 C0.400880622,6.77027244 0.39988824,4.08025249 0.402327773,1.39069924 C0.40281568,0.811532908 0.677994996,0.546451137 1.21957131,0.587520144 C1.5298799,0.6113215 1.74504671,0.768597128 1.79725271,1.06728081 C1.84506756,1.34076306 1.84262802,1.62264579 1.86604754,1.9474643" id="Fill-1" fill="#FFFFFF" mask="url(#mask-2)"></path>
                    </g>
                    <path d="M62.1682332,20.8022843 C63.1809082,20.7960203 64.1151472,20.5579874 64.8745285,19.8790635 C65.9451563,18.9211497 66.2514068,17.7015924 66.0810456,16.3500087 C65.6528944,12.9467163 61.8469949,12.4099376 59.927059,13.7663397 C58.7700016,14.5840358 58.3438488,15.7361344 58.3698276,17.0761537 C58.4127926,19.2536248 59.9180663,20.727116 62.1682332,20.8022843 M58.4023012,13.6213035 C58.4222849,13.6068481 58.4472645,13.5967292 58.460254,13.5789009 C59.2331243,12.5424458 60.3197391,12.0312051 61.5966988,11.8673768 C62.854674,11.7064395 64.0676858,11.8558124 65.1847758,12.4769145 C66.5731447,13.248835 67.2915595,14.4577916 67.5338621,15.946702 C67.7436911,17.2366091 67.6018067,18.4913413 66.9468403,19.6540405 C66.1180155,21.1256043 64.7821038,21.8681321 63.0884835,22.0372607 C61.8759713,22.1577227 60.6964322,22.0131683 59.6527825,21.3626735 C59.1846638,21.0716373 58.7909845,20.6692943 58.3748236,20.3267003 C58.3733248,20.356093 58.3658309,20.448126 58.3658309,20.5391953 C58.3653313,21.9726931 58.3663305,23.4052272 58.3638325,24.8382432 C58.3638325,24.9697877 58.3563386,25.1047051 58.3278618,25.2328767 C58.2479269,25.5860713 58.0021272,25.7624277 57.6139434,25.7614679 C57.227758,25.7605003 56.9939485,25.5812528 56.9175108,25.216012 C56.8940299,25.1047051 56.8910323,24.9880979 56.8910323,24.8734181 C56.8895336,20.857215 56.8895336,16.8414937 56.8910323,12.8257724 C56.8910323,12.7024194 56.8975271,12.5771389 56.9245051,12.4576406 C57.0029412,12.104446 57.2257597,11.9420632 57.6124446,11.9406177 C58.0096211,11.939654 58.2504249,12.1092645 58.3278618,12.4639046 C58.3573378,12.6007494 58.3598358,12.7438583 58.3638325,12.8845579 C58.3703272,13.1143994 58.3678293,13.3442409 58.3703272,13.5745642 C58.3708268,13.5875741 58.3883126,13.600584 58.4023012,13.6213035" id="Fill-4" fill="#FFFFFF"></path>
                    <path d="M48.9613828,17.1826299 C48.9613828,17.0719064 48.9683966,16.961183 48.9603808,16.8509628 C48.8541711,15.3959558 48.2615008,14.2172542 46.9188496,13.5690186 C45.499046,12.884043 44.0682207,12.9560132 42.7591358,13.8664621 C41.6424308,14.6435395 41.2246057,15.8091556 41.2210754,17.1348175 C41.2170909,18.658775 41.7280999,19.9507165 43.1158402,20.701623 C44.4840418,21.4419603 45.9053483,21.415286 47.2399837,20.5989521 C48.4934588,19.832947 48.9458521,18.6039166 48.9613828,17.1826299 M48.9167947,20.6382086 C48.3722194,21.411763 47.6548028,21.9603475 46.758032,22.2286002 C44.9148926,22.7807077 43.1524124,22.650356 41.5757992,21.4444768 C40.5778286,20.6809881 40.048283,19.616533 39.8328576,18.3940453 C39.6184342,17.1715575 39.6805569,15.9631619 40.1655145,14.8055984 C40.9144934,13.0204341 42.2952198,12.0767682 44.1774364,11.8563279 C45.5115708,11.7003085 46.7905963,11.900114 47.9098063,12.6998394 C48.2925621,12.9726217 48.6091873,13.3380092 48.9643887,13.6696763 C48.9673946,13.5961962 48.9729055,13.5005714 48.9759115,13.4044433 C48.9859312,13.1095162 48.9739075,12.8115694 49.0089767,12.5196621 C49.0525628,12.1512549 49.3115743,11.9544691 49.7023459,11.9479264 C50.1041393,11.9403771 50.349624,12.1175346 50.4242714,12.4859418 C50.4513248,12.6203198 50.4483189,12.7612406 50.4483189,12.8991416 C50.4498218,15.745238 50.4493208,18.5908311 50.4488199,21.4364241 C50.4488199,21.5476509 50.4533288,21.6598842 50.4398021,21.7690978 C50.393711,22.1591464 50.1457214,22.3836131 49.7589577,22.3936788 C49.3311128,22.4047512 49.0410401,22.1958865 49.0064718,21.7917458 C48.9739075,21.4172992 48.999458,21.0378197 48.999458,20.6608566 C48.9719035,20.6533073 48.9448501,20.6457579 48.9167947,20.6382086" id="Fill-6" fill="#FFFFFF"></path>
                    <path d="M71.2323919,13.8711945 C71.7269856,13.283703 72.2780194,12.8072647 72.9755995,12.5226908 C74.3034277,11.981802 75.6574955,11.9594922 76.9932451,12.4483248 C78.3611755,12.9495517 79.0483587,14.0377743 79.3003589,15.4214779 C79.3879896,15.9013866 79.4181901,16.39716 79.4226459,16.8859926 C79.4374985,18.4685013 79.4285869,20.0524973 79.4280918,21.6355018 C79.4280918,21.744572 79.4300722,21.8551294 79.4142293,21.9622165 C79.3592745,22.3360296 79.1043038,22.5422714 78.7102131,22.5407841 C78.3185978,22.5397925 78.0542204,22.3310719 78.001741,21.9656869 C77.9804522,21.8224084 77.9809473,21.6751637 77.9799571,21.5299021 C77.9725308,19.8740189 77.9769866,18.2181357 77.9556977,16.5627483 C77.9462911,15.8131389 77.7660787,15.0977379 77.2957444,14.4933901 C76.6149973,13.61835 75.6540299,13.3893027 74.6187993,13.4354096 C72.7404324,13.5186996 71.5041956,14.7031022 71.2878418,16.5801004 C71.2526905,16.8859926 71.2363526,17.1963467 71.2348673,17.5047178 C71.2294213,18.869582 71.2338771,20.2344462 71.2304115,21.5993104 C71.2299164,21.7520086 71.2190245,21.9101603 71.1813977,22.0579008 C71.1021835,22.3727169 70.8561244,22.5402883 70.5110475,22.5412844 C70.1600295,22.5422714 69.9109999,22.3816408 69.8248544,22.0747571 C69.7862375,21.9369321 69.7728701,21.7882 69.7728701,21.6444257 C69.7698996,17.2310509 69.7698996,12.8181717 69.7728701,8.40529261 C69.7728701,8.26151832 69.7877228,8.11229053 69.82832,7.97496129 C69.9164459,7.67402683 70.179338,7.50843852 70.5214444,7.51376147 C70.8491931,7.51884976 71.0982228,7.68691694 71.1769419,7.98685986 C71.2185294,8.14253271 71.2299164,8.30960835 71.2304115,8.47172625 C71.2338771,10.1737164 71.2323919,11.8752107 71.2323919,13.576705 L71.2323919,13.8711945 Z" id="Fill-8" fill="#FFFFFF"></path>
                    <path d="M82.0142524,17.1592856 C82.0142524,17.2328046 82.0112647,17.3073308 82.0147503,17.3808499 C82.0914347,18.8905086 82.6655717,20.1292546 84.0668045,20.7858907 C85.5307791,21.471733 86.9987373,21.3861286 88.3123308,20.3875785 C89.4466622,19.5264989 89.8051866,18.2766747 89.730494,16.8984439 C89.6473362,15.3575648 89.0139432,14.1132797 87.5539522,13.492396 C86.1118874,12.8790657 84.6822714,12.9747412 83.4090118,13.9601989 C82.3812419,14.7553127 82.0247093,15.8908298 82.0142524,17.1592856 M85.9679797,22.5412844 C84.0369275,22.4833755 82.4569304,21.8896839 81.4027691,20.2853568 C80.4984909,18.9101473 80.3207226,17.3763179 80.6747654,15.7906223 C81.1801852,13.5246236 82.8951269,12.0527315 85.189185,11.8402312 C86.4290819,11.7259241 87.6142042,11.8996507 88.7121851,12.517513 C89.9376414,13.2078873 90.6985098,14.2663605 91.0351244,15.6314989 C91.4150607,17.1713709 91.2796181,18.6608874 90.485885,20.0507 C89.6961354,21.4339663 88.4577324,22.1621073 86.9349996,22.4355378 C86.5854384,22.4979786 86.2274119,22.5135889 85.9679797,22.5412844" id="Fill-10" fill="#FFFFFF"></path>
                    <path d="M52.5963707,15.0207 C52.5967341,12.8105856 52.5960072,10.5999756 52.5970975,8.38986122 C52.5974609,7.90610441 52.7093976,7.65778252 52.9648894,7.55319985 C53.2999726,7.41540846 53.5878097,7.64737382 53.6521369,8.11328714 C53.6677645,8.22827852 53.6692182,8.34822642 53.6692182,8.4661917 C53.6699451,12.8418118 53.6699451,17.2169362 53.6688548,21.5920606 C53.6688548,21.726878 53.6634033,21.8656607 53.6426877,21.9975043 C53.5870828,22.3553654 53.4144532,22.5377655 53.1455145,22.5412844 C52.862402,22.5447046 52.6825037,22.3652784 52.623628,22.0024608 C52.6010953,21.8626868 52.5978244,21.7144867 52.5974609,21.5702518 C52.5960072,19.3869027 52.5963707,17.2035535 52.5963707,15.0207" id="Fill-12" fill="#FFFFFF"></path>
                    <path d="M95.8299371,13.8478224 C96.3626695,12.7774 97.1428064,12.1458353 98.1662847,11.9192121 C98.4895358,11.8472682 98.8231708,11.8169489 99.152291,11.807699 C99.5771225,11.7963935 99.810983,12.0523083 99.8249785,12.4875689 C99.839877,12.9593153 99.620012,13.2352715 99.1789277,13.259938 C98.5531928,13.2948822 97.9410021,13.3801871 97.3852448,13.7419621 C96.4845659,14.3283049 96.072827,15.2805338 95.9057838,16.3889837 C95.8276798,16.905952 95.8033005,17.437309 95.79698,17.9635273 C95.7816301,19.1603654 95.7933682,20.3582313 95.7902079,21.5550694 C95.7897565,21.7051238 95.7820815,21.8582616 95.7527361,22.0031771 C95.6823071,22.3551884 95.4669568,22.5371036 95.1428027,22.5412844 C94.8001384,22.5453258 94.5757587,22.3675216 94.4990091,22.012941 C94.4692122,21.8772753 94.4606343,21.7333875 94.4601829,21.5930969 C94.458377,18.6711469 94.4579255,15.7481691 94.4606343,12.8257052 C94.4606343,12.6766785 94.4705666,12.522513 94.5030723,12.3791391 C94.578016,12.0394611 94.7974296,11.8724485 95.1355792,11.8739902 C95.4683112,11.8755318 95.6805012,12.0502527 95.7522846,12.4002084 C95.7802756,12.535874 95.7874991,12.6797618 95.7902079,12.8200524 C95.7965285,13.130439 95.7929168,13.4418533 95.7947226,13.7527537 C95.7947226,13.769198 95.8060093,13.7851284 95.8299371,13.8478224" id="Fill-14" fill="#FFFFFF"></path>
                    <g id="Group-18">
                        <mask id="mask-4" fill="white">
                            <use xlink:href="#path-3"></use>
                        </mask>
                        <g id="Clip-17"></g>
                        <path d="M32.3388545,16.5537313 L31.261631,13.7466926 C31.0510534,13.1978996 30.3289313,13.0762215 29.949991,13.5251888 L22.5911988,22.2542251 C21.6902844,23.3225089 19.9733819,23.0334614 19.4727635,21.7282778 L15.3699774,11.0374929 C14.8768087,9.75217509 15.9202603,8.40130011 17.2880213,8.55426684 L28.5434917,9.81028258 C29.1191035,9.87484646 29.5576413,9.30668434 29.3500436,8.7658377 L28.4277734,6.36207486 C26.5618773,1.49942157 21.1082162,-0.929173531 16.2460596,0.936722539 L6.0539065,4.8478036 C1.19174986,6.71369967 -1.23684524,12.1673608 0.628057538,17.0295174 L4.53963525,27.2211739 C6.40503467,32.0838272 11.8596891,34.5124223 16.7218457,32.6465262 L26.9135021,28.7354451 C31.7756588,26.869549 34.2047505,21.415888 32.3388545,16.5537313" id="Fill-16" fill="#FFFFFF" mask="url(#mask-4)"></path>
                    </g>
                </g>
            </g>
        </g>
    </g>
</svg>