<?xml version="1.0" encoding="UTF-8"?>
<svg width="70px" height="65px" viewBox="0 0 70 65" version="1.1" xmlns="http://www.w3.org/2000/svg" xmlns:xlink="http://www.w3.org/1999/xlink">
    <title>icon</title>
    <g id="Page-1" stroke="none" stroke-width="1" fill="none" fill-rule="evenodd">
        <g id="Old-customers-:-start-point---step-1" transform="translate(-1003.000000, -466.000000)" fill="#FD0046">
            <g id="Group" transform="translate(343.000000, 158.000000)">
                <g id="bloc-1-copy-8" transform="translate(638.000000, 281.000000)">
                    <g id="icon" transform="translate(22.000000, 27.000000)">
                        <path d="M11.1064315,42.605677 C22.7481769,64.8560574 54.2255172,56.6140608 61.9961229,35.618348 C63.340702,31.9861496 63.9225595,27.6600564 61.7502074,24.4545975 C59.3119289,20.8566883 54.3672464,20.0001086 49.9989272,20.088429 C45.6302697,20.1767496 41.0563151,20.8509734 37.0457421,19.1364462 C30.3312366,16.2666022 27.5042045,8.46357931 19.0891096,9.25418783 C12.4246496,9.88035486 9.12321725,14.8590243 7.88120774,20.8736077 C6.3746818,28.1677827 7.63498368,35.9709901 11.1064315,42.605677 Z" id="Fill-165-Copy" fill-opacity="0.189958479" transform="translate(35.224641, 32.509418) scale(-1, 1) rotate(22.000000) translate(-35.224641, -32.509418) "></path>
                        <path d="M59.8749023,21.6666016 C60.4499023,21.6666016 60.9166016,22.1333008 60.9166016,22.7083008 L60.9166016,22.7083008 L60.9166016,52.9166992 L61.9583008,52.9166992 C62.5333008,52.9166992 63,53.3833008 63,53.9583008 C63,54.5333008 62.5333008,55 61.9583008,55 L61.9583008,55 L14.0416992,55 C13.4666992,55 13,54.5333008 13,53.9583008 C13,53.3833008 13.4666992,52.9166992 14.0416992,52.9166016 L14.0416992,52.9166016 L15.0833008,52.9166016 L15.0833008,41.4583008 C15.0833008,40.8833008 15.55,40.4166016 16.125,40.4166016 L16.125,40.4166016 L22.3746094,40.4166016 C22.9496094,40.4166016 23.4163086,40.8833008 23.4163086,41.4583008 L23.4163086,41.4583008 L23.4163086,52.9166016 L27.5830078,52.9166016 L27.5830078,31.0416016 C27.5830078,30.4666016 28.049707,29.9999023 28.624707,29.9999023 L28.624707,29.9999023 L34.874707,29.9999023 C35.449707,29.9999023 35.9164063,30.4666016 35.9164063,31.0416016 L35.9164063,31.0416016 L35.9164063,52.9166016 L40.0831055,52.9166016 L40.0831055,35.2083008 C40.0831055,34.6333008 40.5498047,34.1666016 41.1248047,34.1666016 L41.1248047,34.1666016 L47.3748047,34.1666016 C47.9498047,34.1666016 48.4165039,34.6333008 48.4165039,35.2083008 L48.4165039,35.2083008 L48.4165039,52.9166016 L52.5832031,52.9166016 L52.5832031,22.7083008 C52.5832031,22.1333008 53.0499023,21.6666016 53.6249023,21.6666016 L53.6249023,21.6666016 Z M56.75,5 C59.0479492,5 60.9167969,6.86875 60.9167969,9.16679688 C60.9167969,11.4647461 59.0480469,13.3334961 56.7500977,13.3334961 C55.9792969,13.3334961 55.2667969,13.1084961 54.6480469,12.7417969 L54.6480469,12.7417969 L47.8272461,19.5625977 C48.1917969,20.1834961 48.4167969,20.8959961 48.4167969,21.6667969 C48.4167969,23.9647461 46.5480469,25.8334961 44.2500977,25.8334961 C41.9521484,25.8334961 40.0833984,23.9647461 40.0833984,21.6667969 C40.0833984,21.4313477 40.1146484,21.2042969 40.1541992,20.9792969 L40.1541992,20.9792969 L35.3271484,19.6022461 C34.6021484,20.8313477 33.2771484,21.6667969 31.7500977,21.6667969 C30.8125977,21.6667969 29.9563477,21.3438477 29.2583984,20.8188477 L29.2583984,20.8188477 L22.8771484,25.9083984 C23.2104492,26.50625 23.4166992,27.1854492 23.4166992,27.9166992 C23.4166992,30.2146484 21.5479492,32.0833984 19.25,32.0833984 C16.9520508,32.0833984 15.0833008,30.2146484 15.0833008,27.9166992 C15.0833008,25.61875 16.9520508,23.75 19.25,23.75 C20.05625,23.75 20.8041992,23.9895508 21.4416016,24.3895508 L21.4416016,24.3895508 L27.9520508,19.1958008 C27.71875,18.6770508 27.5833008,18.10625 27.5833008,17.5 C27.5833008,15.2020508 29.4520508,13.3333008 31.75,13.3333008 C34.0479492,13.3333008 35.9166992,15.2020508 35.9166992,17.5 C35.9166992,17.5354492 35.90625,17.5666992 35.90625,17.6 L35.90625,17.6 L41.025,19.0604492 C41.7895508,18.1166992 42.94375,17.5 44.25,17.5 C45.0208008,17.5 45.7333008,17.725 46.3541016,18.0896484 L46.3541016,18.0896484 L53.1728516,11.2708984 C52.8083008,10.65 52.5833008,9.9375 52.5833008,9.16669922 C52.5833008,6.86875 54.4520508,5 56.75,5 Z" id="Combined-Shape" fill-rule="nonzero"></path>
                    </g>
                </g>
            </g>
        </g>
    </g>
</svg>