<?xml version="1.0" encoding="UTF-8"?>
<svg width="10px" height="14px" viewBox="0 0 10 14" version="1.1" xmlns="http://www.w3.org/2000/svg" xmlns:xlink="http://www.w3.org/1999/xlink">
    <title>Shape</title>
    <g id="New-update" stroke="none" stroke-width="1" fill="none" fill-rule="evenodd">
        <g id="Paiement-:-Commander-des-licences" transform="translate(-1266, -1021)" fill="#F7B500" fill-rule="nonzero">
            <g id="CTAs-side" transform="translate(1207, 32)">
                <g id="Group-10" transform="translate(34, 966)">
                    <g id="Group-9" transform="translate(16, 16)">
                        <g id="lightbulb" transform="translate(9.4062, 7.625)">
                            <path d="M6.5,9.75 C6.74375015,8.94003922 7.24902344,8.24941391 7.74921906,7.56132782 C7.88125062,7.38105422 8.0132814,7.20078063 8.14023453,7.0179686 C8.6429686,6.29433578 8.9375,5.41835922 8.9375,4.47128844 C8.9375,2.00078094 6.93671906,0 4.46875,0 C2.00078094,0 0,2.00078094 0,4.46875 C0,5.41582039 0.294531405,6.29433578 0.797265857,7.01542938 C0.924218982,7.19824219 1.05625015,7.37851501 1.18828133,7.5587886 C1.69101578,8.24687469 2.19628906,8.94003844 2.4375,9.74746001 L6.5,9.74746001 L6.5,9.75 Z M4.46875,13 C5.59101555,13 6.5,12.0910159 6.5,10.96875 L6.5,10.5625 L2.4375,10.5625 L2.4375,10.96875 C2.4375,12.0910159 3.34648445,13 4.46875,13 Z M2.4375,4.46875 C2.4375,4.69218719 2.25468758,4.875 2.03125,4.875 C1.80781242,4.875 1.625,4.69218719 1.625,4.46875 C1.625,2.89707047 2.89707047,1.625 4.46875,1.625 C4.69218758,1.625 4.875,1.80781281 4.875,2.03125 C4.875,2.25468719 4.69218758,2.4375 4.46875,2.4375 C3.34648445,2.4375 2.4375,3.34648407 2.4375,4.46875 Z" id="Shape"></path>
                        </g>
                    </g>
                </g>
            </g>
        </g>
    </g>
</svg>