<?xml version="1.0" encoding="UTF-8"?>
<svg width="12px" height="9px" viewBox="0 0 12 9" version="1.1" xmlns="http://www.w3.org/2000/svg" xmlns:xlink="http://www.w3.org/1999/xlink">
    <title>Combined Shape</title>
    <g id="Symbols" stroke="none" stroke-width="1" fill="none" fill-rule="evenodd">
        <g id="DataTable/Header/Title" transform="translate(-142, -4)" fill="#3767DA">
            <g id="tri" transform="translate(142, 4)">
                <path d="M9.21293382,0.0921611431 L11.9095592,2.93593967 C12.0301469,3.06275055 12.0301469,3.26243302 11.9095592,3.3892439 C11.7930363,3.51212542 11.5999605,3.51212542 11.4834375,3.3892439 L9.30303586,1.0898591 L9.30303586,8.67779321 C9.30303586,8.85497122 9.16923772,9 9.00258281,9 C8.83457299,9 8.69704882,8.85497122 8.69704882,8.67779321 L8.69704882,1.0898591 L6.52037317,3.3892439 C6.4001242,3.51212542 6.20535475,3.51212542 6.09018672,3.3892439 C5.96993776,3.26243302 5.96993776,3.06275055 6.09018672,2.93593967 L8.78681213,0.0921611431 C8.90333507,-0.030720381 9.09641088,-0.030720381 9.21293382,0.0921611431 Z M2.99741719,0 C3.16542701,0 3.30295118,0.145028776 3.30295118,0.322206787 L3.30295118,7.9101409 L5.47962683,5.6107561 C5.5998758,5.48787458 5.79464525,5.48787458 5.90981328,5.6107561 C6.03006224,5.73756698 6.03006224,5.93724945 5.90981328,6.06406033 L3.21318787,8.90783886 C3.09666493,9.03072038 2.90358912,9.03072038 2.78706618,8.90783886 L0.0904407717,6.06406033 C-0.0301469239,5.93724945 -0.0301469239,5.73756698 0.0904407717,5.6107561 C0.206963714,5.48787458 0.400039518,5.48787458 0.51656246,5.6107561 L2.69696414,7.9101409 L2.69696414,0.322206787 C2.69696414,0.145028776 2.83076228,0 2.99741719,0 Z" id="Combined-Shape"></path>
            </g>
        </g>
    </g>
</svg>