<?xml version="1.0" encoding="UTF-8"?>
<svg width="6px" height="9px" viewBox="0 0 6 9" version="1.1" xmlns="http://www.w3.org/2000/svg" xmlns:xlink="http://www.w3.org/1999/xlink">
    <title>arrow</title>
    <g id="Symbols" stroke="none" stroke-width="1" fill="none" fill-rule="evenodd">
        <g id="DataTable/Header/Title" transform="translate(-142, -4)" fill="#3767DA">
            <g id="tri" transform="translate(142, 4)">
                <path d="M1.43593967,1.59044077 C1.56275055,1.46985308 1.76243302,1.46985308 1.8892439,1.59044077 C2.01212542,1.70696371 2.01212542,1.90003952 1.8892439,2.01656246 L-0.410140901,4.19696414 L7.17779321,4.19696414 C7.35497122,4.19696414 7.5,4.33076228 7.5,4.49741719 C7.5,4.66542701 7.35497122,4.80295118 7.17779321,4.80295118 L-0.410140901,4.80295118 L1.8892439,6.97962683 C2.01212542,7.0998758 2.01212542,7.29464525 1.8892439,7.40981328 C1.76243302,7.53006224 1.56275055,7.53006224 1.43593967,7.40981328 L-1.40783886,4.71318787 C-1.53072038,4.59666493 -1.53072038,4.40358912 -1.40783886,4.28706618 L1.43593967,1.59044077 Z" id="arrow" transform="translate(3, 4.5) rotate(-90) translate(-3, -4.5)"></path>
            </g>
        </g>
    </g>
</svg>