<?xml version="1.0" encoding="UTF-8"?>
<svg width="6px" height="9px" viewBox="0 0 6 9" version="1.1" xmlns="http://www.w3.org/2000/svg" xmlns:xlink="http://www.w3.org/1999/xlink">
    <title>arrow copy</title>
    <g id="Symbols" stroke="none" stroke-width="1" fill="none" fill-rule="evenodd">
        <g id="DataTable/Header/Title" transform="translate(-148, -4)" fill="#3767DA">
            <g id="tri" transform="translate(142, 4)">
                <path d="M7.43593967,1.59044077 C7.56275055,1.46985308 7.76243302,1.46985308 7.8892439,1.59044077 C8.01212542,1.70696371 8.01212542,1.90003952 7.8892439,2.01656246 L5.5898591,4.19696414 L13.1777932,4.19696414 C13.3549712,4.19696414 13.5,4.33076228 13.5,4.49741719 C13.5,4.66542701 13.3549712,4.80295118 13.1777932,4.80295118 L5.5898591,4.80295118 L7.8892439,6.97962683 C8.01212542,7.0998758 8.01212542,7.29464525 7.8892439,7.40981328 C7.76243302,7.53006224 7.56275055,7.53006224 7.43593967,7.40981328 L4.59216114,4.71318787 C4.46927962,4.59666493 4.46927962,4.40358912 4.59216114,4.28706618 L7.43593967,1.59044077 Z" id="arrow-copy" transform="translate(9, 4.5) rotate(-270) translate(-9, -4.5)"></path>
            </g>
        </g>
    </g>
</svg>