<?xml version="1.0" encoding="UTF-8"?>
<svg width="54px" height="50px" viewBox="0 0 54 50" version="1.1" xmlns="http://www.w3.org/2000/svg" xmlns:xlink="http://www.w3.org/1999/xlink">
    <title>icon</title>
    <g id="Page-1" stroke="none" stroke-width="1" fill="none" fill-rule="evenodd">
        <g id="Onboarding-admin-:-success-page" transform="translate(-408.000000, -727.000000)" fill="#02C58C">
            <g id="Group" transform="translate(343.000000, 183.000000)">
                <g id="step-2" transform="translate(49.000000, 533.000000)">
                    <g id="icon" transform="translate(16.000000, 11.000000)">
                        <path d="M8.56392761,32.7958266 C17.5241271,49.9094793 41.8032301,43.5429114 47.8113281,27.3799559 C48.8509328,24.5838105 49.3029172,21.2542681 47.6302197,18.7892002 C45.7527605,16.0223293 41.9404701,15.3669323 38.5719037,15.4382328 C35.2030764,15.5095339 31.6754931,16.0318671 28.5841683,14.7155327 C23.4086685,12.5122009 21.2346436,6.50962706 14.7449908,7.12445505 C9.60541334,7.6114025 7.05581182,11.4452039 6.09348196,16.0746097 C4.92620136,21.6889132 5.89208888,27.6928249 8.56392761,32.7958266 Z" id="Fill-165-Copy" fill-opacity="0.19" transform="translate(27.172847, 25.014615) scale(-1, 1) rotate(22.000000) translate(-27.172847, -25.014615) "></path>
                        <path d="M44.1729046,22.9773083 C43.6218181,22.4469574 42.9530921,22.181981 42.1656928,22.181981 L41.2217853,22.181981 L41.2217853,16.727128 C41.2217853,13.2423345 39.923512,10.2501803 37.3261384,7.75016791 C34.7289714,5.25005597 31.6207238,4 27.9998447,4 C24.379069,4 21.2702011,5.25005597 18.6732409,7.75006841 C16.0758673,10.2501803 14.777594,13.242235 14.777594,16.727128 L14.777594,22.181981 L13.833273,22.181981 C13.0464939,22.181981 12.3773544,22.4469574 11.8263713,22.9773083 C11.2753882,23.5072612 11,24.151344 11,24.9093578 L11,41.2728223 C11,42.0301395 11.2754916,42.6744213 11.8263713,43.2048717 C12.3773544,43.734725 13.0464939,44 13.833273,44 L42.1664164,44 C42.9538157,44 43.6224384,43.7350236 44.1736282,43.2048717 C44.7240945,42.6744213 45,42.0301395 45,41.2728223 L45,24.9090592 C45.000413,24.1516425 44.7240945,23.5076592 44.1729046,22.9773083 Z M35,23 L20,23 L20,17.4281939 C20,15.3776807 20.7325658,13.6267913 22.1973895,12.1761358 C23.6624184,10.725277 25.4298526,10 27.5003078,10 C29.5709683,10 31.337992,10.7251753 32.8031236,12.1761358 C34.2675368,13.6266897 35,15.3776807 35,17.4281939 L35,23 Z" id="Shape" fill-rule="nonzero"></path>
                    </g>
                </g>
            </g>
        </g>
    </g>
</svg>