<?xml version="1.0" encoding="UTF-8"?><svg id="Layer_2" xmlns="http://www.w3.org/2000/svg" viewBox="0 0 172.94 216.76"><defs><style>.cls-1{fill:#f7cbdb;}.cls-2{fill:#0067de;}.cls-3{fill:#043c58;}.cls-4{fill:#ecf6ff;}.cls-5{fill:#fff;}.cls-6{fill:#055aad;}</style></defs><g id="Layer_1-2"><g><path class="cls-4" d="M151.92,104.73c-.51-.87-1.05-1.72-1.61-2.55-7.48-11.08-20.35-18.67-33.02-22.09-5.55-1.5-11.27-2.29-17.01-2.48-37.64-1.28-52.63,28.39-65.06,36.04-12.44,7.65-31.58,20.73-30.3,48.16,1.28,27.43,21.05,53.26,59.32,54.86,38.27,1.59,40.82-15.63,62.19-22.01,14.14-4.22,24.19-18.48,29.11-31.66,6.7-17.96,6.39-41.28-3.62-58.27Z"/><g><g><path class="cls-5" d="M43.57,72.38c-1.23-8.3-6.91-22.07-11.11-31.03-2.24-4.78-4.2-9.63-5.54-13.11h0l-1.07-3.88s9.04-5.32,8.83-7.56c-.21-2.24-7.37-12.93-8.01-13.46-.64-.53-2.24,0-3.1,.64-.85,.64-3.31,4.49-3.31,4.49,0,0,1.16-3.71,1.5-5.02C22.61,.14,19.72,.14,19.72,.14c0,0-2.99,3.63-3.63,5.66-.64,2.03-1.92,9.19-1.82,12.07,.11,2.88,2.84,10.68,2.85,10.73,.88,7.38,4.3,28.74,7.2,39.69,3.45,13.05,15.38,49.18,17.56,54.6l15.9-16.33s-12.98-25.88-14.22-34.18Z"/><path class="cls-3" d="M57.91,106.5s-.72-1.44-1.81-3.69c-.8-1.65-1.8-3.74-2.89-6.07-.63-1.34-1.28-2.76-1.94-4.22-.96-2.12-1.84-4.11-2.62-5.96-2.85-6.7-4.54-11.56-4.94-14.21-1.18-7.91-6.51-21.24-11.12-31.06-2.28-4.87-4.27-9.81-5.53-13.09l-1.04-3.77c.45-.27,2.45-1.48,4.41-2.89,3.01-2.17,4.48-3.76,4.39-4.75-.12-1.31-2.48-5.22-3.87-7.43-1.75-2.78-3.83-5.82-4.2-6.12-.71-.59-2.39-.03-3.27,.64-.62,.46-2.02,2.5-2.8,3.68,.37-1.2,.97-3.19,1.2-4.07,.29-1.12,.19-2-.28-2.61-.67-.86-1.83-.87-1.88-.87-.04,0-.08,.02-.11,.05-.12,.15-3.02,3.68-3.66,5.71-.64,2.01-1.93,9.19-1.82,12.12,.11,2.84,2.69,10.27,2.86,10.75,.96,8.05,4.42,29.2,7.2,39.69,2.43,9.17,9.16,30.11,13.65,43.43,.33,.98,.65,1.92,.95,2.81,1.38,4.05,2.45,7.09,2.97,8.38,.02,.04,.06,.08,.1,.09,0,0,.02,0,.03,0,.04,0,.07-.02,.1-.04l.12-.12,15.78-16.2s.05-.11,.02-.16Zm-15.98,16.14c-.55-1.4-1.59-4.35-2.91-8.24-.31-.9-.63-1.84-.96-2.83-4.48-13.32-11.19-34.17-13.61-43.31-2.77-10.48-6.23-31.64-7.19-39.67,0-.01,0-.02,0-.03-.03-.08-2.74-7.85-2.85-10.68-.11-2.91,1.18-10.03,1.81-12.03,.58-1.85,3.19-5.1,3.56-5.56,.24,.02,1.1,.12,1.6,.76,.42,.54,.5,1.34,.23,2.37-.33,1.29-1.48,4.98-1.49,5.02-.02,.07,.01,.14,.08,.17,.06,.03,.14,0,.18-.05,.02-.04,2.45-3.83,3.28-4.45,.88-.66,2.38-1.1,2.92-.65,.28,.23,2.14,2.88,4.14,6.06,2.34,3.73,3.74,6.39,3.83,7.31,.03,.32-.16,.93-1.25,2.01-.72,.71-1.74,1.55-3.03,2.48-2.2,1.59-4.46,2.92-4.48,2.93-.05,.03-.08,.1-.06,.16l1.07,3.88s0,0,0,.01c1.27,3.29,3.26,8.24,5.54,13.12,4.6,9.81,9.92,23.1,11.09,30.99,.4,2.72,2.08,7.53,4.98,14.33,.78,1.83,1.65,3.8,2.6,5.91,.67,1.49,1.34,2.94,1.98,4.31,1.08,2.31,2.08,4.39,2.87,6.02,.93,1.92,1.58,3.22,1.75,3.56l-15.62,16.03-.06,.07Z"/></g><polygon class="cls-2" points="45.73 135.14 37.08 115.72 56.6 102.48 64.27 117.84 45.73 135.14"/><path class="cls-3" d="M66.88,62.39c-5.54,10.18-11.6,20.91-21.82,26.44,1.15,.46,2.47,.47,3.62,.02-2.49,2.94-5.01,5.94-6.59,9.45-1.57,3.52-2.09,7.69-.5,11.2,.3-.37,.61-.74,.91-1.11-3.45,7.48-1.23,17.15,5.15,22.41,2.76,2.27,6.66,3.75,9.91,2.26,2.47-1.13,3.93-3.66,5.23-6.03,8.45-15.43,16.89-30.87,25.34-46.3,2.36-4.31,4.78-8.87,4.65-13.77-.14-5.52-3.89-10.79-9.08-12.76-5.19-1.97-11.5-.53-15.3,3.49l-1.51,4.71Z"/><g><path class="cls-5" d="M100.6,84.84c2.01-6.22,.29-14.6-4.99-19.55-3.33-3.12-6.38-4.07-8.36-4.94-4.45-1.95-8.86-.8-8.86-.8-2.09-.14-11.22,4.22-13.75,11.19-2.82,7.75-5.95,17.32-6.74,23.49-1.6,12.4,7.04,16.57,7.04,16.57,0-.02-6.83,19.34-6.83,19.34l27.08-2.12,15.42-43.19Z"/><path class="cls-3" d="M101.48,77.65c-.09-1.03-.26-2.07-.51-3.1-.43-1.8-1.09-3.5-1.95-5.07-.91-1.64-2.02-3.09-3.32-4.3-1.37-1.29-2.7-2.21-3.93-2.91-1.32-.75-2.52-1.24-3.52-1.66-.34-.14-.66-.27-.95-.4-2.32-1.02-4.63-1.18-6.16-1.14-1.55,.04-2.61,.29-2.77,.33-1.11-.06-3.94,1.03-6.77,2.95-1.59,1.08-2.99,2.28-4.14,3.58-1.36,1.52-2.36,3.12-2.95,4.76-.49,1.35-1.01,2.8-1.52,4.29-2.02,5.84-4.08,12.49-4.96,17.51-.11,.59-.19,1.17-.26,1.71-.37,2.85-.22,5.5,.43,7.88,.52,1.91,1.37,3.64,2.52,5.16,1.73,2.29,3.58,3.37,4.06,3.62-.16,.47-.81,2.29-1.64,4.64-.03,.08-.05,.15-.08,.23-.52,1.49-1.12,3.17-1.71,4.84-1.67,4.73-3.33,9.42-3.36,9.51-.02,.05,0,.09,.02,.13,.03,.03,.07,.05,.11,.05,0,0,0,0,.01,0l2.83-.22,13.46-1.05,4.12-.32,6.67-.52c.06,0,.1-.04,.12-.09l1.71-4.8,2.45-6.85,4.11-11.5,.05-.13,.05-.13,2.63-7.36,4.43-12.42s0,0,0,0c.72-2.21,.97-4.7,.75-7.23Zm-8.11,27.01l-.05,.14-4.27,11.97h0s-2.26,6.34-2.26,6.34l-1.71,4.79-6.68,.52-3.76,.29-13.49,1.05-2.85,.22,3.47-9.82,1.52-4.3,.02-.05,.7-2,1.03-2.91s.01-.03,.02-.06c.01-.06,.01-.14-.07-.17-.11-.05-2.2-1.12-4.07-3.61-1.12-1.49-1.95-3.2-2.46-5.07-.64-2.34-.78-4.95-.42-7.76,.08-.64,.19-1.32,.32-2.02,.96-5.21,3.13-12.1,5.19-18,.42-1.19,.83-2.34,1.22-3.43,.58-1.6,1.56-3.17,2.9-4.67,1.14-1.27,2.52-2.46,4.09-3.53,2.77-1.88,5.59-2.97,6.62-2.9,.02,0,.03,0,.04,0,.01,0,1.11-.28,2.74-.33,2.72-.07,4.78,.57,6.03,1.12,.3,.13,.62,.26,.96,.4,1.07,.44,2.37,.97,3.79,1.82,1.13,.67,2.33,1.53,3.57,2.69,1.27,1.19,2.37,2.62,3.26,4.24,.85,1.54,1.5,3.22,1.93,5,.24,1,.41,2.01,.5,3.02,.22,2.5-.02,4.97-.73,7.15l-5.79,16.23-1.25,3.5-.05,.13Z"/></g><path class="cls-1" d="M75.18,97.58c.13-.59,.15-2.02-.13-2.51-.56-.97-1.86-.63-2.93-.34-1.07,.29-1.87,.6-1.87,.6l.1,1.84c.25,.83,.55,1.94,1.34,2.3,.12,.06,.25,.11,.38,.15,.62,.2,1.21,.31,1.84,.02,.63-.29,1.12-1.33,1.28-2.06Z"/><path class="cls-3" d="M64.32,80.04c.11,.26,1.55-.16,3.14,.44,1.6,.57,2.47,1.82,2.72,1.69,.12-.06,.06-.47-.32-1.03-.37-.56-1.09-1.23-2.09-1.59-1-.36-1.97-.3-2.59-.1-.63,.2-.93,.49-.87,.61Z"/><path class="cls-3" d="M71.79,91.81c.03-.09-.93-.56-2.51-1.26-.4-.17-.78-.36-.76-.67,0-.33,.3-.73,.64-1.16,.69-.9,1.41-1.83,2.17-2.82,3.04-4.02,5.38-7.38,5.21-7.5-.16-.12-2.76,3.04-5.81,7.06-.74,.99-1.45,1.94-2.12,2.85-.3,.43-.73,.89-.7,1.58,.02,.35,.26,.66,.51,.81,.24,.16,.48,.23,.68,.31,1.63,.58,2.66,.89,2.69,.79Z"/><path class="cls-3" d="M64.93,110.81s7.87,2.87,17.16,.45c0,0-6.68,7.11-18.21,2.52l1.05-2.96Z"/><path class="cls-3" d="M69.01,69.87c.16,.48,1.49,.58,2.91,1.13,1.44,.51,2.53,1.29,2.95,1.03,.19-.13,.15-.57-.24-1.12-.38-.55-1.14-1.17-2.12-1.53-.99-.36-1.96-.38-2.6-.21-.65,.17-.96,.47-.9,.7Z"/><path class="cls-3" d="M85.82,87.25c-.25,.13-1.11-1.09-2.72-1.63-1.61-.56-3.07-.12-3.18-.38-.06-.12,.25-.41,.89-.61,.63-.2,1.62-.28,2.63,.06,1,.34,1.73,1,2.09,1.54,.37,.55,.42,.96,.3,1.02Z"/><path class="cls-3" d="M90.15,76.91c-.44,.26-1.56-.54-3.05-1.06-1.48-.57-2.85-.68-3.01-1.16-.07-.23,.26-.53,.93-.69,.66-.16,1.67-.14,2.69,.23,1.02,.37,1.8,1.01,2.2,1.56,.4,.55,.45,.99,.25,1.12Z"/><g><path class="cls-5" d="M98.2,92.96c2.43,.32,6.57,1.74,4.88,7.66-2.32,8.09-9.97,4.1-9.91,3.86l5.04-11.52Z"/><path class="cls-3" d="M102.85,95.29c-.61-.92-1.9-2.1-4.63-2.46-.08,0-.15,.04-.16,.12,0,.06,.03,.12,.08,.15,.01,0,.02,0,.04,.01,2.62,.35,3.86,1.46,4.43,2.34,.83,1.27,.94,3,.33,5.14-.79,2.74-2.26,4.36-4.39,4.82-2.02,.44-4.04-.31-4.88-.74-.05-.02-.09-.05-.13-.07-.05-.03-.09-.05-.12-.07-.06-.04-.11-.07-.13-.1-.01-.03-.04-.06-.07-.08,0,0-.02,0-.03,0-.08-.02-.15,.03-.17,.11-.01,.06-.03,.14,.3,.34,.04,.02,.08,.05,.12,.07,.04,.02,.08,.04,.13,.07,.04,.02,.08,.04,.12,.06,.27,.13,.85,.38,1.6,.57,.55,.14,1.24,.26,1.99,.26s1.54-.12,2.32-.45c1.71-.73,2.92-2.31,3.61-4.71,.64-2.23,.52-4.04-.36-5.38Z"/></g><path class="cls-3" d="M96.24,102.17s.11,.14,.32,.32c.2,.17,.58,.36,1.05,.32,.94-.07,2.05-1.22,2.51-2.67,.23-.73,.28-1.48,.18-2.13-.08-.66-.34-1.19-.75-1.39-.4-.22-.78-.05-.94,.15-.17,.2-.17,.37-.22,.37-.03,.01-.14-.18,.03-.5,.08-.15,.23-.32,.46-.42,.24-.1,.55-.1,.84,.02,.61,.22,1.01,.96,1.11,1.68,.14,.73,.1,1.58-.16,2.4-.52,1.62-1.79,2.9-3.06,2.91-.61-.01-1.04-.32-1.23-.58-.19-.27-.18-.46-.15-.47Z"/><path class="cls-3" d="M73.27,99.71c-.02-.07,.68-.02,1.22-.79,.5-.74,.75-2.16,.43-3.5-.1-.32-.28-.54-.55-.61-.27-.08-.6-.04-.91,0-.64,.08-1.21,.17-1.68,.26-.96,.17-1.55,.3-1.57,.23-.02-.06,.54-.31,1.49-.57,.48-.13,1.05-.26,1.69-.37,.32-.05,.69-.12,1.1-.01,.43,.1,.77,.52,.87,.91,.37,1.56,.04,3.01-.61,3.85-.34,.41-.76,.59-1.05,.64-.29,.04-.45-.02-.44-.05Z"/><g><path class="cls-5" d="M172.72,39.96c-.27-1.37-1.92-1.46-1.92-1.46,1.28-1.1,.55-3.02,.55-3.02l-3.29,.64s-.18-.82-.73-1.83c-.55-1.01-3.11-1.19-3.11-1.19-.73-1.56-2.84-1.19-4.03,0-1.19,1.19-4.21,4.76-4.57,6.68-.37,1.92,1.1,5.67,1.37,6.86,.27,1.19,.82,6.38,.82,6.38l.26,.35-.25-.14s-22.81,24.12-28.8,29.46c-5.67,5.06-29.13,25.41-29.13,25.41l8.31,23.74s23.29-26.4,27.68-32.35l19.69-26.13c2.65-3.95,10.92-14.94,11.07-15.13,1.51-1.13,3.05-2.39,3.44-3.09,.82-1.46-.27-8.69-.27-8.69,0,0,1.92-1.65,2.29-2.01,.37-.37,.91-3.11,.64-4.48Z"/><path class="cls-3" d="M172.86,39.93c-.22-1.09-1.24-1.43-1.76-1.53,.44-.49,.58-1.08,.6-1.6,.02-.72-.2-1.32-.22-1.37,0-.01-.01-.03-.02-.04-.03-.04-.08-.06-.14-.05l-.21,.04-2.95,.57s-.02-.06-.03-.1c-.09-.32-.3-.93-.68-1.64-.41-.75-1.79-1.06-2.61-1.19-.15-.02-.28-.04-.38-.05-.06,0-.11-.01-.15-.02-.1-.18-.21-.35-.35-.48t0,0c-.18-.19-.4-.33-.65-.42-.12-.04-.24-.08-.37-.1-.92-.16-2.06,.26-2.84,1.04-1.1,1.1-4.23,4.74-4.61,6.75-.29,1.5,.5,4.03,1.02,5.7,.16,.5,.29,.94,.36,1.22,.27,1.17,.81,6.32,.81,6.37,0,.02,.01,.05,.03,.07l.02,.02s0,0,0,0c-.23,.24-22.88,24.18-28.79,29.46-.38,.34-.83,.74-1.36,1.21-5.22,4.61-17.14,14.97-23.53,20.53-2.51,2.18-4.17,3.62-4.23,3.67-.04,.04-.06,.1-.04,.15l.02,.05,.65,1.85,7.65,21.85s.06,.08,.11,.09c0,0,.02,0,.03,0,.04,0,.08-.02,.11-.05,.02-.02,.17-.19,.43-.49,3.2-3.63,23.24-26.43,27.26-31.87l5.4-7.17,14.28-18.96s0,0,0,0c2.61-3.88,10.57-14.47,11.05-15.11,1.96-1.47,3.13-2.52,3.47-3.12,.8-1.42-.12-7.88-.25-8.7,.33-.28,1.9-1.64,2.24-1.97,.42-.42,.96-3.2,.68-4.61Zm-3.16,6.42s-.05,.08-.05,.13c.01,.07,1.08,7.2,.29,8.6-.31,.56-1.49,1.61-3.41,3.04-.01,0-.02,.02-.03,.03-.34,.46-8.43,11.21-11.07,15.14l-14.27,18.94-5.41,7.18c-3.97,5.37-23.65,27.77-27.15,31.74-.16,.18-.28,.32-.37,.42l-6.4-18.29h0s-1.27-3.63-1.27-3.63l-.53-1.51c.31-.27,1.54-1.33,3.34-2.9,6.17-5.36,19.05-16.55,24.45-21.33,.49-.43,.91-.81,1.27-1.12,5.75-5.13,27.28-27.85,28.73-29.39l.16,.09c.06,.03,.13,.02,.18-.03,.04-.05,.05-.12,0-.18l-.24-.32c-.05-.51-.55-5.22-.81-6.36-.07-.29-.2-.73-.36-1.24-.51-1.65-1.28-4.14-1.01-5.57,.34-1.78,3.17-5.24,4.54-6.6,.72-.72,1.76-1.11,2.6-.96,.55,.1,.96,.41,1.2,.92,.02,.05,.07,.08,.12,.08,0,0,.18,.01,.44,.05,.11,.02,.24,.03,.38,.06,.77,.14,1.86,.43,2.18,1.01,.37,.69,.58,1.29,.66,1.59,.04,.13,.05,.2,.05,.2,.02,.07,.09,.12,.16,.11l3.17-.62s.03,.09,.04,.14c0,.02,.01,.05,.02,.08,.14,.58,.28,1.78-.6,2.53-.04,.04-.06,.1-.04,.15,.01,.04,.05,.08,.09,.09,.01,0,.02,0,.03,0,.06,0,1.54,.1,1.79,1.35,.12,.59,.09,1.55-.08,2.57-.16,.98-.39,1.66-.52,1.79-.36,.36-2.26,1.99-2.28,2.01Z"/></g><path class="cls-3" d="M171,40.02c.07,0,.07,.57,.03,1.48-.02,.46-.05,.99-.1,1.6-.06,.6-.15,1.29-.45,1.97-.3,.67-.79,1.24-1.39,1.54-.27,.16-.69,.22-.97,.13-.29-.07-.53-.2-.73-.33-.8-.54-1.03-1.13-.98-1.15,.06-.04,.38,.44,1.15,.86,.38,.19,.88,.4,1.32,.1,.48-.26,.89-.75,1.15-1.35,.5-1.21,.49-2.52,.66-3.41,.13-.9,.24-1.46,.31-1.45Z"/><path class="cls-3" d="M163.29,32.06s.26,0,.66,.19c.4,.18,.96,.65,1.21,1.44,.13,.39,.19,.83,.22,1.29,.03,.45,.07,.94,.08,1.46,.01,1.01-.07,2.3-.97,3.28-.43,.44-1,.73-1.61,.75-.62,.03-1.2-.34-1.47-.81-.29-.46-.37-.99-.36-1.45,0-.46,.09-.87,.15-1.24l.35,.04c-.1,.96-.72,1.51-1.15,1.74-.45,.24-.74,.21-.74,.19-.01-.04,.26-.09,.64-.36,.36-.26,.86-.8,.9-1.6l.35,.04c-.09,.73-.25,1.64,.23,2.39,.23,.37,.63,.6,1.08,.58,.45-.02,.93-.25,1.27-.61,.74-.8,.87-1.96,.87-2.94-.03-1,0-1.96-.18-2.65-.19-.71-.63-1.15-.98-1.38-.35-.23-.58-.3-.57-.35Z"/><path class="cls-3" d="M165.5,54.91s.2-.49,.52-1.39c.31-.9,.68-2.24,.73-3.93,.03-.84-.02-1.77-.2-2.75-.16-.97-.54-2.01-.53-3.21,0-.59,.16-1.22,.49-1.77,.32-.54,.77-1,1.25-1.41,.96-.81,2.11-1.42,2.87-2.41,.53-.7,.81-1.61,.57-2.36l.21,.16c-2.24-.1-4.3,.72-5.91,1.73-1.63,1.02-2.86,2.25-3.83,3.31-.97,1.07-1.69,1.98-2.2,2.6-.51,.62-.79,.95-.82,.94-.02-.02,.22-.39,.68-1.04,.47-.65,1.15-1.6,2.1-2.7,.95-1.1,2.18-2.38,3.84-3.45,1.64-1.06,3.78-1.94,6.16-1.85h.16s.05,.17,.05,.17c.3,.96-.04,2.01-.64,2.79-.85,1.1-2.04,1.71-2.95,2.48-.94,.75-1.61,1.73-1.6,2.82-.02,1.08,.33,2.12,.48,3.13,.17,1.01,.2,1.97,.15,2.83-.1,1.74-.53,3.09-.9,3.98-.18,.45-.35,.78-.48,1-.13,.22-.2,.33-.21,.32Z"/><path class="cls-2" d="M111.04,202.36c-10.59,7.19-19.81,15.42-46.8,14.3-4.95-.21-9.59-.82-13.92-1.78-1.4-2.46-3.14-6.32-3.73-11.04-1.1-8.83-4.86-20-6.09-29.08-1.27-9.39-4.46-10.59-4.77-22.91-.14-5.63,4.19-12.87,8.95-19.07,.71-.92,1.43-1.82,2.14-2.69,4.98-6.07,9.77-10.59,9.77-10.59,1.33-1.28,5.45-3.29,6.45-3.73,.07-.03,.12-.05,.16-.07,0,0,.01,0,.02,0,.06-.02,.07-.02,0,.02,0,0,0,0,0,0,0,0,.04,.05,.1,.12,.37,.43,1.71,1.89,3.86,3.19,2.48,1.51,6.04,2.81,10.44,2.11,.22-.03,.44-.08,.66-.12,.04-.01,.07-.03,.11-.04,1.21-.49,2.41-.96,3.54-1.41,3.95-1.56,7.09-2.75,7.09-2.75l.04-.03h0s.21-.17,.21-.17h0s.21-.17,.21-.17l10.29-8.24,.12-.09,.64,1.68,1.32,3.49h0s6.77,17.88,6.77,17.88l.06,.15h0s.06,.15,.06,.15l.94,2.49s-7.17,8.97-8.11,14.03c-.95,5.06-1.96,34.13-1.67,35.04,2.08,6.58,6.52,13.45,11.16,19.36Z"/><path class="cls-6" d="M62.29,168.58c-3.66-3.13-6.96-7.11-7.34-11.9l-.27-.03c-1.18,5.42,.78,11.41,4.94,15.07,4.16,3.66,9.67,4.28,14.9,2.42-4.68-1.1-8.58-2.43-12.24-5.56Z"/><path class="cls-3" d="M86.49,145.69s.75-9.61,7.07-14.83c6.32-5.21,8.44-10.71,6.68-15.33-1.23-3.24,.3-6.44,1.97-8.68,2.8-3.77,5.25-7.79,7.01-12.15,2.53-6.28,4.55-13.37,3.85-19.94-.92-8.54-5.77-18.77-14.3-19.86-3.95-.51-5.49-1.55-10.52-.6,0,0-3.11-1.62-4.84-2.33-5.97-2.45-13.02,1.22-16.24,5.1-7.45,8.97-3.72,15.08-7.23,22.12,0,0,9.46-13.38,12.86-16.22,3.95-3.29,9.09-2.9,9.09-2.9,3.8,2.82,3.88,6.13,2.87,10.75-1.01,4.62-2.15,8.08-.45,12.5,1.6,4.16,1.4,9.4,8.11,10.77,0,0-.26,4.28-2.92,7.32-2.66,3.04-7,1.69-9.54,8.05-2.53,6.36-1.88,13.19-3.3,15.29l9.82,20.96Z"/><path class="cls-3" d="M77.18,116.09c1.66,2.91,1.6,6.72-.16,9.57-1.16,1.88-2.97,3.33-3.85,5.35-1.08,2.46-.59,5.28-.27,7.95,.32,2.67,.37,5.64-1.33,7.72-.71,.87-1.68,1.5-2.4,2.36-.72,.86-1.18,2.12-.64,3.1,.37,.69,1.13,1.06,1.86,1.34,5.45,2.06,12.11,.33,15.88-4.11,.14,.95,.29,1.9,.43,2.85,3.57-3.09,6.05-7.43,6.88-12.08,.84-4.65,.04-9.58-2.23-13.72l-14.17-10.35Z"/></g><path class="cls-4" d="M2.91,92.22c-.51-.13-.55-1.74-.07-3.6,.47-1.86,1.27-3.26,1.79-3.13,.51,.13,.54,1.74,.07,3.6-.47,1.86-1.27,3.26-1.79,3.13Z"/><path class="cls-4" d="M6.94,61.42c-.31,.44-1.96-.21-3.82-1.21-1.86-1.01-3.3-2.04-3.1-2.54,.19-.49,2.04-.22,4.01,.85,1.97,1.07,3.21,2.47,2.91,2.9Z"/><path class="cls-4" d="M45.09,44.75c-.34-.41,.11-1.34,1.01-2.09,.9-.75,1.9-1.02,2.24-.61,.34,.41-.11,1.34-1.01,2.09-.9,.75-1.9,1.02-2.24,.62Z"/><path class="cls-4" d="M140.57,55.16c.46-.27,1.62,.85,2.6,2.5,.98,1.65,1.4,3.21,.95,3.48-.46,.27-1.62-.85-2.6-2.5-.98-1.65-1.4-3.21-.95-3.48Z"/><path class="cls-4" d="M159.5,79.78c-.09-.53,1.53-1.24,3.55-1.85,2.03-.6,3.77-.89,3.99-.4,.21,.48-1.29,1.6-3.44,2.24-2.15,.64-4.02,.52-4.1,0Z"/><path class="cls-4" d="M144.32,118.55c.53,.05,.87,1.03,.76,2.19-.11,1.16-.62,2.06-1.15,2.02-.53-.05-.87-1.03-.76-2.19,.11-1.16,.62-2.06,1.15-2.02Z"/><path class="cls-2" d="M19.05,140.33c.02,.06-.49,.12-1.18,.62-.33,.26-.71,.63-.97,1.16-.26,.52-.4,1.21-.24,1.93,.14,.71,.57,1.48,1.26,1.91,.35,.2,.79,.32,1.18,.26,.39-.06,.7-.34,.75-.74,.06-.41-.11-.85-.45-1.15-.34-.32-.83-.52-1.33-.61-1.01-.18-2.15,.17-2.97,.9-.84,.72-1.25,1.82-1.06,2.83,.09,.5,.31,.96,.65,1.28,.34,.33,.77,.46,1.22,.42,.44-.03,.87-.23,1.12-.54,.26-.3,.32-.71,.2-1.08-.12-.37-.38-.69-.7-.89-.32-.2-.67-.28-1.03-.27-.71,.04-1.33,.4-1.75,.81-.43,.41-.7,.87-.9,1.25-.38,.78-.53,1.25-.58,1.23-.04,0,.02-.5,.34-1.34,.17-.42,.42-.92,.87-1.41,.45-.47,1.12-.94,1.99-1.02,.87-.1,1.93,.42,2.3,1.45,.09,.26,.12,.54,.08,.83-.05,.29-.17,.57-.35,.8-.37,.47-.94,.73-1.53,.79-.3,.03-.61,0-.91-.09-.31-.09-.58-.27-.81-.48-.47-.43-.75-1.02-.87-1.63-.11-.61-.07-1.27,.16-1.88,.22-.61,.62-1.15,1.1-1.58,.97-.86,2.3-1.27,3.53-1.05,.61,.11,1.19,.35,1.65,.79,.47,.42,.74,1.1,.63,1.72-.05,.31-.21,.63-.44,.85-.24,.22-.54,.35-.83,.39-.59,.08-1.12-.1-1.56-.36-.88-.58-1.31-1.48-1.45-2.31-.14-.83,.05-1.62,.38-2.2,.33-.58,.77-.96,1.16-1.2,.8-.47,1.34-.43,1.33-.41Z"/><path class="cls-2" d="M149.9,108.21c.06-.03,.19,.47,.8,1.07,.31,.29,.73,.61,1.3,.79,.56,.18,1.25,.21,1.95-.05,.68-.24,1.38-.78,1.69-1.54,.15-.38,.2-.83,.07-1.21-.12-.38-.44-.64-.85-.63-.41,0-.82,.23-1.07,.62-.26,.38-.39,.9-.4,1.4-.02,1.02,.49,2.1,1.34,2.8,.84,.72,1.99,.96,2.96,.61,.48-.16,.9-.46,1.16-.84,.28-.39,.33-.83,.23-1.27-.1-.43-.36-.83-.7-1.03-.34-.21-.75-.21-1.1-.04-.34,.17-.62,.48-.77,.83-.15,.34-.18,.71-.11,1.06,.14,.7,.6,1.25,1.06,1.61,.47,.36,.97,.56,1.38,.7,.83,.26,1.32,.33,1.31,.38,0,.04-.5,.06-1.38-.13-.44-.1-.98-.27-1.53-.64-.54-.37-1.09-.96-1.31-1.81-.23-.84,.12-1.97,1.09-2.49,.24-.13,.52-.21,.81-.21,.29,0,.59,.08,.84,.23,.52,.3,.86,.82,1.01,1.39,.07,.29,.1,.6,.05,.91-.05,.32-.18,.62-.35,.87-.35,.53-.89,.9-1.48,1.1-.59,.21-1.25,.26-1.88,.13-.64-.12-1.23-.43-1.73-.85-1-.83-1.6-2.08-1.57-3.33,.02-.62,.17-1.23,.53-1.76,.35-.52,.97-.89,1.61-.88,.32,0,.65,.11,.9,.31,.26,.2,.42,.48,.51,.77,.17,.57,.07,1.12-.12,1.6-.44,.96-1.26,1.52-2.06,1.78-.8,.27-1.61,.2-2.23-.04-.62-.24-1.06-.62-1.36-.96-.59-.72-.63-1.26-.6-1.25Z"/><path class="cls-2" d="M73,39.73s-.23,.18-.73,.23c-.48,.05-1.25-.01-2.03-.49-.78-.46-1.5-1.45-1.59-2.68-.04-.61,.05-1.27,.39-1.88,.17-.3,.4-.58,.71-.8,.3-.22,.71-.36,1.11-.33,.4,.02,.79,.17,1.09,.46,.3,.29,.43,.75,.37,1.13-.06,.39-.25,.72-.51,.97-.26,.26-.6,.4-.92,.46-.65,.11-1.25-.06-1.73-.31-.48-.26-.85-.62-1.12-.99-.53-.75-.66-1.5-.63-1.99,.02-.5,.15-.75,.18-.74,.05,.01,.02,.27,.08,.73,.06,.45,.25,1.1,.75,1.71,.25,.3,.59,.58,.99,.78,.4,.19,.9,.3,1.35,.2,.23-.05,.44-.15,.59-.31,.16-.16,.28-.38,.3-.6,.03-.22-.04-.42-.19-.57-.15-.15-.39-.25-.64-.26-.49-.04-.95,.33-1.21,.78-.27,.46-.37,1-.35,1.51,.05,1.03,.59,1.88,1.23,2.32,.64,.46,1.31,.59,1.76,.63,.46,.04,.72-.01,.73,.04Z"/></g></g></svg>