<?xml version="1.0" encoding="UTF-8"?>
<svg width="54px" height="50px" viewBox="0 0 54 50" version="1.1" xmlns="http://www.w3.org/2000/svg" xmlns:xlink="http://www.w3.org/1999/xlink">
    <title>icon</title>
    <g id="Page-1" stroke="none" stroke-width="1" fill="none" fill-rule="evenodd">
        <g id="Onboarding-admin-:-step-3---configuration-d'équipe" transform="translate(-398.000000, -690.000000)" fill="#02C58C">
            <g id="Group" transform="translate(333.000000, 180.000000)">
                <g id="step-2" transform="translate(49.000000, 499.000000)">
                    <g id="icon" transform="translate(16.000000, 11.000000)">
                        <path d="M8.56392761,32.7958266 C17.5241271,49.9094793 41.8032301,43.5429114 47.8113281,27.3799559 C48.8509328,24.5838105 49.3029172,21.2542681 47.6302197,18.7892002 C45.7527605,16.0223293 41.9404701,15.3669323 38.5719037,15.4382328 C35.2030764,15.5095339 31.6754931,16.0318671 28.5841683,14.7155327 C23.4086685,12.5122009 21.2346436,6.50962706 14.7449908,7.12445505 C9.60541334,7.6114025 7.05581182,11.4452039 6.09348196,16.0746097 C4.92620136,21.6889132 5.89208888,27.6928249 8.56392761,32.7958266 Z" id="Fill-165-Copy" fill-opacity="0.19" transform="translate(27.172847, 25.014615) scale(-1, 1) rotate(22.000000) translate(-27.172847, -25.014615) "></path>
                        <path d="M41.7907845,26 C44.6631866,26 47,28.3228247 47,31.1778759 L47,31.1778759 L47,36.8932325 C47,38.6062771 45.597912,40 43.8744284,40 L43.8744284,40 L39.2606405,40 C39.3763006,39.6759142 39.4398749,39.3274485 39.4398749,38.9644108 L39.4398749,38.9644108 L39.4398749,28.4803139 C39.4398749,27.6095698 39.2844632,26.7741348 39,26 L39,26 Z M17,26 C16.7155393,26.7741309 16.560129,27.6094917 16.560129,28.4803014 L16.560129,28.4803014 L16.560129,38.9643459 C16.560129,39.3273818 16.6237027,39.6757758 16.7393618,40 L16.7393618,40 L12.125544,40 C10.4020757,40 9,38.6062841 9,36.893248 L9,36.893248 L9,31.17792 C9,28.3228131 11.3368632,26 14.20924,26 L14.20924,26 Z M31.418189,22 C34.4960015,22 37,24.5039985 37,27.581811 L37,27.581811 L37,38.8836378 C37,39.5001972 36.5001972,40 35.8836378,40 L35.8836378,40 L20.1163622,40 C19.4998028,40 19,39.5001217 19,38.8836378 L19,38.8836378 L19,27.581811 C19,24.5039985 21.5039985,22 24.581811,22 L24.581811,22 Z M17,15 C19.7570515,15 22,17.2430237 22,20 C22,20.8485145 21.7869124,21.647988 21.4123355,22.3487777 C20.8786762,23.3472734 20.0162467,24.1444152 18.9702896,24.5947349 C18.3653253,24.8551335 17.6993607,25 17,25 C14.2429485,25 12,22.7570515 12,20 C12,17.2429485 14.2429485,15 17,15 Z M29,8 C32.8598204,8 36,11.1402406 36,15.0000394 C36,15.3611477 35.9725098,15.7159514 35.9195128,16.0624698 C36.7694153,15.3976418 37.8391362,15 39,15 C41.7570515,15 44,17.2429485 44,20 C44,22.7570515 41.7570515,25 39,25 C38.3006393,25 37.6346747,24.8551335 37.0297104,24.5947349 C35.9837533,24.1444904 35.1213238,23.3473486 34.5876645,22.3487777 C34.2130876,21.6480632 34,20.8485897 34,20 C34,19.9632215 34.0003991,19.9265344 34.0011933,19.889943 C33.537642,20.3666078 33.0051063,20.776605 32.4209324,21.1052185 C31.4087258,21.6745963 30.2417704,22 29,22 C27.7582296,22 26.5912742,21.6745963 25.5790676,21.1052185 C23.4450307,19.9047212 22,17.6181535 22,15.0000394 C22,11.1401619 25.1401796,8 29,8 Z" id="Combined-Shape" fill-rule="nonzero"></path>
                    </g>
                </g>
            </g>
        </g>
    </g>
</svg>