<?xml version="1.0" encoding="UTF-8"?>
<svg width="70px" height="65px" viewBox="0 0 70 65" version="1.1" xmlns="http://www.w3.org/2000/svg" xmlns:xlink="http://www.w3.org/1999/xlink">
    <title>dashboard</title>
    <g id="Page-1" stroke="none" stroke-width="1" fill="none" fill-rule="evenodd">
        <g id="Old-customers-:-start-point---step-1" transform="translate(-412.000000, -466.000000)">
            <g id="Group" transform="translate(343.000000, 158.000000)">
                <g id="bloc-1-copy-4" transform="translate(47.000000, 281.000000)">
                    <g id="dashboard" transform="translate(22.000000, 27.000000)">
                        <path d="M11.1064315,42.605677 C22.7481769,64.8560574 54.2255172,56.6140608 61.9961229,35.618348 C63.340702,31.9861496 63.9225595,27.6600564 61.7502074,24.4545975 C59.3119289,20.8566883 54.3672464,20.0001086 49.9989272,20.088429 C45.6302697,20.1767496 41.0563151,20.8509734 37.0457421,19.1364462 C30.3312366,16.2666022 27.5042045,8.46357931 19.0891096,9.25418783 C12.4246496,9.88035486 9.12321725,14.8590243 7.88120774,20.8736077 C6.3746818,28.1677827 7.63498368,35.9709901 11.1064315,42.605677 Z" id="Fill-165-Copy" fill-opacity="0.189958479" fill="#F9C129" transform="translate(35.224641, 32.509418) scale(-1, 1) rotate(22.000000) translate(-35.224641, -32.509418) "></path>
                        <path d="M44.2668809,51.4296875 L44.8410996,54.875 L46.6875,54.875 C47.4803047,54.875 48.1230469,55.5177422 48.1230469,56.3105469 C48.1230469,57.1033516 47.4803047,57.7460938 46.6875,57.7460938 L46.6875,57.7460938 L28.3125,57.7460938 C27.5196953,57.7460938 26.8769531,57.1033516 26.8769531,56.3105469 C26.8769531,55.5177422 27.5196953,54.875 28.3125,54.875 L28.3125,54.875 L30.1589004,54.875 L30.7331191,51.4296875 L44.2668809,51.4296875 Z M36.0644531,12 L36.0644531,16.4980469 C36.0644531,17.2908516 36.7071953,17.9335937 37.5,17.9335937 C38.2928047,17.9335937 38.9355469,17.2908516 38.9355469,16.4980469 L38.9355469,16.4980469 L38.9355469,12 L57.6933594,12 C60.068041,12 62,13.931959 62,16.3066406 L62,16.3066406 L62,44.2519531 C62,46.6266348 60.068041,48.5585938 57.6933594,48.5585938 L57.6933594,48.5585938 L17.3066406,48.5585938 C14.931959,48.5585938 13,46.6266348 13,44.2519531 L13,44.2519531 L13,16.3066406 C13,13.931959 14.931959,12 17.3066406,12 L17.3066406,12 L36.0644531,12 Z M20.65625,21.1875 C19.8634453,21.1875 19.2207031,21.8302422 19.2207031,22.6230469 L19.2207031,22.6230469 L19.2207031,37.9355469 C19.2207031,38.7283516 19.8634453,39.3710938 20.65625,39.3710938 L20.65625,39.3710938 L32.90625,39.3710938 C33.6990547,39.3710938 34.3417969,38.7283516 34.3417969,37.9355469 L34.3417969,37.9355469 L34.3417969,31.8105469 C34.3417969,31.0177422 33.6990547,30.375 32.90625,30.375 C32.1134453,30.375 31.4707031,31.0177422 31.4707031,31.8105469 L31.4707031,31.8105469 L31.4707031,36.5 L28.2167969,36.5 L28.2167969,27.2167969 C28.2167969,26.4239922 27.5740547,25.78125 26.78125,25.78125 C25.9884453,25.78125 25.3457031,26.4239922 25.3457031,27.2167969 L25.3457031,27.2167969 L25.3457031,36.5 L22.0917969,36.5 L22.0917969,22.6230469 C22.0917969,21.8302422 21.4490547,21.1875 20.65625,21.1875 Z M47.453125,21.953125 C42.8620547,21.953125 39.1269531,25.6882266 39.1269531,30.2792969 C39.1269531,34.8692187 42.8632031,38.6054688 47.453125,38.6054688 C52.0441953,38.6054688 55.7792969,34.8703672 55.7792969,30.2792969 C55.7792969,25.6882266 52.0441953,21.953125 47.453125,21.953125 Z M52.7151699,31.7148438 C51.7782363,35.1448438 47.8394785,36.786248 44.7487461,35.0138262 L44.7487461,35.0138262 L48.0477285,31.7148438 Z M46.0175781,25.017252 L46.0175781,29.6846934 L42.7185957,32.9836758 C40.9437813,29.8887324 42.5926504,25.95275 46.0175781,25.017252 L46.0175781,25.017252 Z M48.8886719,25.017252 C50.7444512,25.5240957 52.2083262,26.9879707 52.7151699,28.84375 L52.7151699,28.84375 L48.8886719,28.84375 Z" id="Combined-Shape" fill="#F8C12A" fill-rule="nonzero"></path>
                    </g>
                </g>
            </g>
        </g>
    </g>
</svg>