<?xml version="1.0" encoding="UTF-8"?>
<svg width="169px" height="42px" viewBox="0 0 169 42" version="1.1" xmlns="http://www.w3.org/2000/svg" xmlns:xlink="http://www.w3.org/1999/xlink">
    <title>Group 24</title>
    <defs>
        <polygon id="path-1" points="2.84217094e-14 0 17.6091849 0 17.6091849 20.2752922 2.84217094e-14 20.2752922"></polygon>
    </defs>
    <g id="Page-1" stroke="none" stroke-width="1" fill="none" fill-rule="evenodd">
        <g id="Accueil---empty" transform="translate(-1136.000000, -302.000000)">
            <g id="empty-message" transform="translate(547.000000, 228.000000)">
                <g id="Group-24" transform="translate(673.195676, 94.952382) rotate(6.000000) translate(-673.195676, -94.952382) translate(590.000000, 83.000000)">
                    <g id="Group-3" transform="translate(148.782167, 0.000000)">
                        <mask id="mask-2" fill="white">
                            <use xlink:href="#path-1"></use>
                        </mask>
                        <g id="Clip-2"></g>
                        <path d="M8.86364456,8.8487 C6.11964456,10.0457 5.40964456,10.7837 5.80064456,11.9707 C6.51864456,14.1497 8.30864456,12.6527 9.71064456,13.0107 C9.32364456,14.2927 8.12464456,14.7217 7.28764456,15.4747 C6.60864456,16.0857 5.81564456,16.5827 5.20064456,17.2487 C4.49064456,18.0167 4.48864456,18.9677 5.19764456,19.7397 C5.83664456,20.4337 6.65364456,20.4257 7.43464456,19.8747 C8.10964456,19.3997 8.82864456,18.9737 9.44564456,18.4327 C11.7886446,16.3807 14.1756446,14.3697 16.3966446,12.1927 C18.2586446,10.3667 17.9526446,8.9057 15.6406446,7.6367 C14.2756446,6.8867 12.8196446,6.2957 11.4776446,5.5087 C8.79364456,3.9327 6.14264456,2.2947 3.50964456,0.6317 C2.48464456,-0.0153 1.52564456,-0.3853 0.555644556,0.6307 C-0.284355444,1.5127 -0.208355444,2.7567 1.03364456,3.7417 C2.67864456,5.0457 4.49264456,6.1417 6.25264456,7.2997 C6.99764456,7.7907 7.78764456,8.2137 8.86364456,8.8487" id="Fill-1" fill="#3767DA" mask="url(#mask-2)"></path>
                    </g>
                    <path d="M62.0540111,18.8438 C60.9200111,19.0238 59.9920111,19.4108 59.9080111,20.6558 C59.8230111,21.9278 60.7710111,22.4438 61.8310111,22.5768 C65.4670111,23.0368 69.1120111,23.4348 72.7560111,23.8238 C73.2000111,23.8718 73.7570111,23.8718 74.0930111,23.6448 C74.5780111,23.3168 75.1690111,22.7928 75.2330111,22.2918 C75.2970111,21.7858 74.8620111,21.1308 74.4790111,20.6838 C74.2140111,20.3738 73.6800111,20.1998 73.2440111,20.1468 C69.5170111,19.6888 65.7840111,19.2728 62.0540111,18.8438" id="Fill-4" fill="#3767DA"></path>
                    <path d="M104.690711,23.0928 C106.331711,22.9358 107.974711,22.8028 109.611711,22.6118 C110.630711,22.4928 111.344711,21.9638 111.320711,20.8418 C111.295711,19.7238 110.526711,19.2368 109.543711,19.0908 C108.919711,18.9988 108.265711,19.0118 107.633711,19.0718 C104.990711,19.3198 102.348711,19.6018 99.7077111,19.8728 C99.4337111,19.9008 99.1537111,19.9048 98.8897111,19.9718 C97.9067111,20.2268 97.1827111,20.8028 97.3037111,21.8838 C97.4217111,22.9248 98.1857111,23.5358 99.2127111,23.4848 C101.039711,23.3928 102.858711,23.1578 104.679711,22.9838 C104.683711,23.0198 104.686711,23.0568 104.690711,23.0928" id="Fill-6" fill="#3767DA"></path>
                    <path d="M119.532511,21.461 C120.991511,21.32 122.456511,21.222 123.907511,21.027 C124.990511,20.883 125.920511,20.351 125.844511,19.121 C125.772511,17.931 124.862511,17.321 123.743511,17.416 C120.550511,17.688 117.361511,18.033 114.181511,18.434 C113.160511,18.562 112.410511,19.36 112.691511,20.354 C112.869511,20.98 113.753511,21.817 114.343511,21.837 C116.065511,21.893 117.799511,21.584 119.527511,21.418 C119.529511,21.433 119.530511,21.446 119.532511,21.461" id="Fill-8" fill="#3767DA"></path>
                    <path d="M30.0589111,13.5421 C28.7049111,13.7241 28.0979111,15.0801 28.9069111,16.1721 C29.1169111,16.4541 29.4049111,16.7711 29.7189111,16.8681 C32.4929111,17.7251 35.2639111,18.6021 38.0749111,19.3201 C39.0359111,19.5661 40.0169111,18.9881 40.0219339,17.9251 C40.0259111,17.2591 39.5029111,16.1751 38.9709111,15.9911 C36.2259111,15.0481 33.4019111,14.3331 30.6019111,13.5481 C30.4339111,13.5011 30.2409111,13.5411 30.0589111,13.5421" id="Fill-10" fill="#3767DA"></path>
                    <path d="M89.9886111,23.9044 C90.2986111,23.8744 90.5706111,23.8444 90.8426111,23.8234 C91.9906111,23.7294 93.1246111,23.5474 93.0886111,22.0434 C93.0526111,20.6044 91.8956111,20.2364 90.7946111,20.1974 C88.3386111,20.1114 85.8776111,20.1964 83.4176111,20.2114 C82.2886111,20.2174 81.4306111,20.6164 81.2986111,21.8574 C81.1886111,22.8814 82.0556111,23.7604 83.4646111,23.8334 C85.6456111,23.9444 87.8376111,23.8884 89.9886111,23.9044" id="Fill-12" fill="#3767DA"></path>
                    <path d="M145.072611,16.3741 C147.038611,15.7431 149.302611,15.0431 151.548611,14.2841 C152.499611,13.9631 153.144611,13.2901 152.897611,12.2081 C152.652611,11.1351 151.783611,10.7451 150.795611,10.9271 C149.458611,11.1721 148.147611,11.5691 146.834611,11.9331 C145.693611,12.2491 144.552611,12.5791 143.432611,12.9611 C142.413611,13.3081 141.551611,13.9071 141.848611,15.1451 C142.134611,16.3391 143.102611,16.5951 144.213611,16.4581 C144.394611,16.4361 144.577611,16.4221 145.072611,16.3741" id="Fill-14" fill="#3767DA"></path>
                    <path d="M52.3753111,21.6182 C52.8783111,21.0472 53.7613111,20.4772 53.8563111,19.7982 C53.9313111,19.2702 53.1043111,18.1882 52.5353111,18.0752 C50.2313111,17.6182 47.8763111,17.3372 45.5303111,17.2412 C45.0153111,17.2202 44.1843111,18.1422 43.9863111,18.7802 C43.7213111,19.6412 44.3723111,20.3702 45.2973111,20.5292 C47.5343111,20.9152 49.7843111,21.2242 52.3753111,21.6182" id="Fill-16" fill="#3767DA"></path>
                    <path d="M23.3831111,14.9747 C23.9121111,14.4547 24.5621111,14.1007 24.7001111,13.6037 C24.8451111,13.0867 24.6511111,12.3207 24.3211111,11.8697 C23.9741111,11.3937 23.3251111,11.0887 22.7531111,10.8347 C21.0881111,10.0977 19.4301111,9.3037 17.6941111,8.7917 C17.1111111,8.6207 16.0711111,9.0467 15.6661111,9.5457 C15.3731111,9.9067 15.5331111,11.1397 15.9241111,11.4647 C18.0611111,13.2417 20.7331111,13.9207 23.3831111,14.9747" id="Fill-18" fill="#3767DA"></path>
                    <path d="M1.51891106,0.8956 C0.234911063,1.0726 -0.544088937,2.6486 0.453911063,3.5806 C2.08591106,5.1046 4.02391106,6.3306 5.94491106,7.4976 C6.31591106,7.7226 7.38591106,7.2706 7.78591106,6.8216 C8.07691106,6.4936 8.04191106,5.3546 7.72791106,5.0966 C5.90991106,3.6076 3.96891106,2.2696 2.05591106,0.8986 C1.93691106,0.8136 1.70091106,0.8926 1.51891106,0.8956" id="Fill-20" fill="#3767DA"></path>
                    <path d="M132.062811,15.5118 C130.976811,15.8028 129.814811,16.0738 128.678811,16.4278 C127.710811,16.7308 127.065811,17.3978 127.262811,18.4718 C127.465811,19.5738 128.393811,19.9458 129.351811,19.8378 C130.620811,19.6968 131.881811,19.3958 133.110811,19.0388 C134.193811,18.7248 135.248811,18.2188 135.037811,16.7858 C134.877811,15.7028 133.774811,15.2488 132.062811,15.5118" id="Fill-22" fill="#3767DA"></path>
                </g>
            </g>
        </g>
    </g>
</svg>