<?xml version="1.0" encoding="UTF-8"?>
<svg width="58px" height="55px" viewBox="0 0 58 55" version="1.1" xmlns="http://www.w3.org/2000/svg" xmlns:xlink="http://www.w3.org/1999/xlink">
    <!-- Generator: Sketch 64 (93537) - https://sketch.com -->
    <title>icon</title>
    <desc>Created with Sketch.</desc>
    <g id="Web---desktop" stroke="none" stroke-width="1" fill="none" fill-rule="evenodd">
        <g id="Entreprise" transform="translate(-1211.000000, -1853.000000)" fill="#FA6400">
            <g id="section-categories" transform="translate(0.000000, 1492.000000)">
                <g id="row-2" transform="translate(390.000000, 342.000000)">
                    <g id="bloc-3" transform="translate(789.000000, 0.000000)">
                        <g id="icon" transform="translate(24.000000, 15.000000)">
                            <path d="M12.0950155,44.7300916 C24.4451666,68.3501587 57.7670696,59.637871 65.9733918,37.3691324 C67.3933653,33.5167045 68.0049967,28.9272531 65.7014362,25.52396 C63.1158876,21.7039954 57.87922,20.7900292 53.2538254,20.8792141 C48.6280725,20.9683989 43.7855434,21.6790236 39.5370885,19.855729 C32.4243216,16.8038241 29.4227777,8.52176402 20.5130975,9.35189642 C13.4569432,10.009367 9.96630921,15.2883955 8.65741104,21.6686782 C7.06974945,29.4063541 8.41232854,37.6869872 12.0950155,44.7300916 Z" id="Fill-165-Copy" fill-opacity="0.09" transform="translate(37.618310, 34.033743) scale(-1, 1) rotate(22.000000) translate(-37.618310, -34.033743) "></path>
                            <g id="architect" transform="translate(17.000000, 5.000000)" fill-rule="nonzero">
                                <path d="M22,22.8421875 L19.8537477,16 C19.7358318,16.0054688 19.6197441,16.015625 19.5,16.015625 C19.3802559,16.015625 19.2641682,16.0054687 19.1462523,16 L17,22.8421875 C17.5248954,22.9190477 18.0543338,22.9712096 18.5859232,22.9984375 L18.5859232,22.265625 C18.5859232,21.8341525 18.9951693,21.484375 19.5,21.484375 C20.0048307,21.484375 20.4140768,21.8341525 20.4140768,22.265625 L20.4140768,23 C20.9457,22.9722549 21.4751386,22.9195714 22,22.8421875 L22,22.8421875 Z" id="Path"></path>
                                <path d="M15,10 C15,12.209139 16.790861,14 19,14 C21.209139,14 23,12.209139 23,10 C23,7.790861 21.209139,6 19,6 C16.7919575,6.00264489 15.0026449,7.79195748 15,10 Z M19,7.6 C20.3254834,7.6 21.4,8.6745166 21.4,10 C21.4,11.3254834 20.3254834,12.4 19,12.4 C17.6745166,12.4 16.6,11.3254834 16.6,10 C16.6,8.6745166 17.6745166,7.6 19,7.6 Z" id="Shape"></path>
                                <circle id="Oval" cx="19" cy="9" r="1"></circle>
                                <path d="M21,5 L21,2.3255814 C21,1.04119826 20.3284271,0 19.5,0 C18.6715729,0 18,1.04119826 18,2.3255814 L18,5 C18.9782427,4.54262455 20.0217573,4.54262455 21,5 L21,5 Z" id="Path"></path>
                                <path d="M11.6386713,34.9738178 L11.6464554,34.9738178 C12.1039285,35.0878854 12.5695659,34.8188355 12.6929826,34.3691241 L18,14.8259023 C17.440729,14.6280384 16.9140963,14.3497384 16.4371284,14 L11.0271881,33.9309774 C10.910115,34.3849329 11.1816986,34.8480991 11.6386713,34.9738178 L11.6386713,34.9738178 Z" id="Path"></path>
                                <path d="M48,43.8631818 L48,43.6818182 C48,41.2969522 46.0812204,39.3636364 43.7142857,39.3636364 C41.3473511,39.3636364 39.4285714,41.2969522 39.4285714,43.6818182 C39.4285714,44.1587914 39.0448155,44.5454545 38.5714286,44.5454545 C38.0980416,44.5454545 37.7142857,44.1587914 37.7142857,43.6818182 L37.7142857,10 L25.6482857,10 C25.5189687,10.9117219 25.1834816,11.7813185 24.6677143,12.5416818 L30.2965714,33.6904091 C30.5698039,34.7464142 30.1588796,35.8618998 29.268,36.4825455 L29.9751429,39.1399545 C30.0340491,39.3612184 30.0032926,39.5969984 29.8896414,39.7954105 C29.7759902,39.9938227 29.5887571,40.138609 29.3691429,40.1979091 C29.2953245,40.2176829 29.2192392,40.227556 29.1428571,40.2272727 C28.75493,40.2273207 28.4153303,39.9648468 28.3148571,39.5873182 L27.6068571,36.9238636 C26.5186302,36.8573075 25.5982449,36.0888754 25.3311429,35.0238636 L22.5102857,24.4227273 C21.8695861,24.5421325 21.2219899,24.6203058 20.5714286,24.6567727 L20.5714286,25.5454545 C20.5714286,26.0224277 20.1876726,26.4090909 19.7142857,26.4090909 C19.2408988,26.4090909 18.8571429,26.0224277 18.8571429,25.5454545 L18.8571429,24.6567727 C18.2066183,24.6208767 17.5590223,24.5432803 16.9182857,24.4244545 L14.0965714,35.0273182 C13.828598,36.091425 12.9091958,36.8593256 11.8217143,36.9273182 L11.2894286,38.9275 C14.1815271,40.3458004 17.3549639,41.0854516 20.5714286,41.0909091 C21.0448155,41.0909091 21.4285714,41.4775723 21.4285714,41.9545455 C21.4285714,42.4315186 21.0448155,42.8181818 20.5714286,42.8181818 C11.9031451,42.7898211 3.97171234,37.9006761 0,30.1374091 L0,48 L43.8942857,48 C46.1598532,47.9952492 47.995285,46.1459127 48,43.8631818 Z" id="Path"></path>
                                <path d="M48,9.2394015 C48,6.8980447 46.209139,5 44,5 C41.790861,5 40,6.8980447 40,9.2394015 L40,39 C41.0523142,37.8587083 42.4943591,37.2153061 44,37.2153061 C45.5056409,37.2153061 46.9476858,37.8587083 48,39 L48,9.2394015 Z" id="Path"></path>
                                <path d="M0,10 L0,25.4726194 C1.45440681,30.744522 4.758767,35.2269349 9.23497648,38 L9.64140974,36.3986717 C8.7948026,35.7832887 8.40285294,34.6721591 8.66109272,33.6195923 L14,12.5337146 C13.510299,11.7758897 13.1915816,10.9090085 13.068455,10 L0,10 Z" id="Path"></path>
                                <path d="M26.7070627,34.8860928 C26.9049361,34.9985176 27.1398048,35.0292202 27.3605101,34.971513 L27.365703,34.971513 C27.822242,34.8431963 28.0913186,34.3784555 27.9715483,33.9251155 L22.5639463,14 C22.0866505,14.3497855 21.5596556,14.6281229 21,14.8260133 L26.3098012,34.366738 C26.3661076,34.5855196 26.509294,34.7727126 26.7070627,34.8860928 L26.7070627,34.8860928 Z" id="Path"></path>
                            </g>
                        </g>
                    </g>
                </g>
            </g>
        </g>
    </g>
</svg>