<?xml version="1.0" encoding="UTF-8"?>
<svg width="49px" height="47px" viewBox="0 0 49 47" version="1.1" xmlns="http://www.w3.org/2000/svg" xmlns:xlink="http://www.w3.org/1999/xlink">
    <!-- Generator: Sketch 64 (93537) - https://sketch.com -->
    <title>icon</title>
    <desc>Created with Sketch.</desc>
    <g id="Symbols" stroke="none" stroke-width="1" fill="none" fill-rule="evenodd">
        <g id="categories/icon+bloc/icon_dev" transform="translate(-7.000000, -3.000000)" fill="#E91B4B">
            <g id="icon">
                <path d="M10.3210799,38.1696781 C20.8598755,58.3254687 49.2945661,50.8909833 56.2972943,31.8883263 C57.5090051,28.6009212 58.0309305,24.6845894 56.0652256,21.7804459 C53.8588907,18.5207427 49.3902677,17.740825 45.4432643,17.8169293 C41.4959552,17.8930337 37.3636637,18.4994335 33.7383156,16.9435554 C27.6687545,14.3392632 25.107437,7.2719053 17.5045099,7.98028495 C11.4832582,8.5413265 8.50458386,13.0460975 7.38765742,18.4906054 C6.03285286,25.0934221 7.17852036,32.1595624 10.3210799,38.1696781 Z" id="Fill-165-Copy" fill-opacity="0.09" transform="translate(32.100958, 29.042127) scale(-1, 1) rotate(22.000000) translate(-32.100958, -29.042127) "></path>
                <g id="web-programming" transform="translate(11.946667, 10.240000)" fill-opacity="0.991723121" fill-rule="nonzero">
                    <path d="M18.3503819,3.41333333 L18.3459246,3.41333333 C17.6386942,3.41725896 17.0676602,3.79771774 17.0666667,4.26552168 C17.0651838,4.73299859 17.6342369,5.1141116 18.3424577,5.12 L18.3469151,5.12 C19.0541454,5.11574726 19.6251796,4.73561567 19.6266667,4.26781165 C19.6276558,3.80000763 19.0586028,3.41889462 18.3503819,3.41333333 Z" id="Path"></path>
                    <path d="M0,32.4334625 C0.00197979798,34.3138325 1.56107073,35.8377419 3.48444444,35.84 L38.3288889,35.84 C40.2522626,35.8377419 41.8113535,34.3138325 41.8133333,32.4334625 L41.8133333,10.24 L0,10.24 L0,32.4334625 Z M25.1480539,18.6247274 C24.8368956,18.3660113 24.7999394,17.9098707 25.0645724,17.6056695 C25.3288754,17.3021134 25.7954478,17.2653384 26.1066061,17.5243772 L30.8888081,21.5057678 C31.0537912,21.6435132 31.1488215,21.844486 31.1488215,22.0564268 C31.1488215,22.2680451 31.0537912,22.4693405 30.8888081,22.6064407 L26.1066061,26.5878314 C25.7954478,26.8468701 25.3288754,26.810095 25.0645724,26.5065389 C24.7999394,26.2026603 24.8368956,25.7468424 25.1480539,25.4878036 L29.2693333,22.0564268 L25.1480539,18.6247274 Z M18.4893333,28.8749858 L21.4702492,15.0391533 C21.5540606,14.6484982 21.9463906,14.3984919 22.3456498,14.4807521 C22.7452391,14.5630121 23.000633,14.9465703 22.9164916,15.3369026 L19.9359057,29.1730578 C19.8514343,29.5637128 19.4597643,29.8133965 19.0601751,29.7311364 C18.6609158,29.6488762 18.4051919,29.2656408 18.4893333,28.8749858 L18.4893333,28.8749858 Z M10.9245253,21.5057678 L15.7067273,17.5243772 C16.0178855,17.2653384 16.484458,17.3021134 16.748761,17.6056695 C17.0133939,17.9098707 16.9764377,18.3660113 16.6652794,18.6247274 L12.544,22.0564268 L16.6659394,25.4878036 C16.9764377,25.7468424 17.0137239,26.2026603 16.7490909,26.5065389 C16.4847879,26.810095 16.0178855,26.8468701 15.7070572,26.5878314 L10.9248552,22.6064407 C10.759872,22.4693405 10.6648417,22.2680451 10.6648417,22.0564268 C10.6648417,21.844486 10.759872,21.6435132 10.9248552,21.5057678 L10.9245253,21.5057678 Z" id="Shape"></path>
                    <path d="M10.6709464,3.41333333 L10.6664155,3.41333333 C9.95505316,3.42511247 9.38717155,3.80302661 9.38666667,4.26568505 C9.38566119,4.72801632 9.95102563,5.10691207 10.6623879,5.12 L10.6664155,5.12 C11.3777778,5.10822086 11.945156,4.73030673 11.9466667,4.26830264 C11.9471697,3.80564419 11.3813019,3.42674845 10.670443,3.41333333 L10.6709464,3.41333333 Z" id="Path"></path>
                    <path d="M38.3288889,0 L3.48444444,0 C1.56107073,0.00190259784 0.00197979798,1.50023043 0,3.34864364 L0,8.53333333 L41.8133333,8.53333333 L41.8133333,3.34864364 C41.8113535,1.50023043 40.2522626,0.00190259784 38.3288889,0 Z M3.96355556,6.53302613 L3.95629634,6.53302613 C2.66315827,6.53112353 1.61650507,5.52240799 1.61749429,4.27966805 C1.61848483,3.03692803 2.66678784,2.03011517 3.9599259,2.03011517 C5.25339392,2.03011517 6.30202696,3.03692803 6.30268809,4.27966805 C6.30400671,5.52240799 5.25702357,6.53112353 3.96355556,6.53302613 Z M13.4893585,4.31359846 C13.4840741,5.55189895 12.4384108,6.55332094 11.1502222,6.55458936 L11.1429629,6.55458936 C9.86632321,6.53270904 8.84375753,5.5306528 8.84606341,4.30345105 C8.84771721,3.07656631 9.87325248,2.07768117 11.1498923,2.05960604 L11.1578115,2.05960604 C12.4489697,2.06467975 13.4919932,3.07339528 13.4893585,4.31423263 L13.4893585,4.31359846 Z M20.6760202,4.33547878 C20.6720606,5.57377927 19.6263973,6.57583551 18.3375489,6.5761526 L18.3302896,6.5761526 C17.0444108,6.56632236 16.0083165,5.56077793 16.0099644,4.32469712 C16.0119462,3.08893348 17.052,2.08656015 18.3378788,2.08053511 L18.3448081,2.08053511 C19.6362963,2.08560881 20.6793199,3.09432426 20.6763565,4.33547878 L20.6760202,4.33547878 Z" id="Shape"></path>
                    <path d="M4.69734198,3.41333333 L4.69283322,3.41333333 C3.98294796,3.42249489 3.41433834,3.80106337 3.41333333,4.2650307 C3.41183348,4.72932511 3.97843907,5.10887521 4.68932634,5.12 L4.69283322,5.12 C5.40372049,5.11018409 5.97182904,4.7319427 5.97333333,4.26764828 C5.9743339,3.80368096 5.40772831,3.42413086 4.69734198,3.41333333 Z" id="Path"></path>
                </g>
            </g>
        </g>
    </g>
</svg>