<?xml version="1.0" encoding="UTF-8"?>
<svg width="49px" height="47px" viewBox="0 0 49 47" version="1.1" xmlns="http://www.w3.org/2000/svg" xmlns:xlink="http://www.w3.org/1999/xlink">
    <!-- Generator: Sketch 64 (93537) - https://sketch.com -->
    <title>icon</title>
    <desc>Created with Sketch.</desc>
    <g id="Symbols" stroke="none" stroke-width="1" fill="none" fill-rule="evenodd">
        <g id="categories/icon+bloc/icon_data-bases" transform="translate(-7.000000, -3.000000)" fill="#F7B500">
            <g id="icon">
                <path d="M10.3210799,38.1696781 C20.8598755,58.3254687 49.2945661,50.8909833 56.2972943,31.8883263 C57.5090051,28.6009212 58.0309305,24.6845894 56.0652256,21.7804459 C53.8588907,18.5207427 49.3902677,17.740825 45.4432643,17.8169293 C41.4959552,17.8930337 37.3636637,18.4994335 33.7383156,16.9435554 C27.6687545,14.3392632 25.107437,7.2719053 17.5045099,7.98028495 C11.4832582,8.5413265 8.50458386,13.0460975 7.38765742,18.4906054 C6.03285286,25.0934221 7.17852036,32.1595624 10.3210799,38.1696781 Z" id="Fill-165-Copy" fill-opacity="0.09" transform="translate(32.100958, 29.042127) scale(-1, 1) rotate(22.000000) translate(-32.100958, -29.042127) "></path>
                <g id="database" transform="translate(15.360000, 5.973333)" fill-rule="nonzero">
                    <path d="M36.6933333,18.7733333 C36.6750279,18.7880985 36.6512699,18.8012674 36.632575,18.8160324 C36.4518581,18.95251 36.2610148,19.0853959 36.0553713,19.2154885 C36.0226552,19.2358403 35.9868235,19.2553941 35.9541074,19.2761451 C35.7679378,19.3886791 35.5720313,19.4992179 35.3675563,19.6069633 L35.2008605,19.6951549 C34.9656168,19.8144729 34.7221942,19.9305985 34.4639715,20.0435315 L34.3116862,20.1069816 C34.0850111,20.2035533 33.8513254,20.2969327 33.6106291,20.3875186 L33.4135541,20.4617432 C33.1315734,20.5643008 32.841024,20.6632669 32.5415169,20.7594397 L32.3397681,20.8212935 C32.0788191,20.9031002 31.8131963,20.97932 31.5421208,21.0551408 C31.4704572,21.0746946 31.4003516,21.0950465 31.3282984,21.1142012 C31.0093174,21.2007966 30.6805995,21.2822042 30.3417552,21.3592221 C30.2619126,21.3779778 30.18207,21.3951373 30.1022273,21.4130949 C29.8089517,21.4801364 29.5106129,21.5443845 29.2076004,21.6058394 L28.9953359,21.6493365 C28.642081,21.7191715 28.2829839,21.7846169 27.9176552,21.8464707 C27.8292441,21.862034 27.7388856,21.8756018 27.6496956,21.8903669 C27.3307145,21.9434415 27.0027756,21.9941217 26.6732787,22.0416095 L26.4762038,22.0703416 C26.0984118,22.1246134 25.7163356,22.1732982 25.3307542,22.2163965 L25.0405944,22.2491191 C24.6873394,22.2886258 24.3321371,22.32494 23.9742085,22.3588598 L23.8289339,22.3728268 C23.4301103,22.4087419 23.0312867,22.4386712 22.632463,22.4666051 L22.3356821,22.4893513 C21.9559427,22.5140929 21.575814,22.5352429 21.1949063,22.5532004 L21.1002635,22.5579892 C20.6932609,22.5759468 20.2862583,22.5899138 19.8788661,22.599092 L19.5805273,22.6054769 C19.1700194,22.6138571 18.759122,22.6194439 18.3490035,22.6194439 C17.9392745,22.6194439 17.5283771,22.6138571 17.1174798,22.6054769 L16.8191409,22.599092 C16.4113593,22.5891156 16.0043567,22.5755476 15.598133,22.5579892 L15.5031008,22.5532004 C15.1218035,22.5352429 14.7416748,22.5140929 14.362325,22.4893513 L14.0639862,22.4689995 C13.6651626,22.4414645 13.2663389,22.4111363 12.8675153,22.3752211 L12.72263,22.3612541 C12.3647015,22.3281324 12.0091096,22.2914191 11.6558548,22.2515135 L11.365695,22.2187908 C10.980503,22.1732982 10.5988163,22.1246134 10.2202454,22.072736 L10.0200547,22.0471964 C9.69055772,22.0001076 9.36612406,21.9494273 9.04363775,21.8963528 C8.95444772,21.8815877 8.86408924,21.8676207 8.77567812,21.8520575 C8.41073893,21.7898046 8.0516418,21.7243592 7.6979974,21.6549234 L7.48573289,21.6118252 C7.18272034,21.5503704 6.88438161,21.4857233 6.59110604,21.4186817 C6.51126344,21.4007241 6.43142074,21.3835647 6.35157814,21.364809 C6.01507069,21.2865938 5.68635276,21.2047872 5.36503491,21.119788 C5.29337129,21.1010324 5.22287602,21.0806805 5.15121239,21.0607277 C4.87857914,20.9849068 4.61295631,20.9070907 4.3535651,20.8272793 L4.15181647,20.7650264 C3.85191973,20.6692528 3.56137053,20.5698876 3.2797792,20.467729 L3.08309373,20.3931054 C2.84200793,20.3029186 2.6083222,20.2091402 2.38164709,20.1129675 L2.22936186,20.0491184 C1.97269701,19.9361852 1.7277165,19.8204587 1.49247286,19.7011407 L1.32577704,19.6125501 C1.12130205,19.5048047 0.926953396,19.394665 0.73922581,19.2817319 C0.706899358,19.26138 0.670677995,19.2418262 0.637962093,19.2210752 C0.43231865,19.0913818 0.239138447,18.9580967 0.0607582898,18.8216193 C0.0424528827,18.8068542 0.0183054071,18.7936853 0,18.7789202 L0,27.5230553 C0,29.5702172 6.9794138,32.4266667 18.3458877,32.4266667 C29.7123616,32.4266667 36.6917754,29.5702172 36.6917754,27.5230553 L36.6933333,18.7733333 Z" id="Path"></path>
                    <path d="M36.6933333,29.8666667 C36.6750279,29.8814318 36.6512699,29.8946007 36.632575,29.9093658 C36.4518581,30.0458433 36.2610148,30.1787292 36.0553713,30.3088218 C36.0226552,30.3291737 35.9868235,30.3487274 35.9541074,30.3694785 C35.7679378,30.4820125 35.5720313,30.5925512 35.3675563,30.7002966 L35.2008605,30.7884882 C34.9656168,30.9078062 34.7221942,31.0239318 34.4639715,31.1368649 L34.3116862,31.2003149 C34.0850111,31.2968866 33.8513254,31.390266 33.6106291,31.480852 L33.4135541,31.5550765 C33.1315734,31.6576341 32.841024,31.7566002 32.5415169,31.852773 L32.3397681,31.9146269 C32.0788191,31.9964335 31.8131963,32.0726533 31.5421208,32.1484742 C31.4704572,32.1680279 31.4003516,32.1883798 31.3282984,32.2075346 C31.0093174,32.2941299 30.6805995,32.3755375 30.3417552,32.4525555 C30.2619126,32.4713112 30.18207,32.4884706 30.1022273,32.5064282 C29.8089517,32.5734697 29.5106129,32.6377179 29.2076004,32.6991727 L28.9953359,32.7426699 C28.642081,32.8117068 28.2829839,32.8775512 27.9176552,32.939804 C27.8292441,32.9553673 27.7388856,32.9689352 27.6496956,32.9837003 C27.3307145,33.0367748 27.0027756,33.0874551 26.6732787,33.1349428 L26.4762038,33.1636749 C26.0984118,33.2179467 25.7163356,33.2666316 25.3307542,33.3097298 L25.0405944,33.3424524 C24.6873394,33.3819591 24.3321371,33.4182733 23.9742085,33.4521931 L23.8289339,33.4661601 C23.4301103,33.5020752 23.0312867,33.5320045 22.632463,33.5599384 L22.3356821,33.5826847 C21.9559427,33.6074262 21.575814,33.6285762 21.1949063,33.6465338 L21.1002635,33.6513225 C20.6932609,33.6692801 20.2862583,33.6832471 19.8788661,33.6924253 L19.5805273,33.6988102 C19.1700194,33.7071904 18.759122,33.7127773 18.3490035,33.7127773 C17.9392745,33.7127773 17.5283771,33.7071904 17.1174798,33.6988102 L16.8191409,33.6924253 C16.4113593,33.6824489 16.0043567,33.668881 15.598133,33.6513225 L15.5031008,33.6465338 C15.1218035,33.6285762 14.7416748,33.6074262 14.362325,33.5826847 L14.0639862,33.5623328 C13.6651626,33.5347978 13.2663389,33.5044696 12.8675153,33.4685544 L12.72263,33.4545874 C12.3647015,33.4214658 12.0091096,33.3847524 11.6558548,33.3448468 L11.365695,33.3121241 C10.980503,33.2666316 10.5988163,33.2179467 10.2202454,33.1660693 L10.0200547,33.1405297 C9.69055772,33.0934409 9.36612406,33.0427607 9.04363775,32.9896861 C8.95444772,32.9749211 8.86408924,32.960954 8.77567812,32.9453908 C8.41073893,32.8831379 8.0516418,32.8176926 7.6979974,32.7482567 L7.48573289,32.7051586 C7.18272034,32.6441028 6.88438161,32.5798547 6.59110604,32.512015 C6.51126344,32.4940574 6.43142074,32.476898 6.35157814,32.4581423 C6.01507069,32.3799272 5.68635276,32.2981205 5.36503491,32.2131213 C5.29337129,32.1943657 5.22287602,32.1740138 5.15121239,32.154061 C4.87857914,32.0782401 4.61295631,32.000424 4.3535651,31.9206126 L4.15181647,31.8583598 C3.85191973,31.7629851 3.56137053,31.664019 3.2797792,31.5610624 L3.08309373,31.4864387 C2.84200793,31.3962519 2.6083222,31.3024735 2.38164709,31.2063008 L2.22936186,31.1424517 C1.97269701,31.0295186 1.7277165,30.913792 1.49247286,30.7944741 L1.32577704,30.7058834 C1.12130205,30.5981381 0.926953396,30.4879984 0.73922581,30.3750652 C0.706899358,30.3547133 0.670677995,30.3351595 0.637962093,30.3144086 C0.43231865,30.1847151 0.239138447,30.05143 0.0607582898,29.9149526 C0.0424528827,29.9001875 0.0183054071,29.8870186 0,29.8722535 L0,38.6163886 C0,40.6635506 6.9794138,43.52 18.3458877,43.52 C29.7123616,43.52 36.6917754,40.6635506 36.6917754,38.6163886 L36.6933333,29.8666667 Z" id="Path"></path>
                    <path d="M36.6933333,7.68 C36.6750279,7.69476518 36.6512699,7.70793404 36.632575,7.72269912 C36.4518581,7.85917663 36.2610148,7.99206256 36.0553713,8.12215516 C36.0226552,8.14250699 35.9868235,8.16206075 35.9541074,8.18281181 C35.7679378,8.29534581 35.5720313,8.40588455 35.3675563,8.50963935 L35.2008605,8.59783101 C34.9656168,8.71714895 34.7221942,8.83327453 34.4639715,8.94580864 L34.3116862,9.00965774 C34.0850111,9.10622946 33.8513254,9.19960873 33.6106291,9.29019468 L33.4135541,9.36441931 C33.1315734,9.46697692 32.841024,9.56594303 32.5415169,9.66211572 L32.3397681,9.72396957 C32.0788191,9.80577621 31.8131963,9.88159708 31.5421208,9.95781697 C31.4704572,9.97737074 31.4003516,9.99772256 31.3282984,10.0164783 C31.0093174,10.1030736 30.6805995,10.1848803 30.3417552,10.2618983 C30.2619126,10.280654 30.18207,10.2978134 30.1022273,10.315771 C29.8089517,10.3828126 29.5106129,10.4470607 29.2076004,10.5085154 L28.9953359,10.5520127 C28.642081,10.6218477 28.2829839,10.6872929 27.9176552,10.7487477 C27.8292441,10.764311 27.7388856,10.778278 27.6496956,10.7930431 C27.3307145,10.8461176 27.0027756,10.8967979 26.6732787,10.9442857 L26.4762038,10.9730178 C26.0984118,11.0272895 25.7163356,11.0759744 25.3307542,11.1190725 L25.0405944,11.1517953 C24.6873394,11.1909028 24.3321371,11.227616 23.9742085,11.2611368 L23.8289339,11.2751038 C23.4301103,11.3110189 23.0312867,11.3413472 22.632463,11.3692813 L22.3356821,11.396018 C21.9559427,11.4207596 21.575814,11.4419096 21.1949063,11.4598671 L21.1002635,11.4646559 C20.6932609,11.4826134 20.2862583,11.4965804 19.8788661,11.5057587 L19.5805273,11.5121436 C19.1700194,11.5205237 18.759122,11.5261106 18.3490035,11.5261106 C17.9392745,11.5261106 17.5283771,11.5205237 17.1174798,11.5121436 L16.8191409,11.5057587 C16.4113593,11.4957823 16.0043567,11.4822143 15.598133,11.4646559 L15.5031008,11.4598671 C15.1218035,11.4419096 14.7416748,11.4207596 14.362325,11.396018 L14.0639862,11.3756662 C13.6651626,11.3481312 13.2663389,11.3178029 12.8675153,11.2818878 L12.72263,11.2679207 C12.3647015,11.2347991 12.0091096,11.1980858 11.6558548,11.1581802 L11.365695,11.1254575 C10.980503,11.0799649 10.5988163,11.03128 10.2202454,10.9794027 L10.0200547,10.953863 C9.69055772,10.9067743 9.36612406,10.856094 9.04363775,10.8030195 C8.95444772,10.7882544 8.86408924,10.7742874 8.77567812,10.7587241 C8.41073893,10.6964712 8.0516418,10.6310259 7.6979974,10.5615901 L7.48573289,10.5184919 C7.18272034,10.4570371 6.88438161,10.3923899 6.59110604,10.3253484 C6.51126344,10.3073907 6.43142074,10.2902314 6.35157814,10.2714757 C6.01507069,10.1932605 5.68635276,10.1114539 5.36503491,10.0264547 C5.29337129,10.0076991 5.22287602,9.98734713 5.15121239,9.96739434 C4.87857914,9.89157347 4.61295631,9.81375735 4.3535651,9.73394597 L4.15181647,9.67169309 C3.85191973,9.57591943 3.56137053,9.47655428 3.2797792,9.37439571 L3.08309373,9.29977204 C2.84200793,9.20958523 2.6083222,9.11580683 2.38164709,9.01963414 L2.22936186,8.95578503 C1.97269701,8.8428519 1.7277165,8.72712534 1.49247286,8.6078074 L1.32577704,8.51921672 C1.12130205,8.4114714 0.926953396,8.30133169 0.73922581,8.19238918 C0.706899358,8.17203725 0.670677995,8.15248339 0.637962093,8.13213156 C0.43231865,8.00203896 0.239138447,7.868754 0.0607582898,7.73227648 C0.0424528827,7.7175114 0.0183054071,7.70474158 0,7.6899765 L0,16.429722 C0,18.4728934 6.9794138,21.3333333 18.3458877,21.3333333 C29.7123616,21.3333333 36.6917754,18.4728934 36.6917754,16.429722 L36.6933333,7.68 Z" id="Path"></path>
                    <path d="M36.6933333,5.12 C36.6933333,2.29250005 28.4793207,0 18.3466667,0 C8.21401266,0 0,2.29250005 0,5.12 C0,7.94749995 8.21401266,10.24 18.3466667,10.24 C28.4793207,10.24 36.6933333,7.94749995 36.6933333,5.12 Z" id="Path"></path>
                </g>
            </g>
        </g>
    </g>
</svg>