<?xml version="1.0" encoding="UTF-8"?>
<svg width="49px" height="47px" viewBox="0 0 49 47" version="1.1" xmlns="http://www.w3.org/2000/svg" xmlns:xlink="http://www.w3.org/1999/xlink">
    <!-- Generator: Sketch 64 (93537) - https://sketch.com -->
    <title>Categorie icon</title>
    <desc>Created with Sketch.</desc>
    <g id="Symbols" stroke="none" stroke-width="1" fill="none" fill-rule="evenodd">
        <g id="categories/icon+bloc/icon_virtualisation" transform="translate(-7.000000, -3.000000)" fill="#02C58C">
            <g id="Categorie-icon" transform="translate(0.000000, 0.000000)">
                <path d="M10.3210799,38.1696781 C20.8598755,58.3254687 49.2945661,50.8909833 56.2972943,31.8883263 C57.5090051,28.6009212 58.0309305,24.6845894 56.0652256,21.7804459 C53.8588907,18.5207427 49.3902677,17.740825 45.4432643,17.8169293 C41.4959552,17.8930337 37.3636637,18.4994335 33.7383156,16.9435554 C27.6687545,14.3392632 25.107437,7.2719053 17.5045099,7.98028495 C11.4832582,8.5413265 8.50458386,13.0460975 7.38765742,18.4906054 C6.03285286,25.0934221 7.17852036,32.1595624 10.3210799,38.1696781 Z" id="Fill-165-Copy" fill-opacity="0.09" transform="translate(32.100958, 29.042127) scale(-1, 1) rotate(22.000000) translate(-32.100958, -29.042127) "></path>
                <g id="layers" transform="translate(11.946667, 11.093333)" fill-rule="nonzero">
                    <path d="M42.1884167,10.3365715 L21.744,0.096005308 C21.4844167,-0.0320017693 21.1804167,-0.0320017693 20.9209167,0.096005308 L0.4765,10.3365715 C0.184916667,10.4833796 0,10.7734756 0,11.0926933 C0,11.4119109 0.184916667,11.702007 0.47825,11.8488151 L20.9226667,22.0893813 C21.0506667,22.1542649 21.1910833,22.1866667 21.3333333,22.1866667 C21.4755833,22.1866667 21.616,22.1542649 21.744,22.0893813 L42.1884167,11.8488151 C42.48175,11.702007 42.6666667,11.4119109 42.6666667,11.0926933 C42.6666667,10.7734756 42.48175,10.4833796 42.1884167,10.3365715 Z" id="Path"></path>
                    <path d="M42.1884167,18.0284875 L38.8053333,16.2133333 L22.5653333,24.9253706 C22.1830833,25.1300724 21.75825,25.2361506 21.3333333,25.2361506 C20.9084167,25.2361506 20.4835833,25.1301581 20.1066667,24.9290551 L3.86133333,16.2133333 L0.47825,18.0284875 C0.184916667,18.1857197 0,18.4964997 0,18.8382978 C0,19.1800958 0.184916667,19.4908759 0.47825,19.6481081 L20.9226667,30.6158069 C21.0506667,30.6852975 21.1910833,30.72 21.3333333,30.72 C21.4755833,30.72 21.616,30.6852975 21.744,30.6158069 L42.1884167,19.6481081 C42.48175,19.4908759 42.6666667,19.1801815 42.6666667,18.8382978 C42.6666667,18.4964997 42.48175,18.1857197 42.1884167,18.0284875 Z" id="Path"></path>
                    <path d="M42.1884167,25.7084982 L38.8053333,23.8933333 L22.5653333,32.6054221 C22.1830833,32.8101251 21.75825,32.9162039 21.3333333,32.9162039 C20.9084167,32.9162039 20.4835833,32.8102108 20.1066667,32.6091065 L3.86133333,23.8933333 L0.47825,25.7084982 C0.184916667,25.8656457 0,26.1764275 0,26.5182276 C0,26.8600277 0.184916667,27.1708095 0.47825,27.3280427 L20.9226667,38.2958062 C21.0506667,38.3652973 21.1910833,38.4 21.3333333,38.4 C21.4755833,38.4 21.616,38.3652973 21.744,38.2958062 L42.1884167,27.3280427 C42.48175,27.1708095 42.6666667,26.8601134 42.6666667,26.5182276 C42.6666667,26.1764275 42.48175,25.8656457 42.1884167,25.7084982 Z" id="Path"></path>
                </g>
            </g>
        </g>
    </g>
</svg>