<?xml version="1.0" encoding="UTF-8"?>
<svg width="49px" height="47px" viewBox="0 0 49 47" version="1.1" xmlns="http://www.w3.org/2000/svg" xmlns:xlink="http://www.w3.org/1999/xlink">
    <!-- Generator: Sketch 64 (93537) - https://sketch.com -->
    <title>icon</title>
    <desc>Created with Sketch.</desc>
    <g id="Symbols" stroke="none" stroke-width="1" fill="none" fill-rule="evenodd">
        <g id="categories/icon+bloc/icon_office" transform="translate(-7.000000, -3.000000)" fill="#FA6400">
            <g id="icon">
                <path d="M10.3210799,38.1696781 C20.8598755,58.3254687 49.2945661,50.8909833 56.2972943,31.8883263 C57.5090051,28.6009212 58.0309305,24.6845894 56.0652256,21.7804459 C53.8588907,18.5207427 49.3902677,17.740825 45.4432643,17.8169293 C41.4959552,17.8930337 37.3636637,18.4994335 33.7383156,16.9435554 C27.6687545,14.3392632 25.107437,7.2719053 17.5045099,7.98028495 C11.4832582,8.5413265 8.50458386,13.0460975 7.38765742,18.4906054 C6.03285286,25.0934221 7.17852036,32.1595624 10.3210799,38.1696781 Z" id="Fill-165-Copy" fill-opacity="0.09" transform="translate(32.100958, 29.042127) scale(-1, 1) rotate(22.000000) translate(-32.100958, -29.042127) "></path>
                <g id="office" transform="translate(12.000000, 10.000000)" fill-rule="nonzero">
                    <path d="M0,22 L42,22 L42,2.44444444 C42,1.09450947 41.0597169,0 39.9,0 L2.1,0 C0.940283138,0 0,1.09450947 0,2.44444444 L0,22 Z" id="Path"></path>
                    <path d="M0,24 C0,25.1044922 0.940283138,26 2.1,26 L18.9,26 L18.9,32 L10.5,32 C9.34028314,32 8.4,32.8955078 8.4,34 C8.4,35.1044922 9.34028314,36 10.5,36 L31.5,36 C32.6597169,36 33.6,35.1044922 33.6,34 C33.6,32.8955078 32.6597169,32 31.5,32 L23.1,32 L23.1,26 L39.9,26 C41.0597169,26 42,25.1044922 42,24 L0,24 Z" id="Path"></path>
                </g>
            </g>
        </g>
    </g>
</svg>