<?xml version="1.0" encoding="UTF-8"?>
<svg width="49px" height="47px" viewBox="0 0 49 47" version="1.1" xmlns="http://www.w3.org/2000/svg" xmlns:xlink="http://www.w3.org/1999/xlink">
    <!-- Generator: Sketch 64 (93537) - https://sketch.com -->
    <title>icon</title>
    <desc>Created with Sketch.</desc>
    <g id="Symbols" stroke="none" stroke-width="1" fill="none" fill-rule="evenodd">
        <g id="categories/icon+bloc/icon_infra" transform="translate(-7.000000, -3.000000)" fill="#3709D8">
            <g id="icon">
                <path d="M10.3210799,38.1696781 C20.8598755,58.3254687 49.2945661,50.8909833 56.2972943,31.8883263 C57.5090051,28.6009212 58.0309305,24.6845894 56.0652256,21.7804459 C53.8588907,18.5207427 49.3902677,17.740825 45.4432643,17.8169293 C41.4959552,17.8930337 37.3636637,18.4994335 33.7383156,16.9435554 C27.6687545,14.3392632 25.107437,7.2719053 17.5045099,7.98028495 C11.4832582,8.5413265 8.50458386,13.0460975 7.38765742,18.4906054 C6.03285286,25.0934221 7.17852036,32.1595624 10.3210799,38.1696781 Z" id="Fill-165-Copy" fill-opacity="0.09" transform="translate(32.100958, 29.042127) scale(-1, 1) rotate(22.000000) translate(-32.100958, -29.042127) "></path>
                <g id="infra" transform="translate(11.000000, 8.000000)" fill-rule="nonzero">
                    <path d="M13.0344828,40.5517241 L13.0344828,41.2758621 C13.0344828,41.6754108 12.7098935,42 12.3103448,42 L12.3103448,42 L0.724137931,42 C0.324589216,42 0,41.6754108 0,41.2758621 L0,41.2758621 L0,40.5517241 L13.0344828,40.5517241 Z M42,37.6551724 L42,42 L33.3103448,42 L33.3103448,37.6551724 L42,37.6551724 Z M40.5517241,39.1034483 L39.1034483,39.1034483 L39.1034483,40.5517241 L40.5517241,40.5517241 L40.5517241,39.1034483 Z M37.6551724,39.1034483 L34.7586207,39.1034483 L34.7586207,40.5517241 L37.6551724,40.5517241 L37.6551724,39.1034483 Z M39.1034483,10.137931 L39.1034483,11.5862069 L36.9310345,11.5862069 L36.9310345,21.7241379 L32.7216292,21.7241379 C32.9772696,22.1636416 33.1561827,22.6515861 33.2438712,23.1724138 L33.2438712,23.1724138 L38.3793103,23.1724138 L38.3793103,31.862069 L42,31.862069 L42,36.2068966 L33.3103448,36.2068966 L33.3103448,31.862069 L36.9310345,31.862069 L36.9310345,24.6206897 L33.2452856,24.6206897 C32.899835,26.6750067 31.1177768,28.2413793 28.9655172,28.2413793 L28.9655172,28.2413793 L13.0344828,28.2413793 C10.6347151,28.2413793 8.68965517,26.2963194 8.68965517,23.8965517 L8.68965517,23.8965517 L6.51724138,23.8965517 L6.51724138,31.862069 L10.862069,31.862069 C11.2616177,31.862069 11.5862069,32.1866582 11.5862069,32.5862069 L11.5862069,32.5862069 L11.5862069,39.1034483 L1.44827586,39.1034483 L1.44827586,32.5862069 C1.44827586,32.1866582 1.77286508,31.862069 2.17241379,31.862069 L2.17241379,31.862069 L5.06896552,31.862069 L5.06896552,22.4482759 L8.94741714,22.4482759 C9.13870559,21.9094154 9.4247542,21.4172279 9.79813782,21 L9.79813782,21 L3.62068966,21 L3.62068966,15.9310345 L0.724137931,15.9310345 C0.324589216,15.9310345 3.55271368e-15,15.6064453 3.55271368e-15,15.2068966 L3.55271368e-15,15.2068966 L3.55271368e-15,11.5862069 L8.68965517,11.5862069 L8.68965517,15.2068966 C8.68965517,15.6064453 8.36506596,15.9310345 7.96551724,15.9310345 L7.96551724,15.9310345 L5.06896552,15.9310345 L5.06896552,19.5517241 L12.5267376,19.5517241 C13.1511651,17.4588665 15.0838497,15.9310345 17.3793103,15.9310345 C18.3527243,15.9310345 19.259311,16.2107186 20.0311827,16.6862877 C20.8391197,14.9586813 22.5872339,13.7586207 24.6206897,13.7586207 C27.4203597,13.7586207 29.6896552,16.0279162 29.6896552,18.8275862 C29.6896552,19.0934806 29.6627829,19.3526569 29.6238888,19.6068831 C30.2500842,19.7023504 30.8235958,19.9434941 31.3320481,20.2758621 L31.3320481,20.2758621 L35.4827586,20.2758621 L35.4827586,11.5862069 L33.3103448,11.5862069 L33.3103448,10.137931 L39.1034483,10.137931 Z M36.2068966,33.3103448 L34.7586207,33.3103448 L34.7586207,34.7586207 L36.2068966,34.7586207 L36.2068966,33.3103448 Z M40.5517241,33.3103448 L37.6551724,33.3103448 L37.6551724,34.7586207 L40.5517241,34.7586207 L40.5517241,33.3103448 Z M5.79310345,13.0344828 L2.89655172,13.0344828 L2.89655172,14.4827586 L5.79310345,14.4827586 L5.79310345,13.0344828 Z M8.68965517,2.89655172 L8.68965517,10.137931 L0,10.137931 L0,2.89655172 L8.68965517,2.89655172 Z M42,7.24137931 L42,7.96551724 C42,8.36506596 41.6754108,8.68965517 41.2758621,8.68965517 L41.2758621,8.68965517 L31.137931,8.68965517 C30.7383823,8.68965517 30.4137931,8.36506596 30.4137931,7.96551724 L30.4137931,7.96551724 L30.4137931,7.24137931 L42,7.24137931 Z M41.2758621,-3.55271368e-15 C41.6754108,-3.55271368e-15 42,0.325296336 42,0.724137931 L42,0.724137931 L42,5.79310345 L30.4137931,5.79310345 L30.4137931,0.724137931 C30.4137931,0.324589216 30.7383823,-3.55271368e-15 31.137931,-3.55271368e-15 L31.137931,-3.55271368e-15 Z M7.96551724,-3.55271368e-15 C8.36506596,-3.55271368e-15 8.68965517,0.324589216 8.68965517,0.724137931 L8.68965517,0.724137931 L8.68965517,1.44827586 L0,1.44827586 L0,0.724137931 C0,0.324589216 0.324589216,-3.55271368e-15 0.724137931,-3.55271368e-15 L0.724137931,-3.55271368e-15 Z" id="Combined-Shape"></path>
                </g>
            </g>
        </g>
    </g>
</svg>