<?xml version="1.0" encoding="UTF-8"?>
<svg width="49px" height="53px" viewBox="0 0 49 53" version="1.1" xmlns="http://www.w3.org/2000/svg" xmlns:xlink="http://www.w3.org/1999/xlink">
    <!-- Generator: Sketch 64 (93537) - https://sketch.com -->
    <title>icon</title>
    <desc>Created with Sketch.</desc>
    <g id="Symbols" stroke="none" stroke-width="1" fill="none" fill-rule="evenodd">
        <g id="categories/icon+bloc/icon_security" transform="translate(-7.000000, -3.000000)" fill="#6236FF">
            <g id="icon">
                <path d="M10.3210799,38.1696781 C20.8598755,58.3254687 49.2945661,50.8909833 56.2972943,31.8883263 C57.5090051,28.6009212 58.0309305,24.6845894 56.0652256,21.7804459 C53.8588907,18.5207427 49.3902677,17.740825 45.4432643,17.8169293 C41.4959552,17.8930337 37.3636637,18.4994335 33.7383156,16.9435554 C27.6687545,14.3392632 25.107437,7.2719053 17.5045099,7.98028495 C11.4832582,8.5413265 8.50458386,13.0460975 7.38765742,18.4906054 C6.03285286,25.0934221 7.17852036,32.1595624 10.3210799,38.1696781 Z" id="Fill-165-Copy" fill-opacity="0.09" transform="translate(32.100958, 29.042127) scale(-1, 1) rotate(22.000000) translate(-32.100958, -29.042127) "></path>
                <g id="shield" transform="translate(15.360000, 5.120000)" fill-rule="nonzero">
                    <path d="M18.3465667,23.04 C17.1706034,23.04 16.2133333,23.93348 16.2133333,25.03108 C16.2133333,25.7583333 16.6542196,26.3684533 17.28,26.7160267 L17.28,28.0177467 C17.28,28.56804 17.7570851,29.0133333 18.3466667,29.0133333 C18.9362482,29.0133333 19.4133333,28.56804 19.4133333,28.0177467 L19.4133333,26.7160267 C20.0391138,26.3684533 20.48,25.75824 20.48,25.03108 C20.4798,23.93348 19.5225299,23.04 18.3465667,23.04 Z" id="Path"></path>
                    <path d="M18.3466667,14.5066667 C16.6997067,14.5066667 15.36,15.9420555 15.36,17.7066417 L15.36,18.7733333 L21.3333333,18.7733333 L21.3333333,17.7066417 C21.3333333,15.9420555 19.9935333,14.5066667 18.3466667,14.5066667 Z" id="Path"></path>
                    <path d="M36.0134556,6.35320833 L18.68608,0.0599579595 C18.4670667,-0.0199859865 18.2262667,-0.0199859865 18.0072533,0.0599579595 L0.679877778,6.35320833 C0.272811111,6.5016897 0,6.89816447 0,7.34272361 L0,19.9292243 C0,36.2175329 2.34713111,42.1707511 17.8878089,50.2339782 C18.0320978,50.3087105 18.1893822,50.3466667 18.3466667,50.3466667 C18.5039511,50.3466667 18.6612356,50.3088088 18.8055244,50.2339782 C34.3462022,42.1707511 36.6933333,36.2175329 36.6933333,19.9292243 L36.6933333,7.34272361 C36.6933333,6.89816447 36.4205222,6.50178803 36.0134556,6.35320833 Z M27.52,31.4668172 C27.52,32.623202 26.6052467,33.5645346 25.4815133,33.5645346 L11.21182,33.5645346 C10.0880867,33.5645346 9.17333333,32.623202 9.17333333,31.4668172 L9.17333333,20.9781322 C9.17333333,19.8217474 10.0880867,18.8804148 11.21182,18.8804148 L11.21182,17.831507 C11.21182,13.783472 14.4129311,10.4893488 18.3466667,10.4893488 C22.2804022,10.4893488 25.4815133,13.783472 25.4815133,17.831507 L25.4815133,18.8804148 C26.6052467,18.8804148 27.52,19.8217474 27.52,20.9781322 L27.52,31.4668172 L27.52,31.4668172 Z" id="Shape"></path>
                </g>
            </g>
        </g>
    </g>
</svg>