<?xml version="1.0" encoding="UTF-8"?>
<svg width="49px" height="47px" viewBox="0 0 49 47" version="1.1" xmlns="http://www.w3.org/2000/svg" xmlns:xlink="http://www.w3.org/1999/xlink">
    <!-- Generator: Sketch 64 (93537) - https://sketch.com -->
    <title>icon</title>
    <desc>Created with Sketch.</desc>
    <g id="Symbols" stroke="none" stroke-width="1" fill="none" fill-rule="evenodd">
        <g id="categories/icon+bloc/icon_network" transform="translate(-7.000000, -3.000000)" fill="#0091FF">
            <g id="icon">
                <path d="M10.3210799,38.1696781 C20.8598755,58.3254687 49.2945661,50.8909833 56.2972943,31.8883263 C57.5090051,28.6009212 58.0309305,24.6845894 56.0652256,21.7804459 C53.8588907,18.5207427 49.3902677,17.740825 45.4432643,17.8169293 C41.4959552,17.8930337 37.3636637,18.4994335 33.7383156,16.9435554 C27.6687545,14.3392632 25.107437,7.2719053 17.5045099,7.98028495 C11.4832582,8.5413265 8.50458386,13.0460975 7.38765742,18.4906054 C6.03285286,25.0934221 7.17852036,32.1595624 10.3210799,38.1696781 Z" id="Fill-165-Copy" fill-opacity="0.09" transform="translate(32.100958, 29.042127) scale(-1, 1) rotate(22.000000) translate(-32.100958, -29.042127) "></path>
                <g id="server" transform="translate(11.946667, 5.973333)" fill-rule="nonzero">
                    <path d="M13.6533333,6.82666667 L28.16,6.82666667 L28.16,0.758518519 C28.16,0.339629606 27.8352292,0 27.4346667,0 L14.3786667,0 C13.9781041,0 13.6533333,0.339629606 13.6533333,0.758518519 L13.6533333,6.82666667 Z" id="Path"></path>
                    <polygon id="Path" points="17.0666667 29.0133333 25.6 29.0133333 25.6 39.2533333 17.0666667 39.2533333"></polygon>
                    <path d="M24.8888889,26.4533333 L17.7777778,26.4533333 C17.3850694,26.4533333 17.0666667,26.8354166 17.0666667,27.3066667 L25.6,27.3066667 C25.6,26.8354166 25.2815972,26.4533333 24.8888889,26.4533333 Z" id="Path"></path>
                    <path d="M17.7777778,40.96 L24.8888889,40.96 C25.2815972,40.96 25.6,40.5779167 25.6,40.1066667 L17.0666667,40.1066667 C17.0666667,40.5779167 17.3850694,40.96 17.7777778,40.96 Z" id="Path"></path>
                    <polygon id="Path" points="0 29.0133333 8.53333333 29.0133333 8.53333333 39.2533333 0 39.2533333"></polygon>
                    <path d="M7.82222222,26.4533333 L0.711111111,26.4533333 C0.318402756,26.4533333 0,26.8354166 0,27.3066667 L8.53333333,27.3066667 C8.53333333,26.8354166 8.21493058,26.4533333 7.82222222,26.4533333 Z" id="Path"></path>
                    <path d="M0.711111111,40.96 L7.82222222,40.96 C8.21493058,40.96 8.53333333,40.5779167 8.53333333,40.1066667 L0,40.1066667 C0,40.5779167 0.318402756,40.96 0.711111111,40.96 Z" id="Path"></path>
                    <path d="M40.2488889,26.4533333 L33.1377778,26.4533333 C32.7450694,26.4533333 32.4266667,26.8354166 32.4266667,27.3066667 L40.96,27.3066667 C40.96,26.8354166 40.6415972,26.4533333 40.2488889,26.4533333 Z" id="Path"></path>
                    <polygon id="Path" points="32.4266667 29.0133333 40.96 29.0133333 40.96 39.2533333 32.4266667 39.2533333"></polygon>
                    <path d="M33.1377778,40.96 L40.2488889,40.96 C40.6415972,40.96 40.96,40.5779167 40.96,40.1066667 L32.4266667,40.1066667 C32.4266667,40.5779167 32.7450694,40.96 33.1377778,40.96 Z" id="Path"></path>
                    <path d="M4.99014493,23.8933333 C5.38968299,23.8933333 5.71362319,23.5658334 5.71362319,23.1619048 L5.71362319,20.967619 L20.1831884,20.967619 L20.1831884,23.1619048 C20.1831884,23.5658334 20.5071286,23.8933333 20.9066667,23.8933333 C21.3062047,23.8933333 21.6301449,23.5658334 21.6301449,23.1619048 L21.6301449,20.967619 L36.0997101,20.967619 L36.0997101,23.1619048 C36.0997101,23.5658334 36.4236503,23.8933333 36.8231884,23.8933333 C37.2227265,23.8933333 37.5466667,23.5658334 37.5466667,23.1619048 L37.5466667,20.2361905 C37.5466667,19.8322619 37.2227265,19.5047619 36.8231884,19.5047619 L21.6301449,19.5047619 L21.6301449,14.3847619 C21.6301449,13.9808333 21.3062047,13.6533333 20.9066667,13.6533333 C20.5071286,13.6533333 20.1831884,13.9808333 20.1831884,14.3847619 L20.1831884,19.5047619 L4.99014493,19.5047619 C4.59060686,19.5047619 4.26666667,19.8322619 4.26666667,20.2361905 L4.26666667,23.1619048 C4.26666667,23.5658334 4.59060686,23.8933333 4.99014493,23.8933333 Z" id="Path"></path>
                    <path d="M13.6533333,8.53333333 C13.6533333,8.92604169 13.9781041,9.24444444 14.3786667,9.24444444 L20.1813333,9.24444444 L20.1813333,11.3777778 L17.28,11.3777778 C16.8794375,11.3777778 16.5546667,11.6961805 16.5546667,12.0888889 C16.5546667,12.4815972 16.8794375,12.8 17.28,12.8 L24.5333333,12.8 C24.9338959,12.8 25.2586667,12.4815972 25.2586667,12.0888889 C25.2586667,11.6961805 24.9338959,11.3777778 24.5333333,11.3777778 L21.632,11.3777778 L21.632,9.24444444 L27.4346667,9.24444444 C27.8352292,9.24444444 28.16,8.92604169 28.16,8.53333333 L13.6533333,8.53333333 Z" id="Path"></path>
                </g>
            </g>
        </g>
    </g>
</svg>