<?xml version="1.0" encoding="UTF-8"?><svg id="Layer_2" xmlns="http://www.w3.org/2000/svg" viewBox="0 0 234.94 204.76"><defs><style>.cls-1{fill:#0067de;}.cls-2{fill:#043c58;}.cls-3{fill:#02c58c;}.cls-4{fill:#ecf6ff;}.cls-5{fill:#fff;}.cls-6{fill:#263238;}</style></defs><g id="Layer_1-2"><g><path class="cls-4" d="M216.33,39.96c-.75-1.28-1.54-2.53-2.37-3.75-11.01-16.3-29.94-27.46-48.57-32.5C157.23,1.5,148.81,.34,140.37,.06,85.01-1.82,62.96,41.81,44.66,53.07,26.36,64.33-1.79,83.57,.09,123.92c1.88,40.35,30.96,78.35,87.26,80.69,56.3,2.35,60.05-22.99,91.48-32.37,20.8-6.21,35.58-27.18,42.82-46.57,9.86-26.41,9.4-60.73-5.33-85.71Z"/><g><circle class="cls-5" cx="112.71" cy="109.26" r="70.88"/><path class="cls-2" d="M178.55,81.45c-3.6-8.51-8.75-16.15-15.31-22.71-6.56-6.56-14.2-11.71-22.71-15.31-8.81-3.73-18.17-5.62-27.81-5.62s-19,1.89-27.81,5.62c-8.51,3.6-16.15,8.75-22.71,15.31-6.56,6.56-11.71,14.2-15.31,22.71-3.73,8.81-5.61,18.17-5.61,27.81s1.89,19,5.61,27.81c3.6,8.51,8.75,16.15,15.31,22.71,1.78,1.78,3.63,3.45,5.56,5.01,3.8,3.09,7.89,5.76,12.24,8,1.6,.83,3.24,1.59,4.91,2.3,4.98,2.1,10.13,3.62,15.41,4.55,1.78,.31,3.57,.55,5.38,.73,2.32,.23,4.67,.34,7.03,.34,8.9,0,17.55-1.61,25.76-4.78,.69-.27,1.37-.54,2.05-.83,1.84-.78,3.63-1.63,5.38-2.55,6.37-3.34,12.18-7.62,17.32-12.77,6.56-6.56,11.71-14.2,15.31-22.71,3.73-8.81,5.61-18.17,5.61-27.81s-1.89-19-5.61-27.81Zm-32.55,89.77c-1.92,1.03-3.89,1.98-5.91,2.83-.4,.17-.81,.34-1.22,.5-8.31,3.33-17.1,5.02-26.15,5.02-2.48,0-4.94-.13-7.38-.38-1.52-.16-3.02-.36-4.52-.62-5.31-.9-10.48-2.42-15.48-4.53-1.8-.76-3.55-1.59-5.27-2.49-4.24-2.22-8.22-4.86-11.92-7.9-1.79-1.47-3.51-3.03-5.17-4.69-6.46-6.46-11.53-13.98-15.07-22.35-3.67-8.67-5.53-17.88-5.53-27.37s1.86-18.7,5.53-27.37c3.54-8.37,8.61-15.89,15.07-22.35,6.46-6.46,13.98-11.53,22.35-15.07,8.67-3.67,17.88-5.53,27.37-5.53s18.7,1.86,27.37,5.53c8.37,3.54,15.89,8.61,22.35,15.07,6.46,6.46,11.53,13.98,15.07,22.35,3.67,8.67,5.53,17.88,5.53,27.37s-1.86,18.7-5.53,27.37c-3.54,8.37-8.61,15.89-15.07,22.35-4.9,4.9-10.41,9-16.44,12.24Z"/></g><g id="eed0dzod088l67"><path class="cls-1" d="M21.13,37.42l.57,1.02c.57,1.14,1.48,2.05,2.62,2.62l1.02,.57-1.02,.57c-1.14,.57-2.05,1.48-2.62,2.62l-.57,1.02-.57-1.02c-.57-1.14-1.48-2.05-2.62-2.62l-1.02-.57,1.02-.57c1.14-.57,2.05-1.48,2.62-2.62l.57-1.02Z"/></g><g id="eed0dzod088l67-2"><path class="cls-1" d="M23.89,186.52l.32,.58c.32,.65,.84,1.16,1.48,1.48l.58,.32-.58,.32c-.65,.32-1.16,.84-1.48,1.48l-.32,.58-.32-.58c-.32-.65-.84-1.16-1.48-1.48l-.58-.32,.58-.32c.65-.32,1.16-.84,1.48-1.48l.32-.58Z"/></g><g id="eed0dzod088l67-3"><path class="cls-6" d="M190.73,126.06l.32,.58c.32,.65,.84,1.16,1.48,1.48l.58,.32-.58,.32c-.65,.32-1.16,.84-1.48,1.48l-.32,.58-.32-.58c-.32-.65-.84-1.16-1.48-1.48l-.58-.32,.58-.32c.65-.32,1.16-.84,1.48-1.48l.32-.58Z"/></g><g id="eed0dzod088l69"><path class="cls-1" d="M227.78,150.45l.91,1.71c1.02,1.93,2.62,3.52,4.55,4.55l1.71,.91-1.71,.91c-1.93,1.02-3.52,2.62-4.55,4.55l-.91,1.71-.91-1.71c-1.02-1.93-2.62-3.52-4.55-4.55l-1.71-.91,1.71-.91c1.93-1.02,3.52-2.62,4.55-4.55l.91-1.71Z"/></g><g id="eed0dzod088l74"><path class="cls-1" d="M197.11,52.68l.57,1.02c.57,1.14,1.48,2.05,2.62,2.62l1.02,.57-1.02,.57c-1.14,.57-2.05,1.48-2.62,2.62l-.57,1.02-.57-1.02c-.57-1.14-1.48-2.05-2.62-2.62l-1.02-.57,1.02-.57c1.14-.57,2.05-1.48,2.62-2.62l.57-1.02Z"/></g><g><path class="cls-1" d="M89.93,78.28c-4.6,12.56-9.72,25.84-20.46,33.88,1.39,.33,2.9,.12,4.14-.59-2.35,3.78-4.72,7.63-5.93,11.91-1.2,4.28-1.1,9.13,1.31,12.87,.28-.48,.57-.95,.85-1.43-2.68,9.13,1.49,19.79,9.66,24.72,3.53,2.13,8.24,3.16,11.7,.91,2.63-1.71,3.87-4.84,4.95-7.77,7.04-19.05,14.09-38.1,21.13-57.15,1.96-5.31,3.96-10.94,2.99-16.51-1.1-6.28-6.26-11.67-12.52-13.05-6.26-1.38-13.23,1.33-16.89,6.56l-.93,5.63Z"/><g><path class="cls-1" d="M104,71.2c-9.51,.44-16.99,8.27-17,17.79-.01,7.38,.1,15.4,.57,20.15,1.09,11.07,9.41,12.96,9.41,12.96,0,0-.27,6.88-.63,13.4-.35,6.22,4.75,11.69,11.39,12.22h0c6.58,.53,12.22-3.98,12.67-10.13l2.23-47.76c.49-10.49-8.15-19.13-18.63-18.64h0Z"/><path class="cls-1" d="M121.55,82.38c-.33-.83-.71-1.62-1.16-2.38-.78-1.34-1.73-2.58-2.85-3.7-1.75-1.75-3.79-3.1-6.08-4.01-2.38-.94-4.89-1.36-7.47-1.24-4.64,.22-8.96,2.18-12.16,5.54-.96,1.01-1.8,2.11-2.49,3.29h0s0,0,0,0c-1.04,1.75-1.77,3.67-2.16,5.67h0c-.22,1.12-.33,2.28-.34,3.44,0,3.89,.02,7.34,.09,10.34h0c.09,4.19,.25,7.48,.48,9.84,.25,2.55,.91,4.82,1.95,6.75,.83,1.55,1.92,2.89,3.22,3.98,1.94,1.62,3.75,2.2,4.24,2.33-.03,.79-.21,5.21-.46,10.08-.05,1.05-.11,2.13-.17,3.19-.01,.23-.02,.47-.02,.7,.02,2.8,1.12,5.49,3.13,7.65,.03,.04,.07,.07,.1,.11,1.09,1.14,2.38,2.07,3.8,2.73,.13,.06,.27,.12,.4,.18,1.03,.44,2.13,.75,3.26,.92,.28,.04,.57,.07,.85,.1,.36,.03,.71,.04,1.07,.04,.74,0,1.47-.06,2.18-.19,.58-.1,1.14-.24,1.7-.42,1.53-.49,2.91-1.26,4.1-2.28,2.23-1.91,3.58-4.55,3.79-7.43l.26-5.47,.24-5.14,.47-9.96,1.27-27.19c.12-2.58-.3-5.09-1.24-7.47Zm.94,7.46l-1.26,26.99-.42,9.02s0,0,0,0l-.29,6.21-.26,5.54c-.2,2.79-1.51,5.35-3.68,7.21-1.16,1-2.5,1.74-4,2.23-.49,.16-.99,.29-1.5,.38-1.08,.2-2.2,.26-3.32,.17-.28-.02-.55-.05-.82-.09-1.08-.16-2.13-.45-3.11-.86-.25-.11-.5-.22-.75-.34-1.32-.66-2.52-1.54-3.53-2.64,0,0,0,0,0,0-1.9-2.04-2.96-4.57-3.04-7.21,0-.3,0-.61,.01-.92,.06-1.11,.12-2.24,.18-3.34,.13-2.59,.24-5.04,.32-6.88,.08-1.79,.12-2.99,.13-3.16,0-.01,0-.02,0-.02,0-.07-.05-.14-.12-.15-.02,0-2.08-.49-4.25-2.31-1.27-1.07-2.33-2.38-3.14-3.89-1.02-1.9-1.66-4.13-1.91-6.63-.29-2.9-.47-7.24-.54-12.94h0c-.03-2.2-.04-4.6-.03-7.2,0-4.57,1.75-8.9,4.9-12.2,3.15-3.3,7.4-5.23,11.96-5.44,.28-.01,.56-.02,.84-.02,2.24,0,4.42,.42,6.5,1.24,2.25,.89,4.26,2.22,5.98,3.94,1.27,1.27,2.32,2.69,3.14,4.25h0c.3,.56,.56,1.14,.8,1.73,.93,2.34,1.34,4.81,1.22,7.34Z"/></g><g><path class="cls-1" d="M90.93,93.3c-.07,.74,.5,1.41,1.27,1.5,.77,.09,1.45-.44,1.52-1.18,.07-.74-.5-1.41-1.27-1.5-.77-.09-1.46,.44-1.53,1.18Z"/><path class="cls-1" d="M89.55,91.65c.16,.19,1.28-.53,2.79-.44,1.51,.07,2.58,.92,2.75,.74,.09-.08-.07-.42-.54-.8-.46-.38-1.25-.77-2.19-.82-.94-.05-1.76,.25-2.23,.58-.49,.33-.66,.65-.58,.74Z"/></g><g><path class="cls-1" d="M106.69,94.65c-.07,.74,.5,1.41,1.27,1.5,.77,.09,1.45-.44,1.52-1.18,.07-.74-.5-1.41-1.27-1.5-.77-.09-1.46,.44-1.53,1.18Z"/><path class="cls-1" d="M105.31,93.14c.16,.19,1.28-.53,2.79-.44,1.51,.07,2.58,.92,2.75,.74,.09-.08-.07-.42-.54-.8-.46-.38-1.25-.77-2.19-.82-.94-.05-1.76,.25-2.23,.58-.49,.33-.66,.65-.58,.74Z"/></g><path class="cls-1" d="M99.15,104.03c.01-.09-.92-.3-2.43-.59-.38-.06-.75-.16-.79-.43-.07-.28,.11-.69,.33-1.13,.42-.91,.86-1.87,1.32-2.87,1.84-4.1,3.19-7.47,3.02-7.54-.17-.07-1.79,3.19-3.62,7.28-.44,1.01-.87,1.97-1.27,2.9-.17,.43-.45,.91-.29,1.5,.09,.3,.36,.52,.6,.6,.24,.09,.46,.11,.65,.13,1.53,.17,2.48,.24,2.49,.15Z"/><path class="cls-1" d="M96.94,122.12s7.46,.67,15.03-3.29c0,0-4.09,7.88-15.11,6.45l.09-3.16Z"/><path class="cls-1" d="M110.31,88.93c-.18,.27-1.28-.19-2.66-.49-1.37-.32-2.56-.38-2.61-.7-.06-.3,1.25-.78,2.86-.41,1.62,.36,2.59,1.36,2.41,1.6Z"/><path class="cls-1" d="M95.32,86.2c-.08,.31-1.32,.27-2.81,.29-1.49,.01-2.73,.09-2.81-.22-.09-.29,1.15-.9,2.8-.91,1.65-.02,2.9,.55,2.82,.84Z"/><path class="cls-1" d="M138.26,138.46s-3.9-7.73-1.47-14.68c2.43-6.95,1.5-12.15-2.01-14.89-2.46-1.92-2.76-5.09-2.53-7.59,.39-4.2,.4-8.43-.27-12.59-.98-6-2.73-12.39-6.33-17.11-4.69-6.13-13.17-11.73-20.23-8.6-3.27,1.45-4.94,1.36-8.36,4.44,0,0-3.14,.2-4.8,.46-5.73,.89-9.43,7-10.1,11.48-1.55,10.36,4.16,13.31,4.75,20.36,0,0,1.03-14.68,2.32-18.45,1.5-4.37,5.63-6.46,5.63-6.46,4.23,.39,5.83,2.9,7.2,6.92,1.37,4.02,2.11,7.21,5.47,9.81,3.17,2.45,5.45,6.57,11.25,4.5,0,0,1.79,3.41,1.16,6.98-.63,3.57-4.59,4.56-3.58,10.62,1.01,6.06,4.7,11.01,4.59,13.28l17.3,11.52Z"/><g><path class="cls-1" d="M100.98,107.65c.5-.56,1.31-.83,2.09-.69,.54,.1,1.07,.4,1.37,.87,.3,.47,.32,1.1-.01,1.5-.37,.45-1.09,.51-1.68,.29-.59-.21-1.07-.65-1.53-1.08-.13-.12-.26-.24-.33-.4-.07-.16-.08-.35,.04-.47l.06-.04Z"/><path class="cls-1" d="M104.3,105.73c-.2-.03-.31,1.33-1.55,2.21-1.24,.88-2.68,.62-2.7,.81-.03,.08,.3,.29,.91,.35,.6,.07,1.49-.06,2.25-.6,.76-.54,1.12-1.31,1.21-1.86,.09-.57-.03-.91-.13-.91Z"/></g><path class="cls-1" d="M108.01,141.63c-.36,1.95-.72,3.9-1.08,5.85,0,.05-.02,.1-.03,.15,0,.05-.02,.1-.03,.15-1.62,8.76-3.23,17.53-4.85,26.29-.28,1.5-.61,3.09-1.2,4.5-.07,.18-.15,.36-.23,.53-.09,.18-.18,.36-.27,.53-5.28-.92-10.43-2.44-15.41-4.55-1.67-.71-3.31-1.47-4.91-2.3-4.35-2.24-8.44-4.91-12.24-8,.07-.19,.14-.38,.2-.57,.07-.19,.13-.37,.2-.56,1.33-3.66,2.75-7.3,4.5-10.76,.9-1.78,1.88-3.5,2.99-5.17,3.92-5.89,5.91-9.69,13.06-12.68,.88-.37,1.74-.55,2.59-.56,1.72-.03,3.37,.61,4.88,1.71,.05,.04,.1,.07,.15,.11,.05,.04,.1,.08,.16,.12,1.5,1.16,2.86,2.76,4.01,4.58,1.03,1.63,1.91,3.44,2.57,5.26,.02,.07,.05,.13,.07,.2,.03,.07,.05,.14,.07,.21,.05,.16,.11,.31,.16,.47l.24-.29,.1-.12,.1-.12,4.19-4.99Z"/><path class="cls-1" d="M140.42,169.15l-1.55,5.4-.2,.68-.2,.68c-8.21,3.18-16.86,4.78-25.76,4.78-2.36,0-4.7-.11-7.03-.34-1.81-.18-3.6-.42-5.38-.73-5.28-.92-10.43-2.44-15.41-4.55-1.67-.71-3.31-1.47-4.91-2.3l.04-.61,.04-.61,.8-11.17h0s.58-8.02,.58-8.02c-.16-6.04,1.18-12.45,5.94-16.2l3.91-1.68,5.07-2.19,.16-.07,.16-.07,.12-.05c.41,3.85,3.53,5.04,4.99,5.39,.45,.11,.75,.14,.75,.14,2.87,.52,5.76,.04,8.34-.84,5.09-1.72,8.94-4.96,8.94-4.96,.23,.06,.46,.13,.69,.19,.05,.01,.1,.03,.15,.04,.05,.01,.1,.03,.15,.04,.75,.22,1.5,.44,2.25,.69,5.04,1.65,9.79,4.01,13.21,8.54,1.69,2.24,3.06,5.01,3.99,8.49,1.24,4.68,.83,14.54,.16,19.3Z"/><path class="cls-1" d="M146.34,163.35c-.12,2.68-.2,5.29-.35,7.87-.01,.22-.03,.44-.04,.66-.01,.22-.03,.44-.04,.66-1.75,.92-3.55,1.77-5.38,2.55-.68,.29-1.36,.56-2.05,.83-8.21,3.18-16.86,4.78-25.76,4.78-2.36,0-4.7-.11-7.03-.34-.04-.08-.07-.16-.11-.23-.05-.12-.1-.24-.13-.36-.05-.18-.09-.38-.11-.58-.3-2.99,2.89-7.62,4.12-10.16,1.58-3.26,3.16-6.52,4.74-9.78,3.22-6.64,6.44-13.28,9.66-19.92l-.8-6.52-.04-.3c4.66,1.95,9.46,4,13.44,7.02,1.51,1.14,2.9,2.43,4.12,3.9,4.51,5.45,6.08,12.85,5.76,19.91Z"/><path class="cls-1" d="M116.46,113.34c1.99,3.49,1.92,8.07-.2,11.49-1.39,2.25-3.56,4-4.63,6.43-1.29,2.95-.71,6.34-.33,9.54,.38,3.2,.45,6.77-1.6,9.27-.86,1.04-2.01,1.8-2.88,2.83-.87,1.03-1.41,2.54-.77,3.73,.45,.82,1.36,1.28,2.23,1.61,6.54,2.47,14.53,.4,19.06-4.93,.17,1.14,.34,2.28,.52,3.42,4.29-3.71,7.26-8.91,8.26-14.49,1.01-5.58,.05-11.49-2.67-16.47l-17-12.42Z"/></g><g><path class="cls-3" d="M147.14,139.13c-.95,0-1.84-.37-2.51-1.04-.67-.67-1.04-1.56-1.04-2.5v-11.49s-11.49,0-11.49,0c-.91,0-1.81-.39-2.49-1.06-.67-.67-1.06-1.58-1.06-2.48,0-1.95,1.59-3.54,3.54-3.54h11.49s0-11.49,0-11.49c0-.95,.37-1.84,1.04-2.51,.67-.67,1.56-1.04,2.51-1.04s1.81,.39,2.49,1.06c.67,.67,1.06,1.58,1.06,2.49v11.49h11.49c.91,0,1.81,.39,2.49,1.06,.67,.67,1.06,1.58,1.06,2.49,0,.94-.37,1.83-1.04,2.5-.67,.67-1.56,1.04-2.51,1.04h-11.49s0,11.49,0,11.49c0,1.95-1.59,3.54-3.54,3.54h0Z"/><path class="cls-5" d="M147.15,102.65c1.54,0,2.88,1.34,2.88,2.88v12.15h12.15c1.54,0,2.88,1.34,2.88,2.88,0,.77-.3,1.49-.84,2.04-.54,.54-1.27,.84-2.04,.84h-12.15s0,12.15,0,12.15c0,1.59-1.29,2.88-2.88,2.88-.77,0-1.49-.3-2.04-.84-.54-.54-.84-1.27-.84-2.03v-12.15s-12.15,0-12.15,0c-1.54,0-2.88-1.34-2.88-2.88,0-1.59,1.29-2.88,2.88-2.88h12.15s0-12.15,0-12.15c0-.77,.3-1.49,.84-2.04,.54-.54,1.27-.84,2.04-.84h0m0-1.33h0c-1.12,0-2.18,.44-2.97,1.23-.79,.79-1.23,1.85-1.23,2.98v10.82h-10.82c-2.32,0-4.21,1.89-4.21,4.21,0,1.08,.46,2.16,1.25,2.95,.8,.8,1.87,1.25,2.96,1.25h10.82s0,10.83,0,10.83c0,1.12,.44,2.18,1.23,2.97,.79,.79,1.85,1.23,2.97,1.23,2.32,0,4.21-1.89,4.21-4.21v-10.82s10.82,0,10.82,0c1.12,0,2.18-.44,2.97-1.23,.79-.79,1.23-1.85,1.23-2.97,0-1.08-.45-2.16-1.25-2.95-.8-.8-1.87-1.25-2.95-1.25h-10.83v-10.82c0-1.08-.46-2.16-1.25-2.96-.8-.8-1.87-1.25-2.95-1.25h0Z"/></g></g></g></svg>