<?xml version="1.0" encoding="UTF-8"?><svg id="Layer_2" xmlns="http://www.w3.org/2000/svg" viewBox="0 0 261.54 213.95"><defs><style>.cls-1{fill:#f7cbdb;}.cls-2{fill:#0067de;}.cls-3{fill:#043c58;}.cls-4{fill:#ecf6ff;}.cls-5{fill:#fff;}</style></defs><g id="Layer_1-2"><g><path class="cls-4" d="M209.89,140.14c0,.06-.01,.13-.02,.19,0,.06-.01,.12-.02,.19-.59,6.74-2.05,13.32-4.28,19.31-.35,.94-.73,1.89-1.13,2.84-.04,.09-.08,.19-.12,.28-.04,.1-.08,.19-.12,.29-4.86,11.15-13.25,22.4-24.57,27.24-1.09,.47-2.21,.87-3.35,1.22-21.51,6.42-24.08,23.76-62.61,22.16-11.36-.47-21.09-3.07-29.21-7.19-18.45-9.38-28.55-26.69-30.3-45.09,0-.06-.01-.12-.02-.18,0-.06-.01-.12-.02-.18-.08-.86-.13-1.72-.18-2.59-.25-5.47,.3-10.37,1.44-14.78,.01-.05,.02-.09,.04-.14,.01-.05,.02-.09,.04-.14,2.61-9.76,8.14-17.07,14.25-22.69,.57-.52,1.15-1.03,1.72-1.53,.05-.04,.1-.08,.14-.12,.05-.04,.1-.08,.15-.13,2.88-2.44,5.83-4.54,8.62-6.36,1.42-.93,2.8-1.79,4.1-2.6,.25-.15,.5-.31,.75-.48,.04-.03,.08-.05,.12-.08,.04-.03,.08-.05,.12-.08,.1-.07,.2-.14,.29-.21,.71-.51,1.44-1.09,2.18-1.72,4.39-3.76,9.27-9.45,15.39-15.1,3.86-3.56,8.21-7.1,13.25-10.13,.04-.03,.09-.05,.13-.08,0,0,0,0,0,0,.04-.03,.09-.05,.13-.08,2.25-1.34,4.65-2.58,7.19-3.66,.83-.36,1.68-.69,2.54-1.02,1.08-.4,2.19-.78,3.33-1.13,1.87-.57,3.81-1.06,5.83-1.45,.15-.03,.3-.06,.46-.09,4.22-.78,8.78-1.15,13.74-.99,.03,0,.06,0,.08,0,.02,0,.03,0,.05,0,.04,0,.09,0,.13,0,4.87,.18,9.74,.78,14.49,1.88,.82,.19,1.64,.39,2.45,.62,12.75,3.45,25.71,11.08,33.24,22.24,.57,.84,1.11,1.69,1.62,2.57,6.68,11.33,9.07,25.47,7.96,38.98Z"/><g><path class="cls-3" d="M97.2,21.95c-3.01,15.45-6.49,31.81-17.47,43.15,1.67,.13,3.39-.4,4.69-1.45-2.02,4.83-4.07,9.73-4.67,14.93s.42,10.81,3.92,14.71c.24-.6,.48-1.21,.72-1.81-1.42,11.1,5.41,22.71,15.81,26.92,4.5,1.82,10.16,2.14,13.76-1.11,2.74-2.47,3.59-6.34,4.31-9.95,4.64-23.43,9.28-46.87,13.92-70.3,1.29-6.54,2.57-13.44,.4-19.74-2.44-7.09-9.44-12.39-16.97-12.83-7.52-.44-15.12,4-18.4,10.76l-.03,6.71Z"/><g><path class="cls-5" d="M82.81,98.71s-11.96,3.93-11.47,27.29c.37,17.63,6.01,29.42,8.75,34.15,.29,.5-.31,1.04-.78,.71l-25.52-18.31,.13-.16s-5.32-5-7.37-6.33c-2.05-1.33-6.64-3.15-8.36-3.32-1.72-.17-9.74,2.16-9.74,2.16,0,0-11.84-1.05-13.83,.33-1.99,1.38-1.83,2.82-1,3.87,.83,1.05,4.04,.72,7.58,.77,3.54,.06,4.48,.39,4.48,.39l-5.15,5.48,13.34,3.71,8.13-.3h0c1.87,7.88,45.96,37.72,52.37,27.39,8.32-13.41,14.1,9.21,17.27,1.25,2.57-6.46-16.15-23.79-16.15-23.79l-12.69-55.28Z"/><path class="cls-3" d="M25.82,140.23s-.04-.08-.09-.09c0,0-.03,0-.07-.02-.04,0-.09-.02-.16-.04-.04,0-.09-.02-.15-.03-.53-.1-1.68-.26-3.9-.3-.05,0-.09,0-.14,0-.03,0-.07,0-.1,0-.01,0-.03,0-.04,0-.78-.01-1.53,0-2.26,0-.19,0-.37,0-.56,0-.05,0-.09,0-.14,0-.05,0-.09,0-.14,0l.04,.13s.09,0,.14,0l.04,.13s.09,0,.14,0c.16,0,.31,0,.47,0,.74,0,1.5-.01,2.29,0,0,0,.02,0,.03,0,.05,0,.09,0,.14,0,.05,0,.09,0,.14,0,2.39,.05,3.5,.23,3.92,.32l-3.05,3.25-.11,.12-.11,.12-.26,.27,.11,.08,.11,.08,.12-.12,.11-.12,.11-.12,3.09-3.29,.1-.11,.1-.11,.03-.03s.04-.08,.03-.12Zm84.51,31.05c-1.24-2.25-3.15-4.91-5.69-7.9-4.13-4.87-8.61-9.08-9.02-9.46l-3.47-15.12-6.73-29.31-2.48-10.81s-.03-.07-.06-.09c0,0-.01,0-.02,0-.03-.01-.06-.01-.09,0-.03,0-.78,.26-1.89,.99-1.03,.68-2.57,1.91-4.09,3.94-1.71,2.28-3.05,5.08-3.99,8.33-.66,2.28-1.11,4.79-1.37,7.5-.2,2.1-.27,4.33-.22,6.66,.03,1.37,.09,2.74,.18,4.09,.43,6.22,1.54,12.21,3.31,17.86,1.78,5.69,3.85,9.81,5.28,12.26,.12,.21,.03,.4-.08,.5-.11,.1-.31,.17-.51,.03l-23.94-17.18-1.46-1.05,.04-.05c.05-.05,.04-.14,0-.18-.05-.05-5.36-5.02-7.39-6.34-2.05-1.33-6.69-3.17-8.42-3.34-1.69-.16-9.19,1.99-9.77,2.16-.28-.02-1.92-.17-4.01-.27-.05,0-.09,0-.14,0-.04,0-.09,0-.13,0-.94-.04-1.95-.08-2.96-.09h-.13s-.09,0-.13,0c-1.25-.01-2.48,.01-3.54,.1-.04,0-.09,0-.13,.01-.05,0-.09,0-.14,.01-1.18,.11-2.12,.3-2.58,.62-.37,.26-.68,.53-.93,.8-.05,.05-.09,.1-.13,.15-.05,.06-.09,.11-.13,.17-.23,.33-.38,.68-.43,1.04-.09,.6,.09,1.21,.51,1.79,.03,.04,.05,.07,.08,.11,.02,.02,.04,.04,.06,.06,.04,.05,.09,.09,.14,.13,.74,.6,2.38,.65,4.45,.64,.05,0,.09,0,.14,0,.05,0,.09,0,.14,0,.16,0,.31,0,.47,0,.74,0,1.5-.01,2.29,0,0,0,.02,0,.03,0,.05,0,.09,0,.14,0,.05,0,.09,0,.14,0,2.39,.05,3.5,.23,3.92,.32l-3.05,3.25-.11,.12-.11,.12-.26,.27-.09,.1-.09,.1-1.28,1.36s-.04,.08-.03,.13c.01,.05,.05,.08,.09,.09l6.46,1.8,.5,.14,.25,.07,.08,.02,5.32,1.48,.39,.11,.34,.09s.03,0,.04,0h.36s0-.01,0-.01l7.66-.29c.54,1.95,3.35,4.82,5.63,6.89,1.86,1.69,4.12,3.53,6.6,5.4,1.71,1.28,3.52,2.58,5.39,3.84,4.87,3.29,9.86,6.23,14.44,8.49,5.17,2.56,9.54,4.14,12.98,4.7,1.53,.25,2.86,.29,3.97,.12,1.66-.25,2.85-.95,3.57-2.11,1.69-2.72,3.36-4.12,5.1-4.27,2.52-.22,4.72,2.23,6.65,4.4,1.4,1.57,2.62,2.93,3.72,2.93,.07,0,.15,0,.22-.02,.63-.11,1.15-.7,1.59-1.81,.6-1.51,.12-3.72-1.45-6.56Zm-.19,8.11c-1,.18-2.25-1.22-3.69-2.83-.94-1.05-2.01-2.25-3.15-3.13-1.19-.92-2.31-1.37-3.39-1.37-.11,0-.23,0-.34,.01-1.83,.16-3.56,1.6-5.3,4.4-.67,1.08-1.8,1.75-3.37,1.98-1.09,.17-2.4,.13-3.91-.12-3.42-.56-7.76-2.13-12.9-4.67-4.56-2.26-9.54-5.19-14.4-8.47-1.94-1.31-3.82-2.65-5.58-3.98-2.4-1.81-4.58-3.59-6.39-5.24-3.29-2.99-5.22-5.36-5.58-6.86-.01-.06-.07-.1-.14-.1l-7.75,.29h-.34s-.03,.01-.03,.01l-1.17-.33-4.78-1.33-.88-.24-.5-.14-.5-.14-5.28-1.47,1.15-1.22,.09-.1,.09-.1,.12-.12,.11-.12,.11-.12,3.09-3.29,.1-.11,.1-.11,.03-.03s.04-.08,.03-.12c-.01-.04-.04-.08-.09-.09,0,0-.03,0-.07-.02-.04,0-.09-.02-.16-.04-.04,0-.09-.02-.15-.03-.53-.1-1.68-.26-3.9-.3-.05,0-.09,0-.14,0-.03,0-.07,0-.1,0-.01,0-.03,0-.04,0-.78-.01-1.53,0-2.26,0-.19,0-.37,0-.56,0-.05,0-.09,0-.14,0-.05,0-.09,0-.14,0-2.09,0-3.81-.05-4.35-.73,0-.01-.02-.02-.03-.04-.05-.06-.09-.13-.14-.2-.05-.08-.1-.16-.14-.24-.18-.34-.3-.76-.23-1.22,.03-.19,.09-.38,.18-.57,.04-.08,.08-.16,.13-.23,.04-.06,.08-.13,.13-.19,.25-.34,.61-.67,1.07-.99,.42-.29,1.32-.47,2.45-.58,.04,0,.09,0,.14-.01,.04,0,.09,0,.13-.01,1.05-.08,2.28-.1,3.52-.09,.04,0,.09,0,.13,0,.04,0,.09,0,.13,0,1.02,.02,2.04,.05,2.98,.1,.05,0,.09,0,.13,0,.05,0,.09,0,.14,0,2.22,.11,3.94,.26,3.98,.26,.02,0,.03,0,.05,0,.08-.02,8.02-2.32,9.69-2.15,1.69,.16,6.27,1.98,8.3,3.3,1.87,1.21,6.54,5.55,7.26,6.22l-.05,.06s-.04,.07-.03,.1c0,.04,.02,.07,.05,.09l1.67,1.2,23.85,17.12c.3,.22,.64,.13,.84-.05,.2-.18,.32-.51,.13-.83-1.42-2.44-3.48-6.54-5.25-12.21-1.75-5.59-2.85-11.52-3.29-17.66-.1-1.39-.16-2.8-.19-4.21-.05-2.43,.03-4.73,.25-6.9,.26-2.58,.7-4.97,1.33-7.16,.92-3.22,2.25-5.99,3.94-8.24,2.52-3.36,5.11-4.56,5.73-4.81l.05,.22,2.42,10.55,6.66,29.02,3.52,15.35s.02,.05,.04,.07c.05,.04,4.72,4.39,9.03,9.46,2.53,2.98,4.43,5.62,5.66,7.85,1.52,2.76,2,4.89,1.43,6.33-.4,1.02-.86,1.56-1.39,1.65Z"/></g><g><path class="cls-5" d="M232.86,139.62s8-.54,8.83-1.01c1.94-1.12,1.12-2.76,.46-2.96-1.32-.4-3.58-.75-6.88-.33-2.19,.27-6.6,.24-6.6,.24,0,0-6.98-1.3-9.63-1.09-2.65,.21-11.81,8.05-11.81,8.05l-21.06,19.06s5.54-33.44,4.79-43.85c-1.32-18.27-14.76-21.73-14.76-21.73l-2.27,15.19-14.26,39.77s3.89,34.85,6.77,35.43c2.88,.58-8.58,5.31-3.03,.89,3.46-2.75,12.67-3.44,15.6-4.31,2.14-.64,4.15-1.65,5.94-2.99l35.27-30.99,28.84-1.02c.45-.02,.88-.18,1.22-.46l2.6-2.15-20.03-5.72Z"/><path class="cls-3" d="M241.14,138.63c-1.6,.34-6.35,.72-8.29,.85-.07,0-.12,.05-.12,.12,0,.06,.03,.12,.1,.14l6.2,1.77,.14,.04s.06-.08,.09-.11l-.14-.04s.06-.08,.09-.11l-5.56-1.59c1.65-.12,5.52-.43,7.29-.75,.04-.05,.08-.1,.11-.16,.07-.01,.13-.03,.2-.04,.04-.05,.08-.11,.12-.16-.06,.02-.13,.03-.2,.05Zm11.88,6.68s-.01-.04-.03-.06c-.02-.02-.04-.04-.07-.04l-.07-.02-7.32-2.09-.15-.04-.15-.04-1.41-.4-.13-.04-.13-.04-4.11-1.17-.14-.04-.14-.04-5.56-1.59c1.65-.12,5.52-.43,7.29-.75,.07-.01,.13-.02,.19-.04,.07-.01,.14-.03,.2-.04,.21-.05,.37-.1,.45-.15,1.22-.7,1.32-1.56,1.27-2.01,0-.08-.02-.16-.04-.23-.01-.06-.03-.11-.05-.16-.02-.05-.04-.1-.06-.15-.17-.35-.44-.58-.68-.66-1.28-.39-3.52-.77-6.93-.34-2.1,.26-6.31,.24-6.57,.23-.42-.08-7.04-1.29-9.65-1.09-1.76,.14-6.2,3.47-9.13,5.82-1.51,1.21-2.62,2.16-2.75,2.27l-20.78,18.8c.28-1.74,1.49-9.24,2.61-17.65,.88-6.62,1.44-11.68,1.76-15.55,.46-5.48,.48-8.57,.35-10.31-.3-4.18-1.27-7.94-2.88-11.15-1.29-2.58-2.98-4.81-5.04-6.65-1.35-1.21-2.69-2.08-3.82-2.7-.13-.07-.25-.14-.37-.2-1.61-.84-2.73-1.14-2.75-1.14-.04,0-.08,0-.11,.02-.03,.02-.05,.05-.06,.09l-2.27,15.18-14.25,39.76s0,.04,0,.06c0,.09,.99,8.82,2.3,17.5,.77,5.1,1.51,9.2,2.19,12.16,.41,1.76,.8,3.15,1.16,4.11,.18,.47,.35,.83,.51,1.11-.93,.38-1.75,.81-2.38,1.31-1.59,1.27-1.67,1.68-1.56,1.91,.07,.13,.22,.2,.47,.2,.17,0,.38-.03,.64-.09,.74-.18,1.77-.6,2.62-1.06,.71-.39,1.56-.95,1.55-1.4,0-.23-.2-.39-.58-.47-.09-.02-.21-.09-.35-.27,2.68-1.02,6.24-1.63,9.05-2.11,1.34-.23,2.53-.43,3.39-.64,.18-.04,.35-.09,.5-.13,2.16-.64,4.17-1.65,5.98-3.01,0,0,0,0,0,0l19.15-16.83,16.08-14.13,28.79-1.02c.39-.01,.78-.14,1.1-.35,.07-.04,.14-.09,.2-.15l2.6-2.15s.06-.08,.05-.13Zm-32.88,3.56l-15.69,13.79-19.57,17.2c-1.78,1.34-3.76,2.34-5.89,2.97-.14,.04-.29,.08-.46,.12-.85,.21-2.05,.41-3.4,.64-2.84,.49-6.45,1.1-9.16,2.15-.4-.65-.95-2.09-1.66-5.18-.68-2.96-1.42-7.04-2.19-12.14-1.28-8.42-2.23-16.88-2.3-17.46l14.24-39.74s0-.02,0-.03l2.24-15.04c.35,.11,1.32,.43,2.59,1.1,.16,.09,.33,.18,.5,.27,1.08,.61,2.33,1.44,3.59,2.57,2.03,1.82,3.71,4.03,4.98,6.58,1.59,3.18,2.55,6.9,2.85,11.05,.16,2.23,.04,5.74-.36,10.41-.36,4.22-.95,9.39-1.75,15.39-1.28,9.55-2.66,17.93-2.68,18.02,0,.06,.02,.11,.07,.14,.05,.03,.11,.02,.15-.02l21.06-19.05s1.07-.92,2.54-2.1c2.9-2.33,7.47-5.79,9.19-5.92,2.6-.21,9.53,1.07,9.59,1.09,0,0,.02,0,.02,0,.04,0,4.44,.04,6.61-.24,3.37-.42,5.57-.05,6.82,.33,.21,.06,.46,.32,.58,.67,.02,.05,.04,.11,.05,.17,0,.04,.02,.09,.02,.13,0,.02,0,.04,0,.06,.03,.4-.11,1.09-1.14,1.68-.02,.01-.04,.02-.07,.03-.05,.02-.13,.04-.21,.07-.06,.02-.13,.03-.2,.05-1.6,.34-6.35,.72-8.29,.85-.07,0-.12,.05-.12,.12,0,.06,.03,.12,.1,.14l6.2,1.77,.14,.04,.14,.04,4.15,1.19,.13,.04,.13,.04,1.32,.38,.15,.04,.15,.04,7.29,2.08-2.41,1.98c-.07,.06-.15,.12-.24,.17-.27,.16-.59,.26-.91,.27l-28.84,1.02s-.06,.01-.08,.03Zm-53.36,37.84c0,.18-.36,.59-1.41,1.16-.84,.46-1.84,.86-2.56,1.04-.6,.15-.79,.07-.81,.03,0-.01-.12-.3,1.49-1.58,.62-.49,1.43-.92,2.36-1.29,.19,.25,.37,.39,.56,.43,.11,.02,.36,.09,.36,.21Z"/></g><g><path class="cls-5" d="M13.33,130l.32,11.8,.57,1.47,5.82,7.1,14.2-.94-11.31-4.41-4.02-3.06-1.56-5.04s.48-7.78-4.02-6.92Z"/><path class="cls-3" d="M22.36,144.59l-.32-.25,.09-.1-.11-.08-.11-.08-2.89-2.2-.58-1.87s-.09,0-.14,0l-.04-.13s-.09,0-.14,0l.04,.13,.62,1.99s.02,.05,.05,.07l2.91,2.21,.11,.08,.11,.08,.47,.35-.05-.21Zm12.01,4.83c0-.05-.03-.1-.09-.12h-.03s-5.69-2.23-5.69-2.23l-5.58-2.17-.34-.26-.17-.13-.17-.13-.18-.14-.11-.08-.11-.08-2.89-2.2-.58-1.87-.04-.13-.04-.13-.87-2.84c0-.16,.05-1.07-.06-2.17,0-.04,0-.09-.01-.13,0-.04,0-.09-.01-.13,0-.03,0-.07-.01-.1-.23-1.86-.77-3.17-1.6-3.91-.66-.58-1.49-.78-2.48-.59-.06,.01-.11,.07-.11,.14l.17,6.23v.24s.01,.27,.01,.27l.05,1.79v.28s.01,.25,.01,.25l.07,2.74s0,.03,0,.04l.57,1.47s.01,.03,.02,.04l.04,.05,.11,.13,.22,.27,1.12,1.37,.13,.16,3.98,4.85,.21,.25h0s.06,.06,.1,.06h0l14.2-.94h0c.06,0,.11-.05,.12-.11,0,0,0-.02,0-.03Zm-10.1,.53h-.21s-3.97,.28-3.97,.28l-.05-.06-3.96-4.83-.09-.11-.75-.91-.29-.35-.29-.35-.33-.41-.56-1.42-.07-2.4v-.18s-.01-.21-.01-.21l-.07-2.65v-.21s-.01-.2-.01-.2l-.16-5.8c.85-.14,1.57,.05,2.14,.55,.96,.85,1.36,2.46,1.52,3.83,0,.04,0,.09,.01,.13,0,.04,0,.09,.01,.13,.12,1.19,.06,2.14,.06,2.16,0,.02,0,.03,0,.05l.86,2.78,.04,.13,.04,.13,.62,1.99s.02,.05,.05,.07l2.91,2.21,.11,.08,.11,.08,.47,.35,.44,.33s.02,.01,.03,.02l.27,.11,.78,.3,4.43,1.73,4.37,1.7,.9,.35h-.11s-.4,.03-.4,.03l-8.84,.58Z"/></g><g><path class="cls-5" d="M14.33,143.54h-3.46s-4.51-7.42-8.64-4.9l.95,1.47s-1.86-.84-3.04,.72l11.38,9.99h.52l12.13-.78-9.84-6.49Z"/><path class="cls-3" d="M24.28,149.95s-.02-.02-.03-.03l-9.57-6.31-.27-.18s-.04-.02-.07-.02c0,0,0,0,0,0h-3.38c-.16-.26-.81-1.26-1.75-2.32-.3-.34-.61-.66-.91-.95-1.14-1.1-2.26-1.78-3.32-2.04-.91-.22-1.77-.12-2.57,.29-.03,.01-.05,.03-.08,.04-.05,.03-.1,.06-.15,.09-.03,.02-.05,.05-.06,.08s0,.07,.02,.1l.74,1.14c-.2-.05-.46-.1-.75-.11-.59-.02-1.43,.15-2.07,1-.04,.06-.03,.13,.02,.18l11.38,9.99s.06,.03,.09,.03h.52s0,0,0,0l7.88-.51,4.25-.27c.05,0,.09-.03,.11-.08,0,0,0-.01,0-.02,.01-.04,0-.08-.02-.11Zm-12.71,.73L.32,140.81c1.1-1.33,2.73-.62,2.8-.58,.05,.02,.12,.01,.16-.03,.03-.03,.04-.07,.03-.1,0-.02,0-.04-.02-.06l-.4-.62-.47-.73s.02,0,.03-.02c.04-.02,.07-.04,.11-.06,.73-.37,1.52-.45,2.35-.25,1.61,.39,3.11,1.79,4.09,2.9,1.07,1.21,1.76,2.34,1.77,2.35,.02,.04,.07,.06,.11,.06h3.42l.2,.13,.38,.25,.38,.25,8.52,5.62-3.71,.24h-.16s-.16,.02-.16,.02l-7.68,.49h-.47Z"/></g><path class="cls-3" d="M16.34,145.31s-.37,.02-.98,.04c-.6,.03-1.5,.07-2.4,.48l-.12,.05-.08-.11c-.35-.5-.78-1.03-1.23-1.58-.92-1.14-1.75-2.17-2.46-3.03-.62-.78-1.01-1.26-.98-1.29,.03-.03,.48,.4,1.15,1.14,.67,.74,1.57,1.79,2.53,2.98,.45,.56,.87,1.09,1.23,1.62l-.19-.05c1-.42,1.91-.41,2.53-.39,.62,.03,.98,.11,.98,.14Z"/><path class="cls-3" d="M40.99,138.94c.03,.11-1.92,.5-4,1.69-2.09,1.18-3.43,2.65-3.5,2.57-.03-.03,.27-.42,.84-.98,.57-.56,1.44-1.27,2.5-1.87,1.07-.61,2.12-.99,2.89-1.19,.77-.21,1.27-.26,1.27-.22Z"/><path class="cls-3" d="M29.64,135.88c.06,.07-.72,.91-1.63,2-.91,1.09-1.61,2.01-1.68,1.95-.07-.05,.51-1.06,1.44-2.16,.92-1.1,1.82-1.86,1.88-1.79Z"/><path class="cls-3" d="M12,150.32s-.24,.03-.6-.17c-.36-.19-.82-.56-1.34-1.07-1.03-1.01-2.28-2.55-3.57-4.31-1.29-1.77-2.38-3.41-3.14-4.62-.38-.6-.68-1.1-.88-1.44s-.3-.54-.28-.56c.02-.01,.15,.16,.39,.49,.27,.39,.59,.85,.97,1.39,.81,1.17,1.93,2.8,3.21,4.56,1.28,1.76,2.5,3.31,3.47,4.34,.48,.52,.91,.9,1.24,1.12,.32,.22,.54,.25,.54,.28Z"/><g><path class="cls-5" d="M32.76,143.2l-6.27-.42-1.87-5.13-.35-3.45c-.17-1.69-1.58-3.02-3.28-2.99-.02,0-.04,0-.06,0l.35,8.46,1.29,5.26,5.09,3,5.09-4.72Z"/><path class="cls-3" d="M27.67,148.05s-.05,0-.07-.02l-5.09-3s-.05-.05-.06-.08l-1.29-5.26s0-.02,0-.03l-.35-8.46s.01-.07,.04-.1c.02-.03,.06-.04,.09-.04h.06s.03,0,.05,0c1.72,0,3.19,1.36,3.36,3.11l.34,3.44,1.84,5.04,6.18,.42c.07,0,.13,.07,.12,.14,0,.07-.07,.13-.14,.12l-6.27-.42c-.05,0-.1-.04-.12-.09l-1.87-5.13s0-.02,0-.03l-.35-3.45c-.16-1.61-1.5-2.86-3.06-2.87l.35,8.31,1.27,5.19,5.04,2.97c.06,.04,.08,.12,.05,.18-.02,.04-.07,.07-.12,.07Z"/></g><g><path class="cls-5" d="M122.7,8.52l1.87-1.78,20.23,8.15c2.93,.16,5.24,2.54,5.33,5.47l-.18,65.93c.03,4.47-.87,8.34-3.57,11.91l-2.84,3.75c-6.48,8.55-19.81,7.85-24.94-1.58-.36-.66-.61-1.24-.72-1.7-.11-.59-.27-.97-.3-1.47-.6-5.3-.64-9.9-.64-9.9-.36-5.82-.48-8.21-.48-8.16,0,0-12.39-1.42-15.74-17.33-1.67-7.91-1.35-18.8-.88-29.51,.65-14.82,10.93-23.78,22.85-23.77Z"/><path class="cls-3" d="M149.94,43.14l-.04,16.42s.09,0,.13,0l.04-16.44s-.09,.01-.13,.02Zm-1.31-26.65c-1.01-1.03-2.36-1.65-3.8-1.73l-20.21-8.15s-.1,0-.14,.03l-.45,.43-1.38,1.32c-5.97,0-11.54,2.26-15.69,6.36-2.13,2.11-3.84,4.64-5.06,7.52-1.29,3.03-2.02,6.4-2.18,10.02-.15,3.4-.28,6.85-.34,10.22-.12,7.14,.1,13.95,1.23,19.32,.77,3.65,2.08,6.83,3.89,9.47,1.45,2.11,3.23,3.88,5.29,5.25,3.13,2.09,5.97,2.62,6.56,2.71,0,.07,0,.17,.02,.29,.03,.48,.08,1.4,.16,2.81,.07,1.24,.17,2.88,.3,4.95,0,.05,0,.53,.03,1.34,.05,1.75,.2,5.02,.61,8.57,.02,.31,.09,.58,.16,.87,.05,.19,.1,.39,.14,.61,0,0,0,0,0,0,.11,.46,.35,1.05,.73,1.74,.27,.49,.55,.96,.86,1.4,1.13,1.62,2.55,2.97,4.23,4.01,2,1.24,4.34,1.99,6.74,2.17,.39,.03,.78,.04,1.17,.04,2.29,0,4.51-.51,6.53-1.46,2.18-1.03,4.12-2.58,5.63-4.58l2.81-3.71,.03-.04c1.32-1.74,2.24-3.59,2.83-5.66,.33-1.17,.55-2.42,.67-3.78,.01-.12,.02-.23,.03-.35,.05-.7,.07-1.44,.07-2.2l.03-12.43,.04-14.03v-.27s.04-16.46,.04-16.46v-.13s0-.14,0-.14l.06-22.48c-.04-1.45-.63-2.82-1.64-3.86Zm1.31,26.38v.14s0,.13,0,.13l-.04,16.42v.13s0,.13,0,.13l-.04,14.02-.03,12.44c0,.74-.02,1.45-.07,2.13,0,.12-.02,.24-.03,.35-.11,1.35-.33,2.6-.66,3.77-.58,2.03-1.49,3.85-2.78,5.57v.02s-2.84,3.74-2.84,3.74c-1.47,1.94-3.36,3.46-5.48,4.47-2.33,1.11-4.94,1.61-7.61,1.41-2.36-.18-4.65-.91-6.62-2.13-1.73-1.07-3.17-2.46-4.3-4.15-.25-.37-.48-.76-.7-1.16-.36-.67-.6-1.23-.7-1.67-.04-.24-.09-.44-.14-.63-.07-.29-.14-.54-.16-.83,0,0,0,0,0,0-.39-3.43-.54-6.59-.6-8.38-.03-.94-.04-1.49-.04-1.51,0,0,0,0,0,0-.11-1.72-.19-3.13-.26-4.27-.02-.29-.03-.56-.05-.82-.08-1.33-.12-2.2-.15-2.67,0-.13-.01-.23-.02-.3,0-.03,0-.05,0-.08h0s0,0,0,0c0,0,0,0,0,0-.01-.08-.04-.13-.13-.13h0c-.23-.03-3.21-.46-6.54-2.68-2.03-1.35-3.78-3.09-5.22-5.18-1.8-2.61-3.09-5.76-3.85-9.37-.75-3.56-1.44-8.15-1.18-20.49,.05-2.62,.15-5.6,.3-8.98,.16-3.58,.88-6.92,2.16-9.92,1.21-2.85,2.89-5.35,5-7.44,4.1-4.05,9.61-6.28,15.53-6.28h.03s.07-.01,.09-.04l1.48-1.41,.33-.32,20.15,8.12s.03,0,.04,0c1.38,.08,2.68,.66,3.64,1.66,.97,.99,1.52,2.3,1.56,3.68l-.06,22.52Z"/></g><path class="cls-3" d="M127.91,42.86c.02,1.09,.95,1.97,2.09,1.98,1.13,0,2.04-.87,2.03-1.96-.02-1.09-.95-1.97-2.08-1.98-1.14,0-2.05,.87-2.03,1.96Z"/><path class="cls-3" d="M106.78,43.41c.02,1.09,.95,1.97,2.09,1.98,1.13,0,2.04-.87,2.03-1.96-.02-1.09-.95-1.97-2.08-1.98-1.14,0-2.05,.87-2.03,1.96Z"/><path class="cls-3" d="M101.97,36.52c.27,.26,1.77-.98,3.98-1.08,2.21-.14,3.89,.92,4.12,.64,.11-.13-.17-.6-.9-1.08-.72-.48-1.93-.92-3.31-.84-1.38,.08-2.51,.64-3.15,1.2-.65,.56-.86,1.05-.73,1.17Z"/><path class="cls-3" d="M123.92,35.77c.29,.23,1.66-1.15,3.85-1.48,2.18-.36,3.96,.52,4.16,.21,.1-.14-.23-.58-1.01-.98-.77-.4-2.02-.71-3.38-.5-1.36,.22-2.43,.9-3.01,1.51-.59,.62-.75,1.14-.61,1.24Z"/><path class="cls-3" d="M116.69,52.86c0-.13-1.38-.29-3.63-.47-.57-.03-1.11-.12-1.22-.5-.15-.4,.05-1.02,.29-1.69,.46-1.39,.95-2.86,1.46-4.39,2.01-6.24,3.44-11.36,3.19-11.44-.25-.08-2.09,4.92-4.1,11.16-.48,1.54-.95,3.01-1.38,4.41-.18,.65-.51,1.4-.18,2.23,.17,.41,.6,.7,.97,.78,.37,.09,.69,.08,.97,.08,2.25,0,3.64-.05,3.64-.18Z"/><path class="cls-3" d="M116.48,79.12s10.82,.15,21.19-6.8c0,0-4.84,11.37-20.97,10.68l-.22-3.87Z"/><path class="cls-1" d="M123.61,57.36c-.62-.75-1.62-1.17-2.58-1.22-1.39-.08-2.37,.1-3.11,1.19-.35,.6-.32,1.53-.16,1.79,.16,.26,.04,.26,.29,.44,.9,.65,1.93,1.07,3.01,1.31,1.07,.25,2.31,0,2.86-.88,.49-.77,.32-1.88-.31-2.63Z"/><path class="cls-3" d="M123.38,25.6c.28,.57,2.19-.02,4.53-.06,2.34-.09,4.3,.37,4.52-.21,.1-.28-.31-.79-1.15-1.25-.83-.46-2.09-.83-3.5-.79-1.4,.04-2.62,.48-3.4,.99-.78,.51-1.13,1.04-1.01,1.31Z"/><path class="cls-3" d="M102.29,32.52c.41,.48,1.91-.11,3.74-.23,1.83-.18,3.4,.17,3.73-.38,.14-.26-.13-.75-.83-1.2-.69-.44-1.83-.77-3.09-.67-1.26,.1-2.33,.61-2.94,1.16-.62,.55-.81,1.08-.62,1.31Z"/><g><path class="cls-5" d="M149.29,43.13c3.12-.65,8.81-.68,9.27,7.31,.62,10.93-10.48,9.3-10.52,8.99l1.25-16.3Z"/><path class="cls-3" d="M150.08,59.83c-.51,0-.92-.03-1.16-.06-.99-.11-1-.25-1.01-.33,0-.07,.04-.14,.12-.15,.05,0,.1,.02,.12,.05,.15,.07,1.06,.26,2.39,.21,1.15-.05,2.85-.28,4.38-1.16,1.15-.66,2.03-1.59,2.62-2.75,.7-1.39,1-3.13,.89-5.19-.17-2.91-1.05-5-2.63-6.21-1.09-.84-3.1-1.68-6.48-.98-.07,.01-.14-.03-.16-.1-.02-.07,.03-.14,.1-.16,3.48-.72,5.57,.16,6.7,1.03,1.64,1.26,2.56,3.42,2.73,6.41,.18,3.22-.62,5.67-2.4,7.29-1.62,1.47-3.71,1.94-5.18,2.06-.38,.03-.73,.05-1.04,.05Z"/></g><path class="cls-3" d="M151.15,55.1s.2,.12,.53,.25c.32,.13,.87,.19,1.43-.05,1.13-.49,2-2.38,1.94-4.35-.03-1-.29-1.93-.69-2.7-.38-.78-.93-1.31-1.52-1.38-.59-.1-.98,.27-1.09,.59-.13,.31-.05,.53-.1,.55-.03,.03-.24-.17-.18-.63,.03-.22,.15-.49,.39-.71,.25-.23,.63-.36,1.04-.34,.85,.01,1.65,.74,2.08,1.58,.48,.84,.8,1.89,.83,3.01,.05,2.21-.96,4.33-2.51,4.88-.76,.24-1.41,.05-1.76-.19-.35-.25-.42-.49-.39-.51Z"/><path class="cls-3" d="M125.02,57.8c-.03,.28-1.9,.24-4.12,.67-2.22,.41-3.95,1.12-4.08,.87-.14-.22,1.5-1.39,3.9-1.83,2.39-.46,4.35,.04,4.3,.29Z"/><g><path class="cls-5" d="M229.09,142.51h9.35s3.28-4.36,4.47-6.17c1.04-1.59,2.29-2.05,3.38-1.68,.28,.1,.51,.31,.66,.57h0c.22,.39,.23,.86,.02,1.25l-4.11,7.68,2.16-.73s4.32-4.23,5.16-5.21c.84-.98,3.91-5.1,6.63-2.09l-3.77,4.19,3.77-2.65s3-2.58,4.61,.49l-11.21,9.45-21.11-5.1Z"/><path class="cls-3" d="M250.2,147.74s-.08-.02-.1-.05c-.05-.06-.04-.14,.02-.19l11.12-9.38c-.41-.74-.94-1.18-1.58-1.3-1.34-.26-2.75,.93-2.77,.95,0,0,0,0-.01,0l-3.77,2.65c-.06,.04-.13,.03-.18-.02s-.04-.13,0-.18l3.69-4.1c-.61-.64-1.29-.96-2.01-.94-1.77,.04-3.44,2.04-4.15,2.9-.07,.09-.13,.16-.19,.22-.83,.97-4.99,5.04-5.16,5.21-.01,.01-.03,.02-.05,.03l-2.16,.73c-.05,.02-.11,0-.14-.04-.04-.04-.04-.1-.02-.15l4.11-7.68c.19-.35,.18-.77-.02-1.12-.14-.25-.35-.43-.59-.51-1.12-.39-2.3,.21-3.22,1.63-1.18,1.8-4.44,6.13-4.47,6.18-.03,.03-.06,.05-.11,.05h-9.35c-.07,0-.13-.06-.13-.13s.06-.13,.13-.13h9.29c.38-.5,3.32-4.43,4.42-6.11,1-1.53,2.29-2.16,3.54-1.73,.3,.1,.56,.33,.74,.63,.24,.43,.25,.94,.02,1.38l-3.95,7.38,1.81-.61c.33-.33,4.33-4.25,5.13-5.18,.05-.06,.12-.14,.19-.22,.74-.88,2.46-2.96,4.35-3,.84-.02,1.61,.36,2.3,1.12,.05,.05,.05,.13,0,.18l-2.98,3.31,2.79-1.97c.11-.1,1.54-1.28,2.98-1,.75,.14,1.37,.66,1.82,1.53,.03,.06,.02,.12-.03,.16l-11.21,9.45s-.06,.03-.09,.03Z"/></g><path class="cls-2" d="M176.79,163.76c-.09,1.68-.08,6.81,.15,8.47l1.58,10.72,.02,.13,.02,.13,1.07,7.26c-1.09,.47-2.21,.87-3.35,1.22-21.51,6.42-24.08,23.76-62.61,22.16-11.36-.47-21.09-3.07-29.21-7.19,2.63-8.52,6.92-16.5,6.92-16.5,0,0,0-6-.44-11.44,0-.04,0-.09-.01-.13,0-.04,0-.09-.01-.13-.23-2.74-.57-5.31-1.09-6.88-.87-2.66-3.8-20.92-6.18-36.35-1.84-11.92-3.36-22.14-3.36-22.14l.06-.36,2.42-13.63,.06-.34,.03-.18,.07-.37,1.52-.43,18.83-5.32,13.58-3.84,.13-.04s0,0,0,0c.05,.07,.09,.14,.14,.2,1.11,1.59,2.48,2.93,4.02,4.01,5.21,3.67,12.44,4.47,18.59,2.45,.83-.27,1.64-.59,2.42-.97,2.71-1.29,5.09-3.2,6.83-5.7l.75,.18,.13,.03,.13,.03,7.05,1.74,3.55,.87,18.58,4.58s.01,.08,.04,.22c.03,.2,.08,.52,.15,.95,0,.05,.02,.11,.02,.16,0,.06,.02,.11,.03,.17,.74,4.96,2.86,21.07,.67,31.16-.28,1.28-.53,2.67-.76,4.12-1.64,10.28-2.15,24.07-2.52,30.95Z"/><path class="cls-2" d="M82.92,98.22s-12.79,4.12-14.04,30.83l24.21,10.15-9.79-39.7-.38-1.27Z"/><path class="cls-2" d="M179.24,96.12s12.79,4.12,14.04,30.83l-24.21,10.15,9.79-39.7,.38-1.27Z"/><path class="cls-3" d="M159.85,110.77s-3.6-11.43,1.27-20.36c4.87-8.94,4.75-16.25,.59-20.77-2.92-3.16-2.64-7.56-1.76-10.92,1.48-5.64,2.43-11.42,2.43-17.25,0-8.41-.96-17.52-4.83-24.76-5.03-9.42-15.36-18.95-25.69-16.25-4.79,1.25-7.05,.76-12.4,4.19,0,0-4.33-.43-6.65-.44-8.01-.06-14.44,7.45-16.35,13.41-4.42,13.79,2.71,19.1,1.94,28.84,0,0,4.68-19.81,7.29-24.66,3.02-5.63,9.13-7.56,9.13-7.56,5.69,1.48,7.31,5.26,8.29,11.05,.98,5.79,1.27,10.31,5.28,14.6,3.78,4.05,5.97,10.18,14.35,8.65,0,0,1.68,5.05,.03,9.78-1.65,4.74-7.28,5.2-7.25,13.7,.03,8.5,3.95,16.07,3.3,19.15l21.03,19.59Z"/><path class="cls-3" d="M135.39,84.78c3.26,2.58,4.96,7,4.25,11.1-.46,2.7-1.87,5.22-1.96,7.96-.1,3.34,1.77,6.36,3.38,9.29,1.61,2.92,3.05,6.33,2.05,9.51-.42,1.33-1.24,2.51-1.67,3.83-.43,1.33-.37,2.99,.71,3.87,.75,.62,1.8,.7,2.77,.68,7.24-.16,14.11-5.24,16.39-12.11,.61,1.03,1.21,2.05,1.82,3.08,2.68-5.22,3.52-11.36,2.33-17.11-1.19-5.75-4.4-11.05-8.93-14.77l-21.12-5.34Z"/></g><g><path class="cls-3" d="M168.89,38.24c-.1-.06,2.15-3.81,5.02-8.36,2.87-4.56,5.28-8.2,5.38-8.13,.1,.06-2.15,3.8-5.02,8.36-2.87,4.55-5.28,8.2-5.38,8.13Z"/><path class="cls-3" d="M198.82,36.93c.03,.11-5.9,2.06-13.26,4.36-7.36,2.3-13.35,4.06-13.39,3.95-.03-.11,5.9-2.06,13.26-4.36,7.36-2.29,13.35-4.06,13.39-3.95Z"/><path class="cls-3" d="M192.31,61.29c-.05,.11-3.92-1.65-8.64-3.91-4.72-2.27-8.51-4.19-8.46-4.29,.05-.11,3.92,1.65,8.64,3.91,4.72,2.26,8.51,4.19,8.46,4.29Z"/></g></g></g></svg>