<?xml version="1.0" encoding="UTF-8"?>
<svg width="16px" height="20px" viewBox="0 0 16 20" version="1.1" xmlns="http://www.w3.org/2000/svg" xmlns:xlink="http://www.w3.org/1999/xlink">
    <title>Combined Shape</title>
    <g id="Page-1" stroke="none" stroke-width="1" fill="none" fill-rule="evenodd">
        <g id="Parametres-d'organisme-:-administrateur-profil" transform="translate(-1576.000000, -37.000000)" fill="#9CAEC1" fill-rule="nonzero">
            <g id="topbar" transform="translate(319.000000, 0.000000)">
                <g id="main" transform="translate(24.000000, 16.000000)">
                    <g id="notifications" transform="translate(1233.000000, 13.000000)">
                        <path d="M10.4615385,25.2307692 C10.0206648,26.3181598 9.08728926,27.0769231 7.99998168,27.0769231 C6.9126741,27.0769231 5.97933519,26.3181598 5.53846154,25.2307692 L5.53846154,25.2307692 Z M7.99973161,8 C8.88217863,8 9.5998067,8.7097127 9.5998067,9.58242641 L9.5998067,9.58242641 L9.5998067,11.0026307 C11.9103096,11.6854547 13.5999757,13.8035035 13.5999757,16.3076738 L13.5999757,16.3076738 L13.5999757,18.2912421 C13.5999757,19.5096886 13.9352013,20.7068095 14.5696136,21.7519817 L14.5696136,21.7519817 L15.9432549,24.0164162 C16.0168702,24.1382497 16.0192703,24.2917562 15.948055,24.4152216 C15.8768398,24.5386499 15.7440471,24.6153846 15.6000414,24.6153846 L15.6000414,24.6153846 L0.399459289,24.6153846 C0.255453655,24.6153846 0.123448491,24.5386128 0.0522332053,24.4144057 C-0.0189820806,24.2901985 -0.0173695176,24.1382868 0.057033393,24.0156373 L0.057033393,24.0156373 L1.43067463,21.7512028 C2.06429942,20.7059936 2.39952503,19.5096886 2.39952503,18.2912421 L2.39952503,18.2912421 L2.39952503,16.3076738 C2.39952503,13.8035035 4.08919113,11.6854547 6.39965651,11.0026307 L6.39965651,11.0026307 L6.39965651,9.58242641 C6.39965651,8.7097127 7.11728459,8 7.99973161,8 Z" id="Combined-Shape"></path>
                    </g>
                </g>
            </g>
        </g>
    </g>
</svg>