<?xml version="1.0" encoding="UTF-8"?>
<svg width="54px" height="50px" viewBox="0 0 54 50" version="1.1" xmlns="http://www.w3.org/2000/svg" xmlns:xlink="http://www.w3.org/1999/xlink">
    <title>icon</title>
    <g id="onboarding-nouvelle-proposition-2" stroke="none" stroke-width="1" fill="none" fill-rule="evenodd">
        <g id="Onboarding-:-step-1---informations-de-profil" transform="translate(-408.000000, -534.000000)">
            <g id="Group" transform="translate(343.000000, 139.000000)">
                <g id="steps" transform="translate(48.000000, 347.000000)">
                    <g id="step-1" transform="translate(1.000000, 37.000000)">
                        <g id="icon" transform="translate(16.000000, 11.000000)">
                            <path d="M8.56392761,32.7958266 C17.5241271,49.9094793 41.8032301,43.5429114 47.8113281,27.3799559 C48.8509328,24.5838105 49.3029172,21.2542681 47.6302197,18.7892002 C45.7527605,16.0223293 41.9404701,15.3669323 38.5719037,15.4382328 C35.2030764,15.5095339 31.6754931,16.0318671 28.5841683,14.7155327 C23.4086685,12.5122009 21.2346436,6.50962706 14.7449908,7.12445505 C9.60541334,7.6114025 7.05581182,11.4452039 6.09348196,16.0746097 C4.92620136,21.6889132 5.89208888,27.6928249 8.56392761,32.7958266 Z" id="Fill-165-Copy" fill-opacity="0.189958479" fill="#F9C129" transform="translate(27.172847, 25.014615) scale(-1, 1) rotate(22.000000) translate(-27.172847, -25.014615) "></path>
                            <path d="M20.5217391,17.9482759 L20.5217391,19.6551724 C20.5217391,20.5978653 21.2809085,21.362069 22.2173913,21.362069 L22.7826087,21.362069 L22.7826087,21.5839655 C22.6942818,23.417033 23.4641088,25.1858995 24.8626087,26.3632759 C25.3489029,26.7938599 25.6218741,27.4183631 25.6086957,28.0701724 L25.6086957,29.2081034 C25.6088212,30.1534461 25.0283818,31.0004379 24.1504348,31.3360345 L18.6395652,33.4525862 C17.0562533,34.0612063 16.0075451,35.5870568 16,37.2931034 L16,39 L42,39 L42,37.2931034 C41.9994627,35.5808125 40.9495196,34.0463758 39.3604348,33.4355172 L33.8495652,31.3189655 C32.9716182,30.9833689 32.3911788,30.1363771 32.3913043,29.1910345 L32.3913043,28.0531034 C32.3781259,27.4012942 32.6510971,26.7767909 33.1373913,26.3462069 C34.5310148,25.1725257 35.3003311,23.4111456 35.2173913,21.5839655 C35.2173913,21.51 35.2173913,21.4303448 35.2173913,21.362069 L35.7826087,21.362069 C36.7190915,21.362069 37.4782609,20.5978653 37.4782609,19.6551724 L37.4782609,17.9482759 C37.4782609,17.005583 36.7190915,16.2413793 35.7826087,16.2413793 C37.4334391,14.4860965 37.4334391,11.7380414 35.7826087,9.98275862 C35.7826087,7.70689655 34.0869565,6.56896552 31.2608696,6.56896552 C27.8695652,6.56896552 27.3043478,7.13793103 25.0434783,7.70689655 C22.7826087,8.27586207 21.6521739,6 21.6521739,6 C20.5217391,7.70689655 20.5217391,8.27586207 20.5217391,11.1206897 C20.5842814,12.9565272 21.1731789,14.7349351 22.2173913,16.2413793 C21.2809085,16.2413793 20.5217391,17.005583 20.5217391,17.9482759 Z" id="Shape" fill="#F7B500" fill-rule="nonzero"></path>
                        </g>
                    </g>
                </g>
            </g>
        </g>
    </g>
</svg>