<?xml version="1.0" encoding="UTF-8"?><svg id="Layer_2" xmlns="http://www.w3.org/2000/svg" viewBox="0 0 290.61 212.15"><defs><style>.cls-1{fill:#f7cbdb;}.cls-2{fill:#053142;}.cls-3{fill:#0067de;}.cls-4{fill:#043c58;}.cls-5{fill:#ecf6ff;}.cls-6{fill:#fff;}.cls-7{fill:#e8505b;}.cls-8{fill:#455a64;}.cls-9{fill:#4d9eef;}.cls-10{opacity:.2;}.cls-11{isolation:isolate;}.cls-12{opacity:0;}</style></defs><g id="Layer_1-2"><g><g id="eed0dzod088l2"><g id="eed0dzod088l3"><path class="cls-5" d="M173,25.45c-8.37-3.79-18.56-3.4-26.53,1.13-8.52,4.77-14.28,13.59-23.04,17.92-9.89,4.92-21.61,3.2-32.69,3.4-11.08,.2-23.83,3.79-27.91,14.08-3.45,8.66,.74,18.85-2.17,27.71-2.46,7.33-9.21,12.21-14.42,17.97-8.66,9.5-13.49,22.79-11.42,35.49,2.07,12.7,11.57,24.27,24.02,27.37,13.54,3.4,28.5-2.9,41.55,2.02,8.81,3.3,15.01,11.12,22.99,16.15,13.39,8.42,31.85,7.93,44.75-1.28,6.6-4.68,11.67-11.32,18.51-15.6,17.72-11.12,42.43-4.13,60.45-14.87,14.32-8.52,20.67-28.21,14.08-43.47-4.87-11.17-15.36-19.3-19.69-30.67-3.64-9.55-2.56-20.18-3.69-30.37-1.13-10.19-5.86-21.36-15.6-24.42-6.45-2.02-13.34,.05-20.03,.94-10.49,1.43-19.54,1.03-29.14-3.5"/></g><g id="eed0dzod088l4"><path class="cls-5" d="M94.66,22.16c-3.15,1.02-6.5,3.54-7.21,6.78-.73,3.22,.15,6.72,2.05,9.4,1.45,2.07,3.8,3.78,6.31,3.5,1.86-.22,3.45-1.49,5.25-2.01,1.66-.48,3.46-.34,5.12-.82,3.48-1.02,5.66-4.95,5.2-8.55-.48-3.59-3.24-6.65-6.61-8.03-3.37-1.36-7.21-1.19-10.67-.11"/></g><g id="eed0dzod088l5"><path class="cls-5" d="M209.58,169.72c-6.84-1.38-14.32,1.53-18.66,6.99-4.38,5.46-5.56,13.19-3.35,19.84,2.22,6.65,7.73,12.01,14.32,14.37,4.82,1.72,10.44,1.82,14.77-.89,3.74-2.31,6.05-6.4,7.29-10.63,1.92-6.45,1.62-13.68-1.62-19.59-3.25-5.91-8.42-10.53-15.16-10.39"/></g></g><g id="eed0dzod088l6"><g id="eed0dzod088l7"><g id="eed0dzod088l8"><path class="cls-7" d="M49.99,108.07c-1.04,2.58,29.52,36.26,112.53,42.17,71.33,5.11,110.59-22.2,110.59-22.2L49.99,108.07Z"/></g><g id="eed0dzod088l9"><path class="cls-4" d="M49.99,108.07c-1.04,2.58,29.52,36.26,112.53,42.17,71.33,5.11,110.59-22.2,110.59-22.2L49.99,108.07Z"/></g><g id="eed0dzod088l10"><ellipse class="cls-3" cx="161.04" cy="117.07" rx="14.97" ry="112.36" transform="translate(29.16 266.21) rotate(-84.53)"/></g><g id="eed0dzod088l11"><path class="cls-6" d="M212.97,110.31s-6.09,3.39-17.92,5.67c-.03,0-.06,.01-.1,.02-.03,0-.06,.01-.1,.02-1.59,.3-3.29,.59-5.09,.84-.66,.09-1.33,.18-2.01,.26-.03,0-.06,0-.09,.01-.03,0-.06,0-.09,.01-7.17,.86-15.82,1.21-25.9,.43-14.2-1.09-31.24-4.4-50.99-11.6,0,0,3.98-50.69,54.69-49.88,50.7,.81,47.58,54.21,47.58,54.21Z"/><path class="cls-4" d="M151.1,116.5c-5.54-.8-11.22-1.9-16.93-3.28-7.66-1.85-15.57-4.26-23.5-7.15-.04-.01-.06-.05-.06-.1,0-.03,.26-3.23,1.42-7.92,.68-2.76,1.53-5.48,2.52-8.1,1.25-3.27,2.73-6.39,4.4-9.26,4.27-7.31,9.8-13.1,16.45-17.22,3.95-2.44,8.34-4.31,13.05-5.55,5.18-1.37,10.88-2.01,16.93-1.91,2.83,.05,5.54,.26,8.14,.63,10.73,1.55,19.47,5.89,26.04,12.97,3.41,3.67,6.24,8.1,8.41,13.15,1.74,4.04,3.06,8.5,3.94,13.24,1.49,8.07,1.15,14.26,1.15,14.32,0,.03-.02,.06-.05,.08-.02,.01-2.29,1.27-6.64,2.74-2.55,.87-5.31,1.64-8.21,2.29-3.61,.82-7.44,1.46-11.38,1.91-10.03,1.13-20.81,1.01-32.06-.35-1.2-.15-2.41-.31-3.62-.48Zm-40.3-10.59c7.9,2.88,15.78,5.28,23.41,7.12,6.96,1.68,13.87,2.95,20.54,3.76,11.23,1.36,22.01,1.48,32.02,.35,3.93-.44,7.76-1.08,11.36-1.9,2.89-.65,5.64-1.42,8.19-2.29,4-1.36,6.23-2.52,6.57-2.7,.03-.61,.27-6.57-1.15-14.23-.87-4.73-2.19-9.16-3.93-13.19-2.17-5.03-4.98-9.44-8.38-13.1-8.13-8.75-19.58-13.31-34.04-13.54-6.04-.1-11.72,.54-16.88,1.91-4.69,1.24-9.07,3.1-13,5.53-6.63,4.09-12.14,9.86-16.39,17.15-1.67,2.86-3.15,5.97-4.39,9.23-.99,2.61-1.84,5.33-2.52,8.08-1.06,4.3-1.36,7.33-1.41,7.83Z"/><g><g><g><path class="cls-6" d="M159.01,96.88l-3.34,6.13,.29-14.88c.11-1.37,.66-2.27,.93-2.63,.25-.34,.48-.68,.8-.96,.39-.33,.92-.75,1.28-.89,.44-.18,.46-.79,.04-.9-.41-.11-1.65,.35-2.73,1.45-1.08,1.1-.83-1.28-.76-2.16,.07-.87,.18-3.58-.07-3.8-.37-.33-.8,0-.86,.88-.05,.88-.4,3.48-.86,3.43-.45-.05-.01-4.48-.01-4.48,0,0,.25-.94-.28-1.01-.95-.13-1.07,4.6-1.07,5.05,0,.31-.5,.28-.48-.06,.02-.35,.54-4.41-.43-4.56-.74-.11-.13,3.9-.71,4.69-.58,.8-.15-3.1-.86-3.17-.27-.03-.47-.01-.39,2.25,.04,1.22,.58,3.03,.48,5.38l-.02,.61c-.37,2.89-1.6,13.8,.07,20.79,1.01,4.22,6.39,5.55,9.28,2.31,1.96-2.2,4.4-5.32,6.55-9.24l-6.85-4.22Z"/><path class="cls-4" d="M165.91,101.01l-2.23-1.37-2.36-1.45-2.26-1.39s-.05-.02-.08-.01c-.03,0-.05,.03-.06,.05l-1.95,3.57-1.19,2.18,.28-14.46c.12-1.38,.67-2.26,.91-2.58,.03-.04,.06-.08,.09-.13,.22-.3,.42-.58,.69-.81,.54-.46,.97-.77,1.25-.87,.3-.12,.42-.4,.41-.63-.01-.23-.16-.41-.38-.47-.45-.12-1.72,.34-2.83,1.48-.19,.2-.35,.29-.44,.24-.33-.15-.2-1.7-.15-2.21v-.11c.05-.45,.09-1.36,.09-2.15,0-1.56-.13-1.68-.19-1.74-.16-.15-.35-.19-.52-.12-.28,.12-.47,.51-.51,1.07-.06,1.01-.38,3.04-.71,3.31,0,0-.02,.01-.03,.02-.04-.05-.18-.35-.09-2.25,.05-1.01,.15-2.01,.16-2.11,.02-.08,.15-.63-.05-.94-.07-.11-.18-.18-.31-.2h0c-.12-.02-.23,.02-.33,.11-.81,.7-.86,5.01-.86,5.05,0,.05-.02,.08-.05,.1-.04,.02-.11,.02-.16,0-.03-.02-.07-.06-.07-.14,0-.04,.01-.12,.02-.24,.29-2.92,.12-4.33-.54-4.43h0c-.08-.01-.16,.01-.23,.07-.29,.25-.3,1.18-.31,2.26-.01,.97-.02,2.06-.27,2.41-.02,.03-.03,.04-.05,.05-.08-.13-.12-.73-.14-1.18-.08-1.23-.16-2.05-.58-2.09-.08,0-.2-.02-.3,.07-.17,.16-.27,.6-.21,2.28,.02,.45,.09,.96,.19,1.56,.16,1.03,.36,2.32,.3,3.81l-.02,.6c-.17,1.33-.58,4.85-.73,8.86-.18,4.95,.09,8.97,.8,11.96,.24,1.02,.76,1.93,1.49,2.64,.69,.67,1.55,1.14,2.5,1.38,.19,.05,.39,.09,.58,.11,.77,.11,1.56,.06,2.3-.15,.99-.28,1.89-.84,2.59-1.63,.71-.79,1.39-1.61,2.05-2.44,.83-1.06,1.62-2.15,2.37-3.27,.11-.17,.23-.34,.34-.51,.64-.99,1.25-2.01,1.82-3.04,.03-.05,.01-.11-.04-.14Zm-2.29,3.58c-.69,1.04-1.42,2.05-2.2,3.04-.7,.9-1.43,1.78-2.2,2.63-.68,.76-1.54,1.3-2.49,1.57-.9,.25-1.86,.27-2.78,.03-.91-.23-1.74-.69-2.4-1.33-.7-.68-1.2-1.56-1.43-2.54-.42-1.75-1.66-8.41-.07-20.75,0,0,0,0,0,0l.02-.61c.06-1.51-.14-2.81-.3-3.85-.09-.59-.17-1.1-.18-1.54-.02-.48-.07-1.93,.14-2.12,.03-.02,.06-.03,.13-.02,.05,0,.18,.07,.27,.59,.07,.38,.1,.87,.13,1.31,.05,.89,.09,1.31,.3,1.37,.13,.04,.23-.1,.27-.14,.29-.4,.3-1.43,.31-2.53,0-.9,.02-1.92,.24-2.11,.02-.02,.04-.02,.06-.02,.28,.04,.71,.65,.36,4.21-.01,.12-.02,.21-.02,.25,0,.14,.05,.26,.16,.33,.11,.07,.26,.08,.37,.02,.1-.05,.16-.16,.16-.28,0-.69,.14-4.33,.79-4.89,.06-.05,.11-.07,.16-.06h0c.08,.01,.13,.04,.17,.11,.13,.2,.06,.63,.02,.78,0,0,0,.01,0,.02,0,.01-.11,1.12-.16,2.23-.1,2.15,.08,2.35,.27,2.37,.05,0,.12,0,.19-.07,.49-.41,.75-3,.78-3.46,.03-.56,.23-.83,.38-.89,.12-.05,.23,.02,.3,.08,.01,.01,.13,.19,.12,1.6,0,.79-.05,1.66-.09,2.12v.11c-.1,1.07-.17,2.22,.26,2.42,.18,.08,.4-.01,.67-.29,1-1.02,2.23-1.52,2.63-1.42,.13,.03,.21,.14,.22,.28,0,.15-.07,.34-.28,.42-.37,.15-.92,.58-1.3,.91-.29,.25-.51,.55-.73,.85-.03,.04-.06,.08-.09,.13-.24,.33-.83,1.26-.94,2.69,0,0,0,0,0,0l-.29,14.88s.03,.09,.08,.1c.05,.01,.09,0,.12-.05l1.3-2.39,1.98-3.64,2.28,1.4,2.38,1.47,2.01,1.24c-.51,.92-1.05,1.83-1.62,2.72-.16,.25-.32,.49-.48,.74h0Z"/></g><path class="cls-4" d="M151.56,85.62s.15,.04,.36,.15c.21,.11,.5,.34,.64,.71l.07,.17,.08-.17c.1-.22,.25-.45,.45-.65,.42-.43,.96-.65,1.34-.72,.39-.08,.65-.04,.65-.07,0-.01-.25-.1-.67-.05-.41,.04-.99,.25-1.45,.72-.21,.22-.37,.46-.48,.71h.14c-.18-.41-.51-.64-.75-.74-.25-.1-.4-.08-.4-.07Z"/></g><g><path class="cls-6" d="M194.96,116s-.06,.01-.1,.02c-1.59,.3-3.29,.59-5.09,.84-.66,.09-1.33,.18-2.01,.26-.03,0-.06,0-.09,.01,.35-2.67,.75-5.83,1.17-9.43,.03-.28,.07-.57,.1-.86,.13-1.09,.26-2.21,.39-3.37l6.11,.88s.09,.58,.16,1.59c.14,2.03,.22,5.79-.65,10.05Z"/><path class="cls-4" d="M195.74,110.44c.09-1.87,.04-3.44-.04-4.52-.07-.99-.16-1.57-.16-1.58,0-.04-.04-.07-.08-.08l-6.11-.88s-.05,0-.07,.02c-.02,.01-.03,.04-.03,.06-.14,1.27-.29,2.51-.43,3.69h0c-.02,.19-.04,.38-.07,.57-.42,3.59-.82,6.75-1.17,9.42,.03,0,.06,0,.09-.01,.03,0,.06,0,.09-.01,.35-2.68,.75-5.85,1.18-9.45,.04-.38,.09-.76,.13-1.15h0c.11-.96,.22-1.94,.34-2.95l5.95,.86c.02,.18,.09,.72,.15,1.53,.08,1.07,.13,2.63,.04,4.47-.1,1.91-.33,3.78-.7,5.58,.03,0,.06-.01,.1-.02,.03,0,.06-.01,.1-.02,.36-1.78,.59-3.64,.69-5.54Z"/></g><path class="cls-4" d="M170.91,67.67c-1.67,4.8-3.54,9.87-7.57,12.98,.53,.12,1.1,.03,1.57-.25-.87,1.45-1.75,2.92-2.18,4.55s-.36,3.47,.58,4.88c.1-.18,.21-.36,.31-.55-.96,3.48,.68,7.5,3.81,9.33,1.35,.79,3.15,1.15,4.45,.28,.99-.66,1.44-1.86,1.83-2.98,2.56-7.27,5.12-14.55,7.68-21.82,.71-2.03,1.44-4.17,1.04-6.29-.45-2.38-2.45-4.39-4.83-4.88s-5.01,.58-6.37,2.59l-.32,2.14Z"/><g><path class="cls-6" d="M179.68,64.55l.68-.48,6.09,3.54c.93,.19,1.56,1.05,1.45,1.99l-3.09,21.06c-.2,1.43-.66,2.63-1.69,3.64l-1.08,1.07c-2.46,2.43-6.69,1.6-7.9-1.65-.08-.23-.14-.42-.15-.58,0-.19-.04-.32-.03-.48,.05-1.72,.25-3.19,.25-3.19,.15-1.88,.22-2.65,.22-2.63,0,0-3.89-1.03-4.23-6.26-.17-2.6,.43-6.07,1.08-9.47,.89-4.71,4.59-7.09,8.39-6.54Z"/><path class="cls-4" d="M186.79,76.87s0,0,0,0l-.77,5.24s.02,0,.02,0h.02s.77-5.25,.77-5.25h0s-.02,0-.04,0Zm0,0s0,0,0,0l-.77,5.24s.02,0,.02,0h.02s.77-5.25,.77-5.25c-.01,0-.02,0-.04,0Zm.8-8.58c-.27-.38-.68-.64-1.13-.73l-6.08-3.53s-.03,0-.05,0l-.16,.12-.5,.36c-1.91-.27-3.79,.19-5.31,1.31-.78,.57-1.44,1.3-1.96,2.17-.55,.91-.94,1.95-1.16,3.1-.2,1.08-.41,2.17-.58,3.25h0c-.37,2.28-.61,4.46-.5,6.23,.08,1.2,.35,2.28,.81,3.2,.37,.74,.85,1.39,1.45,1.92,.9,.81,1.79,1.11,1.97,1.17,0,.02,0,.05,0,.09-.01,.16-.04,.45-.08,.9-.03,.4-.08,.93-.13,1.6,0,.02-.02,.17-.05,.43-.06,.56-.17,1.61-.2,2.77,0,.1,0,.19,.01,.29,0,.06,.01,.13,.02,.2,0,0,0,0,0,0,.01,.15,.06,.35,.15,.59,.06,.17,.13,.33,.21,.49,.29,.57,.68,1.07,1.17,1.48,.58,.49,1.29,.84,2.05,1,.12,.03,.25,.05,.37,.07,.73,.11,1.47,.05,2.15-.17h0c.75-.23,1.44-.64,2.01-1.2l1.07-1.06h.01c.5-.51,.88-1.06,1.16-1.69,.16-.36,.29-.75,.39-1.18,0-.04,.02-.07,.02-.11h0c.05-.22,.09-.46,.12-.7l.58-3.97,.66-4.48v-.04s.01-.04,.01-.04l.77-5.26v-.04s.01-.04,.01-.04h0s1.05-7.18,1.05-7.18c.05-.47-.07-.93-.35-1.31Zm-.8,8.49v.04s-.01,.04-.01,.04l-.77,5.24v.04s-.01,.04-.01,.04l-.66,4.48-.58,3.97c-.03,.24-.07,.46-.12,.68h0s-.02,.07-.03,.11c-.1,.43-.23,.82-.39,1.17-.28,.62-.65,1.16-1.15,1.65h0s-1.08,1.07-1.08,1.07c-.56,.55-1.23,.95-1.96,1.18-.79,.25-1.65,.29-2.5,.1-.75-.17-1.44-.51-2.02-.99-.5-.42-.9-.93-1.18-1.52,0,0,0,0,0,0-.06-.13-.12-.27-.17-.4-.09-.23-.14-.42-.15-.57,0-.08-.01-.14-.02-.21-.01-.1-.02-.18-.01-.27h0c.03-1.12,.13-2.13,.19-2.71,.03-.3,.06-.48,.06-.48,0,0,0,0,0,0,.05-.55,.08-1.01,.11-1.38,0-.09,.02-.18,.02-.26,.04-.43,.06-.71,.07-.86,0-.04,0-.08,0-.1,0,0,0-.02,0-.03h0s0,0,0,0c0,0,0,0,0,0h0s0-.04-.04-.05c-.04-.01-.29-.08-.65-.26-.36-.18-.84-.46-1.32-.89-.59-.53-1.07-1.16-1.43-1.89-.45-.92-.72-1.98-.8-3.17-.08-1.17-.08-2.67,.57-6.6h0c.14-.84,.31-1.78,.51-2.86,.21-1.14,.6-2.17,1.15-3.07,.52-.86,1.17-1.58,1.94-2.15,1.5-1.11,3.36-1.56,5.25-1.29h0s.02,0,.03,0l.54-.38,.12-.09,6.07,3.52s0,0,.01,0c.44,.09,.82,.34,1.09,.7,.26,.36,.38,.8,.33,1.25l-1.06,7.19Zm0,.09s0,0,0,0l-.77,5.24s.02,0,.02,0h.02s.77-5.25,.77-5.25c-.01,0-.02,0-.04,0Z"/></g><path class="cls-4" d="M179.76,75.77c-.04,.35,.21,.67,.58,.73,.36,.05,.69-.18,.74-.53,.04-.35-.21-.67-.58-.73-.36-.05-.69,.19-.74,.53Z"/><path class="cls-4" d="M172.98,74.97c-.04,.35,.21,.67,.58,.73,.36,.05,.69-.18,.74-.53,.04-.35-.21-.67-.58-.73-.36-.05-.69,.18-.74,.53Z"/><path class="cls-4" d="M171.76,72.55c.07,.09,.61-.23,1.32-.16,.71,.06,1.2,.47,1.29,.39,.04-.04-.03-.2-.24-.39-.21-.19-.58-.38-1.02-.42-.44-.04-.83,.09-1.06,.24-.23,.15-.32,.3-.29,.34Z"/><path class="cls-4" d="M178.81,73.32c.08,.09,.58-.29,1.3-.3,.71-.02,1.24,.35,1.32,.26,.04-.04-.05-.19-.28-.36-.23-.16-.61-.32-1.06-.31-.45,0-.82,.17-1.03,.34-.22,.17-.29,.33-.25,.37Z"/><path class="cls-4" d="M175.72,78.45s-.43-.16-1.14-.32c-.18-.04-.35-.09-.37-.21-.03-.14,.06-.32,.17-.53,.21-.42,.43-.87,.67-1.33,.93-1.9,1.62-3.47,1.55-3.51-.08-.04-.89,1.47-1.82,3.38-.23,.47-.44,.92-.65,1.34-.09,.2-.23,.42-.16,.7,.04,.14,.16,.25,.27,.29,.11,.05,.22,.06,.3,.07,.72,.11,1.17,.15,1.17,.11Z"/><path class="cls-4" d="M174.44,86.83s3.45,.55,7.08-1.2c0,0-2.07,3.41-7.19,2.45l.11-1.25Z"/><path class="cls-1" d="M175.79,81.89c-.09-.3-.33-.55-.61-.69-.4-.2-.72-.27-1.08-.04-.18,.13-.29,.42-.27,.51,.02,.1-.02,.08,.03,.17,.18,.31,.44,.56,.73,.77,.29,.21,.69,.29,.96,.1,.24-.17,.33-.52,.24-.82Z"/><path class="cls-4" d="M179.11,70.04c.06,.19,.7,.1,1.45,.19,.75,.08,1.36,.32,1.45,.14,.04-.08-.06-.27-.31-.45-.24-.19-.63-.36-1.08-.41-.45-.05-.86,.03-1.13,.16-.27,.13-.41,.28-.38,.37Z"/><path class="cls-4" d="M172.05,71.28c.11,.17,.62,.05,1.21,.1,.59,.03,1.08,.21,1.21,.05,.06-.08,0-.25-.21-.42-.2-.17-.55-.33-.96-.36-.41-.02-.77,.09-.99,.24-.22,.15-.31,.31-.26,.39Z"/><g><path class="cls-6" d="M186.58,76.84c1.03-.06,2.85,.19,2.62,2.76-.3,3.52-3.78,2.49-3.77,2.39l1.15-5.15Z"/><path class="cls-4" d="M186.06,82.21c-.16-.02-.29-.05-.37-.07-.31-.08-.31-.13-.31-.15,0-.02,.02-.04,.04-.04,.02,0,.03,0,.04,.02,.04,.03,.33,.13,.75,.18,.37,.04,.92,.04,1.45-.17,.4-.16,.72-.41,.96-.76,.29-.41,.46-.96,.52-1.62,.08-.94-.1-1.65-.55-2.11-.31-.32-.91-.68-2.03-.61-.02,0-.04-.02-.05-.04,0-.02,.02-.04,.04-.05,1.15-.07,1.77,.31,2.09,.64,.47,.48,.66,1.21,.58,2.17-.09,1.04-.46,1.78-1.1,2.22-.58,.4-1.27,.45-1.75,.42-.12,0-.23-.02-.33-.03Z"/></g><path class="cls-4" d="M186.62,80.75s.06,.05,.16,.1c.1,.05,.27,.1,.46,.05,.38-.1,.75-.67,.82-1.3,.04-.32,0-.63-.1-.89-.09-.27-.24-.46-.42-.51-.18-.06-.32,.04-.38,.14-.06,.09-.04,.17-.06,.17-.01,0-.07-.07-.03-.21,.02-.07,.07-.15,.16-.21,.09-.06,.22-.09,.35-.06,.27,.04,.49,.31,.59,.6,.12,.29,.17,.64,.13,1-.08,.71-.5,1.34-1.03,1.44-.25,.04-.45-.05-.55-.14-.1-.1-.11-.18-.1-.18Z"/><path class="cls-4" d="M176.15,82.2c-.05,.08-.59-.17-1.31-.32-.71-.16-1.31-.17-1.32-.26-.01-.08,.62-.22,1.39-.05,.77,.17,1.29,.56,1.24,.63Z"/><path class="cls-3" d="M192.97,103.91s-.01,.06-.02,.09c0,.03-.01,.06-.02,.09-.13,.54-.28,1.04-.45,1.5-.15,.4-.29,.83-.43,1.28h0c-1,3.21-1.79,7.59-2.23,9.77-.01,.06-.02,.13-.04,.21-.66,.09-1.33,.18-2.01,.26-.03,0-.06,0-.09,.01-.03,0-.06,0-.09,.01-7.17,.86-15.82,1.21-25.9,.43,0-.03,0-.07,0-.1,0-.01,0-.03,0-.04s0-.03,0-.04c.05-.89,.06-1.72-.03-2.25-.11-.62-.19-3.68-.24-7.18,0-.06,0-.11,0-.17,0-.05,0-.11,0-.16-.02-1.45-.04-2.96-.05-4.39h0c-.02-1.82-.03-3.52-.04-4.82,0-.04,0-.08,0-.12,0-.04,0-.08,0-.12,0-1.33-.01-2.17-.01-2.17l.04-.11,1.4-4.24,.03-.1,.02-.06,.04-.11h0s.51-.07,.51-.07l6.26-.83,4.51-.6h.04s0,0,0,0c.01,.02,.02,.05,.04,.07,.28,.56,.66,1.05,1.1,1.47,1.5,1.41,3.77,2,5.83,1.64h0c.28-.05,.55-.11,.82-.2,.92-.29,1.77-.79,2.45-1.51l.23,.09,.04,.02h0s.04,.02,.04,.02l2.17,.88,1.09,.44,5.72,2.32s0,.02,0,.07c0,.06,0,.17,0,.31,0,.02,0,.03,0,.05,0,.02,0,.04,0,.06,0,1.35-.04,5.24-.73,8.3Z"/><path class="cls-3" d="M162.84,91.38s-4.28,.73-5.9,9.2l7.27,4.36-1.3-13.14-.06-.42Z"/><path class="cls-3" d="M193.71,95.15s3.9,1.91,3.07,10.5l-8.2,2.13,4.96-12.23,.18-.39Z"/><path class="cls-4" d="M186.84,98.93s-.62-3.82,1.34-6.45c1.97-2.63,2.27-4.97,1.14-6.61-.79-1.15-.49-2.54-.06-3.57,.73-1.73,1.3-3.54,1.57-5.4,.39-2.69,.5-5.64-.4-8.13-1.17-3.24-4.04-6.76-7.46-6.37-1.59,.18-2.29-.08-4.15,.77,0,0-1.36-.34-2.11-.45-2.56-.39-4.96,1.72-5.84,3.53-2.05,4.2-.01,6.23-.71,9.3,0,0,2.41-6.11,3.46-7.54,1.22-1.66,3.26-2,3.26-2,1.75,.74,2.09,2.02,2.14,3.91,.05,1.9-.07,3.35,1.02,4.91,1.02,1.47,1.44,3.53,4.19,3.42,0,0,.31,1.69-.44,3.13-.75,1.44-2.57,1.32-2.95,4.04-.38,2.72,.52,5.32,.17,6.27l5.82,7.23Z"/><path class="cls-4" d="M180.22,89.51c.92,.97,1.26,2.47,.85,3.74-.27,.84-.84,1.58-.99,2.45-.19,1.06,.27,2.11,.65,3.12,.38,1.01,.68,2.16,.22,3.13-.19,.41-.51,.74-.71,1.15-.2,.4-.26,.94,.05,1.27,.21,.23,.54,.31,.85,.34,2.32,.28,4.75-1.02,5.79-3.11,.15,.36,.29,.71,.44,1.07,1.1-1.54,1.65-3.47,1.53-5.36-.12-1.89-.9-3.73-2.17-5.13l-6.5-2.68Z"/></g></g><g id="eed0dzod088l12"><g id="eed0dzod088l13"><path class="cls-4" d="M142.86,65.02c.11,.24-1.82,1.36-4.62,3.39-.73,.48-1.48,1.04-2.31,1.73-.83,.62-1.67,1.38-2.51,2.07-1.7,1.53-3.5,3.33-5.27,5.36-1.7,2.04-3.25,4.11-4.48,5.99-.59,1.02-1.23,1.89-1.67,2.86-.5,.89-.99,1.77-1.32,2.54-1.56,3.17-2.37,5.19-2.66,5.15-.22-.03,.11-2.27,1.41-5.7,.34-.84,.69-1.74,1.2-2.7,.43-.97,1.02-1.99,1.61-3.01,1.25-2.03,2.75-4.25,4.53-6.35,1.78-2.1,3.73-3.89,5.58-5.47,.92-.75,1.83-1.43,2.73-2.04s1.72-1.15,2.51-1.56c3-1.85,5.15-2.5,5.27-2.27Z"/></g></g><g id="eed0dzod088l31" class="cls-10"><g id="eed0dzod088l32"><path class="cls-6" d="M159.86,64.74c-.94-.14-1.83,.4-2.1,1.25-.27,.85,.09,1.93,.92,2.34,.83,.41,1.89,.2,2.51-.52,.55-.73,.49-1.85-.15-2.53-.38-.42-1.01-.66-1.54-.59"/></g></g><g id="eed0dzod088l35" class="cls-10"><g id="eed0dzod088l36"><path class="cls-6" d="M156.32,68.88c-.45,.08-.76,.7-.53,1.1,.24,.4,.88,.57,1.23,.18,.34-.32,.29-.99-.12-1.2"/></g></g></g></g><g id="eed0dzod088l65"><g id="eed0dzod088l66"><path class="cls-5" d="M278.77,92.69l.25,.44c.25,.49,.64,.89,1.13,1.13l.44,.25-.44,.25c-.49,.25-.89,.64-1.13,1.13l-.25,.44-.25-.44c-.25-.49-.64-.89-1.13-1.13l-.44-.25,.44-.25c.49-.25,.89-.64,1.13-1.13l.25-.44Z"/></g><g id="eed0dzod088l67"><path class="cls-5" d="M19.08,129.46l.25,.44c.25,.49,.64,.89,1.13,1.13l.44,.25-.44,.25c-.49,.25-.89,.64-1.13,1.13l-.25,.44-.25-.44c-.25-.49-.64-.89-1.13-1.13l-.44-.25,.44-.25c.49-.25,.89-.64,1.13-1.13l.25-.44Z"/></g><g id="eed0dzod088l68"><path class="cls-5" d="M259.05,161.82l.39,.74c.44,.84,1.13,1.53,1.97,1.97l.74,.39-.74,.39c-.84,.44-1.53,1.13-1.97,1.97l-.39,.74-.39-.74c-.44-.84-1.13-1.53-1.97-1.97l-.74-.39,.74-.39c.84-.44,1.53-1.13,1.97-1.97l.39-.74Z"/></g><g id="eed0dzod088l69"><path class="cls-5" d="M8.94,176.72l.39,.74c.44,.84,1.13,1.53,1.97,1.97l.74,.39-.74,.39c-.84,.44-1.53,1.13-1.97,1.97l-.39,.74-.39-.74c-.44-.84-1.13-1.53-1.97-1.97l-.74-.39,.74-.39c.84-.44,1.53-1.13,1.97-1.97l.39-.74Z"/></g><g id="eed0dzod088l70"><path class="cls-5" d="M121.57,8.66l.39,.74c.44,.84,1.13,1.53,1.97,1.97l.74,.39-.74,.39c-.84,.44-1.53,1.13-1.97,1.97l-.39,.74-.39-.74c-.44-.84-1.13-1.53-1.97-1.97l-.74-.39,.74-.39c.84-.44,1.53-1.13,1.97-1.97l.39-.74Z"/></g><g id="eed0dzod088l71"><path class="cls-5" d="M227.01,74.68l.39,.74c.44,.84,1.13,1.53,1.97,1.97l.74,.39-.74,.39c-.84,.44-1.53,1.13-1.97,1.97l-.39,.74-.39-.74c-.44-.84-1.13-1.53-1.97-1.97l-.74-.39,.74-.39c.84-.44,1.53-1.13,1.97-1.97l.39-.74Z"/></g><g id="eed0dzod088l72"><path class="cls-5" d="M96.96,78.76l.25,.44c.25,.49,.64,.89,1.13,1.13l.44,.25-.44,.25c-.49,.25-.89,.64-1.13,1.13l-.25,.44-.25-.44c-.25-.49-.64-.89-1.13-1.13l-.44-.25,.44-.25c.49-.25,.89-.64,1.13-1.13l.25-.44Z"/></g><g id="eed0dzod088l73"><path class="cls-5" d="M133.93,147.43l.25,.44c.25,.49,.64,.89,1.13,1.13l.44,.25-.44,.25c-.49,.25-.89,.64-1.13,1.13l-.25,.44-.25-.44c-.25-.49-.64-.89-1.13-1.13l-.44-.25,.44-.25c.49-.25,.89-.64,1.13-1.13l.25-.44Z"/></g><g id="eed0dzod088l74"><path class="cls-5" d="M60.53,190.36l.25,.44c.25,.49,.64,.89,1.13,1.13l.44,.25-.44,.25c-.49,.25-.89,.64-1.13,1.13l-.25,.44-.25-.44c-.25-.49-.64-.89-1.13-1.13l-.44-.25,.44-.25c.49-.25,.89-.64,1.13-1.13l.25-.44Z"/></g></g><g id="eed0dzod088l75" class="cls-12"><g id="eed0dzod088l76"><path class="cls-8" d="M218.99,0l.25,.44c.25,.49,.64,.89,1.13,1.13l.44,.25-.44,.25c-.49,.25-.89,.64-1.13,1.13l-.25,.44-.25-.44c-.25-.49-.64-.89-1.13-1.13l-.44-.25,.44-.25c.49-.25,.89-.64,1.13-1.13l.25-.44Z"/></g><g id="eed0dzod088l77"><path class="cls-8" d="M153.72,166.38l.25,.44c.25,.49,.64,.89,1.13,1.13l.44,.25-.44,.25c-.49,.25-.89,.64-1.13,1.13l-.25,.44-.25-.44c-.25-.49-.64-.89-1.13-1.13l-.44-.25,.44-.25c.49-.25,.89-.64,1.13-1.13l.25-.44Z"/></g><g id="eed0dzod088l78"><path class="cls-8" d="M17.51,27.22l.25,.44c.25,.49,.64,.89,1.13,1.13l.44,.25-.44,.25c-.49,.25-.89,.64-1.13,1.13l-.25,.44-.25-.44c-.25-.49-.64-.89-1.13-1.13l-.44-.25,.44-.25c.49-.25,.89-.64,1.13-1.13l.25-.44Z"/></g><g id="eed0dzod088l79"><path class="cls-8" d="M241.39,179.72l.25,.44c.25,.49,.64,.89,1.13,1.13l.44,.25-.44,.25c-.49,.25-.89,.64-1.13,1.13l-.25,.44-.25-.44c-.25-.49-.64-.89-1.13-1.13l-.44-.25,.44-.25c.49-.25,.89-.64,1.13-1.13l.25-.44Z"/></g><g id="eed0dzod088l80"><path class="cls-8" d="M216.63,134.29l.25,.44c.25,.49,.64,.89,1.13,1.13l.44,.25-.44,.25c-.49,.25-.89,.64-1.13,1.13l-.25,.44-.25-.44c-.25-.49-.64-.89-1.13-1.13l-.44-.25,.44-.25c.49-.25,.89-.64,1.13-1.13l.25-.44Z"/></g><g id="eed0dzod088l81"><path class="cls-8" d="M58.71,107.07l.25,.44c.25,.49,.64,.89,1.13,1.13l.44,.25-.44,.25c-.49,.25-.89,.64-1.13,1.13l-.25,.44-.25-.44c-.25-.49-.64-.89-1.13-1.13l-.44-.25,.44-.25c.49-.25,.89-.64,1.13-1.13l.25-.44Z"/></g><g id="eed0dzod088l82"><path class="cls-8" d="M268.51,95.69l.1,.2c.15,.25,.34,.44,.59,.59l.2,.1-.2,.1c-.25,.15-.44,.34-.59,.59l-.1,.2-.1-.2c-.15-.25-.34-.44-.59-.59l-.2-.1,.2-.1c.25-.15,.44-.34,.59-.59l.1-.2Z"/></g><g id="eed0dzod088l83"><path class="cls-8" d="M101.78,146.5l.1,.2c.1,.25,.3,.44,.54,.59l.2,.15-.2,.1c-.25,.1-.44,.3-.59,.54l-.15,.2-.1-.2c-.1-.25-.3-.44-.54-.59l-.2-.15,.2-.1c.25-.1,.44-.3,.59-.54l.15-.2Z"/></g><g id="eed0dzod088l84"><path class="cls-8" d="M250.25,41.84l.1,.2c.15,.25,.34,.44,.59,.59l.2,.1-.2,.1c-.25,.15-.44,.34-.59,.59l-.1,.2-.1-.2c-.15-.25-.34-.44-.59-.59l-.2-.1,.2-.1c.25-.15,.44-.34,.59-.59l.1-.2Z"/></g><g id="eed0dzod088l85"><path class="cls-8" d="M105.87,47.85l.1,.2c.15,.25,.34,.44,.59,.59l.2,.1-.2,.1c-.25,.15-.44,.34-.59,.59l-.1,.25-.1-.2c-.15-.25-.34-.44-.59-.59l-.2-.1,.2-.1c.25-.15,.44-.34,.59-.59l.1-.25Z"/></g><g id="eed0dzod088l86"><path class="cls-8" d="M42.81,8.42l.1,.2c.15,.25,.34,.44,.59,.59l.2,.1-.2,.1c-.25,.15-.44,.34-.59,.59l-.1,.2-.1-.2c-.15-.25-.34-.44-.59-.59l-.25-.1,.2-.1c.25-.15,.44-.34,.59-.59l.15-.2Z"/></g><g id="eed0dzod088l87"><path class="cls-8" d="M164.74,24.12l.39,.74c.44,.84,1.13,1.53,1.97,1.97l.74,.39-.74,.39c-.84,.44-1.53,1.13-1.97,1.97l-.39,.74-.39-.74c-.44-.84-1.13-1.53-1.97-1.97l-.74-.39,.74-.39c.84-.44,1.53-1.13,1.97-1.97l.39-.74Z"/></g><g id="eed0dzod088l88"><path class="cls-8" d="M287.51,139.21l.39,.74c.44,.84,1.13,1.53,1.97,1.97l.74,.39-.74,.39c-.84,.44-1.53,1.13-1.97,1.97l-.39,.74-.39-.74c-.44-.84-1.13-1.53-1.97-1.97l-.74-.39,.74-.39c.84-.44,1.53-1.13,1.97-1.97l.39-.74Z"/></g><g id="eed0dzod088l89"><path class="cls-8" d="M38.09,166.87l.39,.74c.44,.84,1.13,1.53,1.97,1.97l.74,.39-.74,.39c-.84,.44-1.53,1.13-1.97,1.97l-.39,.74-.39-.74c-.44-.84-1.13-1.53-1.97-1.97l-.74-.39,.74-.39c.84-.44,1.53-1.13,1.97-1.97l.39-.74Z"/></g></g><g id="eed0dzod088l97"><circle class="cls-4" cx="262.39" cy="79.99" r="10.58"/></g><g id="eed0dzod088l98"><path class="cls-2" d="M257.91,77.08c-.94,.1-1.82-.59-1.92-1.53s.59-1.82,1.53-1.92c.94-.1,1.82,.59,1.92,1.53,.1,.98-.59,1.82-1.53,1.92Z"/></g><g id="eed0dzod088l99"><path class="cls-2" d="M261.45,73.15c-.54,.05-1.03-.34-1.13-.89-.05-.54,.34-1.03,.89-1.13,.54-.05,1.03,.34,1.13,.89,.05,.59-.34,1.08-.89,1.13Z"/></g><g id="eed0dzod088l100"><path class="cls-2" d="M264.65,74.08c0-.2,.15-.39,.34-.39s.39,.15,.39,.34-.15,.39-.34,.39-.34-.15-.39-.34Z"/></g><g id="eed0dzod088l101"><circle class="cls-3" cx="33.69" cy="83.63" r="20.53"/></g><g id="eed0dzod088l102" class="cls-11"><path class="cls-9" d="M27.54,85.24c0,1.46-1.16,2.62-2.62,2.62s-2.62-1.16-2.62-2.62,1.16-2.62,2.62-2.62,2.62,1.16,2.62,2.62Z"/></g><g id="eed0dzod088l103" class="cls-11"><path class="cls-9" d="M23.81,77.65c0,.85-.69,1.54-1.54,1.54s-1.54-.69-1.54-1.54,.69-1.54,1.54-1.54c.89,.04,1.54,.73,1.54,1.54Z"/></g><g id="eed0dzod088l104"><path class="cls-7" d="M13.75,88.6c.1,.34-17.57,17.28-13,20.87,4.53,3.59,23.68-5.66,40.02-18.8,16.29-13.19,31.21-29.19,27.12-33.42-4.09-4.23-24.47,8.32-24.47,8.32l2.41,1.58s12.31-7.93,16.24-4.82c3.89,3.05-7.24,15.06-22.89,26.53-15.65,11.47-30.86,19.49-33.18,16.34-2.36-3.15,8.76-13.59,8.76-13.59l-1.03-3Z"/></g><g id="eed0dzod088l105" class="cls-11"><path class="cls-9" d="M13.75,88.6c.1,.34-17.57,17.28-13,20.87,4.53,3.59,23.68-5.66,40.02-18.8,16.29-13.19,31.21-29.19,27.12-33.42-4.09-4.23-24.47,8.32-24.47,8.32l2.41,1.58s12.31-7.93,16.24-4.82c3.89,3.05-7.24,15.06-22.89,26.53-15.65,11.47-30.86,19.49-33.18,16.34-2.36-3.15,8.76-13.59,8.76-13.59l-1.03-3Z"/></g></g></g></svg>