<?xml version="1.0" encoding="UTF-8"?>
<svg width="28px" height="31px" viewBox="0 0 28 31" version="1.1" xmlns="http://www.w3.org/2000/svg" xmlns:xlink="http://www.w3.org/1999/xlink">
    <title>Combined Shape</title>
    <g id="Page-1" stroke="none" stroke-width="1" fill="none" fill-rule="evenodd">
        <g id="Apprenants-:-main-page" transform="translate(-40.000000, -209.000000)" fill="#FFFFFF" fill-rule="nonzero">
            <g id="WIZARD" transform="translate(22.000000, 194.000000)">
                <path d="M23.9706818,34 L21.9409261,38.3134602 C21.6227666,38.9896141 21.5963641,39.7791848 21.8685584,40.4776267 C22.1407527,41.1760685 22.6847612,41.7146584 23.3596534,41.9538694 C23.5254886,42.0125514 27.4624261,43.3919068 31.5,43.3919068 C35.5375739,43.3919068 39.4745114,42.0125514 39.6398864,41.9540324 C40.924867,41.4971884 41.6193656,40.0213734 41.1923864,38.6549574 L41.1923864,38.6549574 L39.8140057,34.2616244 C40.095358,34.362851 40.3701136,34.4684787 40.6339773,34.5806268 C43.4494943,35.7772525 45,37.5170137 45,39.4797669 C45,41.4425201 43.4494943,43.1822813 40.6339773,44.378907 C38.1743693,45.4242634 34.9305341,46 31.5,46 C28.0694659,46 24.8256307,45.4242634 22.3660227,44.378907 C19.5505057,43.1822813 18,41.4425201 18,39.4797669 C18,37.5170137 19.5505057,35.7772525 22.3660227,34.5806268 C22.869358,34.3667631 23.4069034,34.1736012 23.9706818,34 L23.9706818,34 Z M38.8366486,36 L39.9373772,39.2401638 C40.149412,39.8644501 39.8055596,40.5392028 39.1693564,40.7472757 C39.0130202,40.7985106 35.2960121,42 31.4997733,42 C27.7035346,42 23.9865265,40.7985106 23.8301903,40.7472757 C23.4962734,40.6380275 23.2270991,40.3919729 23.092412,40.072866 C22.9577249,39.753759 22.9707801,39.3930045 23.128195,39.084076 L23.128195,39.084076 L24.6139965,36.1681519 C26.4935224,36.8342063 28.8891098,37.233958 31.4997733,37.233958 C34.3236917,37.233958 36.8971684,36.766737 38.8366486,36 L38.8366486,36 Z M38.2268868,18.1358057 C38.7351022,17.8691493 39.3513378,18.0041634 39.7154247,18.461937 C40.0795116,18.9197106 40.0958994,19.5801062 39.7550098,20.0571448 L39.7550098,20.0571448 L36.324467,24.8571978 L36.324467,26.4675547 L38.4157198,28.6625902 C38.7887254,29.0538682 38.8812631,29.6517349 38.6454436,30.1467864 L38.6454436,30.1467864 L37.6473701,32.2418576 L38.4642681,34.8132859 C36.5541908,35.5538572 34.1018121,36 31.4236915,36 C29.0256808,36 26.8086925,35.6419286 25,35.0357144 L25,35.0357144 L26.6520208,31.567822 C26.7109495,31.4441916 26.7885234,31.3313631 26.8817446,31.233697 L26.8817446,31.233697 L28.9733037,29.038983 L28.9733037,27 C28.9733463,26.861811 28.9945469,26.7245257 29.0360949,26.593394 L29.0360949,26.593394 L30.2612888,22.7362516 C30.364074,22.4127865 30.5850911,22.1454142 30.8757235,21.9929481 L30.8757235,21.9929481 Z M43,25 C43.1827749,25 43.3309432,25.1465836 43.3309432,25.3274037 C43.3236021,26.6131082 44.369475,27.6621476 45.6690568,27.6725963 C45.8518317,27.6725963 46,27.8191799 46,28 C46,28.1808201 45.8518317,28.3274037 45.6690568,28.3274037 C44.369475,28.3378524 43.3236021,29.3868918 43.3309432,30.6725963 C43.3309432,30.8534164 43.1827749,31 43,31 C42.8172251,31 42.6690568,30.8534164 42.6690568,30.6725963 C42.6763979,29.3868918 41.630525,28.3378524 40.3309432,28.3274037 C40.1481683,28.3274037 40,28.1808201 40,28 C40,27.8191799 40.1481683,27.6725963 40.3309432,27.6725963 C41.630525,27.6621476 42.6763979,26.6131082 42.6690568,25.3274037 C42.6690568,25.1465836 42.8172251,25 43,25 Z M21,25 C21.1827749,25 21.3309432,25.1465836 21.3309432,25.3274037 C21.3236021,26.6131082 22.369475,27.6621476 23.6690568,27.6725963 C23.8518317,27.6725963 24,27.8191799 24,28 C24,28.1808201 23.8518317,28.3274037 23.6690568,28.3274037 C22.369475,28.3378524 21.3236021,29.3868918 21.3309432,30.6725963 C21.3309432,30.7895664 21.2678658,30.8976512 21.1654716,30.9561362 C21.0630774,31.0146213 20.9369226,31.0146213 20.8345284,30.9561362 C20.7321342,30.8976512 20.6690568,30.7895664 20.6690568,30.6725963 C20.6763979,29.3868918 19.630525,28.3378524 18.3309432,28.3274037 C18.1481683,28.3274037 18,28.1808201 18,28 C18,27.8191799 18.1481683,27.6725963 18.3309432,27.6725963 C19.630525,27.6621476 20.6763979,26.6131082 20.6690568,25.3274037 C20.6690568,25.1465836 20.8172251,25 21,25 Z M26,15 C26.1827749,15 26.3309432,15.1465836 26.3309432,15.3274037 C26.3236021,16.6131082 27.369475,17.6621476 28.6690568,17.6725963 C28.8518317,17.6725963 29,17.8191799 29,18 C29,18.1808201 28.8518317,18.3274037 28.6690568,18.3274037 C27.369475,18.3378524 26.3236021,19.3868919 26.3309432,20.6725963 C26.3309432,20.8534164 26.1827749,21 26,21 C25.8172251,21 25.6690568,20.8534164 25.6690568,20.6725963 C25.6763979,19.3868919 24.630525,18.3378524 23.3309432,18.3274037 C23.1481683,18.3274037 23,18.1808201 23,18 C23,17.8191799 23.1481683,17.6725963 23.3309432,17.6725963 C24.630525,17.6621476 25.6763979,16.6131082 25.6690568,15.3274037 C25.6690568,15.1465836 25.8172251,15 26,15 Z" id="Combined-Shape"></path>
            </g>
        </g>
    </g>
</svg>