<?xml version="1.0" encoding="UTF-8"?>
<svg width="70px" height="65px" viewBox="0 0 70 65" version="1.1" xmlns="http://www.w3.org/2000/svg" xmlns:xlink="http://www.w3.org/1999/xlink">
    <title>icon</title>
    <g id="Page-1" stroke="none" stroke-width="1" fill="none" fill-rule="evenodd">
        <g id="Old-customers-:-start-point---step-1" transform="translate(-1003.000000, -601.000000)" fill="#0094FF">
            <g id="Group" transform="translate(343.000000, 158.000000)">
                <g id="bloc-1-copy-6" transform="translate(638.000000, 416.000000)">
                    <g id="icon" transform="translate(22.000000, 27.000000)">
                        <path d="M11.1064315,42.605677 C22.7481769,64.8560574 54.2255172,56.6140608 61.9961229,35.618348 C63.340702,31.9861496 63.9225595,27.6600564 61.7502074,24.4545975 C59.3119289,20.8566883 54.3672464,20.0001086 49.9989272,20.088429 C45.6302697,20.1767496 41.0563151,20.8509734 37.0457421,19.1364462 C30.3312366,16.2666022 27.5042045,8.46357931 19.0891096,9.25418783 C12.4246496,9.88035486 9.12321725,14.8590243 7.88120774,20.8736077 C6.3746818,28.1677827 7.63498368,35.9709901 11.1064315,42.605677 Z" id="Fill-165-Copy" fill-opacity="0.189958479" transform="translate(35.224641, 32.509418) scale(-1, 1) rotate(22.000000) translate(-35.224641, -32.509418) "></path>
                        <path d="M40.875,6 L40.875,18.5 C40.875,20.221875 42.278125,21.625 44,21.625 L44,21.625 L56.5,21.625 L56.5,52.875 C56.5,54.6 55.1,56 53.375,56 L53.375,56 L22.125,56 C20.403125,56 19,54.6 19,52.875 L19,52.875 L19,9.125 C19,7.403125 20.403125,6 22.125,6 L22.125,6 L40.875,6 Z M31.5,40.375 L25.25,40.375 L25.25,49.75 L31.5,49.75 L31.5,40.375 Z M40.875,34.125 L34.625,34.125 L34.625,49.75 L40.875,49.75 L40.875,34.125 Z M50.25,27.875 L44,27.875 L44,49.75 L50.25,49.75 L50.25,27.875 Z M44,6 L56.5,18.5 L44,18.5 L44,6 Z" id="Combined-Shape" fill-rule="nonzero"></path>
                    </g>
                </g>
            </g>
        </g>
    </g>
</svg>