<?xml version="1.0" encoding="UTF-8"?>
<svg width="451px" height="133px" viewBox="0 0 451 133" version="1.1" xmlns="http://www.w3.org/2000/svg" xmlns:xlink="http://www.w3.org/1999/xlink">
    <title>Group 15</title>
    <g id="version-master" stroke="none" stroke-width="1" fill="none" fill-rule="evenodd" opacity="0.9">
        <g id="Skeleton---Accueil" transform="translate(-439.000000, -350.000000)" fill="#F5F8FA">
            <g id="Group-8" transform="translate(390.000000, 123.000000)">
                <g id="Group-17" transform="translate(0.000000, 69.000000)">
                    <g id="Group-15" transform="translate(49.000000, 158.000000)">
                        <path d="M74.5,86.491617 C74.5,85.3916773 75.3964684,84.5 76.5051769,84.5 L139.494823,84.5 C140.602252,84.5 141.5,85.3978404 141.5,86.491617 L141.5,112.508383 C141.5,113.608323 140.603532,114.5 139.494823,114.5 L76.5051769,114.5 C75.3977483,114.5 74.5,113.60216 74.5,112.508383 L74.5,86.491617 Z" id="Rectangle-6" transform="translate(108.000000, 99.500000) rotate(-270.000000) translate(-108.000000, -99.500000) "></path>
                        <path d="M260.5,86.491617 C260.5,85.3916773 261.396468,84.5 262.505177,84.5 L325.494823,84.5 C326.602252,84.5 327.5,85.3978404 327.5,86.491617 L327.5,112.508383 C327.5,113.608323 326.603532,114.5 325.494823,114.5 L262.505177,114.5 C261.397748,114.5 260.5,113.60216 260.5,112.508383 L260.5,86.491617 Z" id="Rectangle-6-Copy-4" transform="translate(294.000000, 99.500000) rotate(-270.000000) translate(-294.000000, -99.500000) "></path>
                        <path d="M198.5,70.491617 C198.5,69.3916773 199.392305,68.5 200.501995,68.5 L294.498005,68.5 C295.603676,68.5 296.5,69.3978404 296.5,70.491617 L296.5,96.508383 C296.5,97.6083227 295.607695,98.5 294.498005,98.5 L200.501995,98.5 C199.396324,98.5 198.5,97.6021596 198.5,96.508383 L198.5,70.491617 Z" id="Rectangle-6-Copy" transform="translate(247.500000, 83.500000) rotate(-270.000000) translate(-247.500000, -83.500000) "></path>
                        <path d="M12.5,70.491617 C12.5,69.3916773 13.3923048,68.5 14.5019955,68.5 L108.498005,68.5 C109.603676,68.5 110.5,69.3978404 110.5,70.491617 L110.5,96.508383 C110.5,97.6083227 109.607695,98.5 108.498005,98.5 L14.5019955,98.5 C13.3963239,98.5 12.5,97.6021596 12.5,96.508383 L12.5,70.491617 Z" id="Rectangle-6-Copy-2" transform="translate(61.500000, 83.500000) rotate(-270.000000) translate(-61.500000, -83.500000) "></path>
                        <path d="M2.5,106.991617 C2.5,105.891677 3.38976324,105 4.50359486,105 L25.4964051,105 C26.60296,105 27.5,105.89784 27.5,106.991617 L27.5,133.008383 C27.5,134.108323 26.6102368,135 25.4964051,135 L4.50359486,135 C3.39703997,135 2.5,134.10216 2.5,133.008383 L2.5,106.991617 Z" id="Rectangle-6-Copy-6" transform="translate(15.000000, 120.000000) rotate(-270.000000) translate(-15.000000, -120.000000) "></path>
                        <path d="M88,53.491617 C88,52.3916773 88.9023127,51.5 90.0095237,51.5 L218.990476,51.5 C220.100306,51.5 221,52.3978404 221,53.491617 L221,79.508383 C221,80.6083227 220.097687,81.5 218.990476,81.5 L90.0095237,81.5 C88.8996944,81.5 88,80.6021596 88,79.508383 L88,53.491617 Z" id="Rectangle-6" transform="translate(154.500000, 66.500000) rotate(-270.000000) translate(-154.500000, -66.500000) "></path>
                        <path d="M323,53.491617 C323,52.3916773 323.902313,51.5 325.009524,51.5 L453.990476,51.5 C455.100306,51.5 456,52.3978404 456,53.491617 L456,79.508383 C456,80.6083227 455.097687,81.5 453.990476,81.5 L325.009524,81.5 C323.899694,81.5 323,80.6021596 323,79.508383 L323,53.491617 Z" id="Rectangle-6-Copy-8" transform="translate(389.500000, 66.500000) rotate(-270.000000) translate(-389.500000, -66.500000) "></path>
                        <path d="M176,94.991617 C176,93.8916773 176.889064,93 177.990914,93 L224.009086,93 C225.108637,93 226,93.8978404 226,94.991617 L226,121.008383 C226,122.108323 225.110936,123 224.009086,123 L177.990914,123 C176.891363,123 176,122.10216 176,121.008383 L176,94.991617 Z" id="Rectangle-6-Copy-5" transform="translate(201.000000, 108.000000) rotate(-270.000000) translate(-201.000000, -108.000000) "></path>
                        <path d="M411,94.991617 C411,93.8916773 411.889064,93 412.990914,93 L459.009086,93 C460.108637,93 461,93.8978404 461,94.991617 L461,121.008383 C461,122.108323 460.110936,123 459.009086,123 L412.990914,123 C411.891363,123 411,122.10216 411,121.008383 L411,94.991617 Z" id="Rectangle-6-Copy-9" transform="translate(436.000000, 108.000000) rotate(-270.000000) translate(-436.000000, -108.000000) "></path>
                        <path d="M280.5,59.491617 C280.5,58.3916773 281.396916,57.5 282.507517,57.5 L398.492483,57.5 C399.601204,57.5 400.5,58.3978404 400.5,59.491617 L400.5,85.508383 C400.5,86.6083227 399.603084,87.5 398.492483,87.5 L282.507517,87.5 C281.398796,87.5 280.5,86.6021596 280.5,85.508383 L280.5,59.491617 Z" id="Rectangle-6-Copy-3" transform="translate(340.500000, 72.500000) rotate(-270.000000) translate(-340.500000, -72.500000) "></path>
                    </g>
                </g>
            </g>
        </g>
    </g>
</svg>