<?xml version="1.0" encoding="UTF-8"?>
<svg width="45px" height="45px" viewBox="0 0 45 45" version="1.1" xmlns="http://www.w3.org/2000/svg" xmlns:xlink="http://www.w3.org/1999/xlink">
    <title>icon</title>
    <defs>
        <rect id="path-1" x="0" y="0" width="45" height="45" rx="22.5"></rect>
    </defs>
    <g id="Page-1" stroke="none" stroke-width="1" fill="none" fill-rule="evenodd">
        <g id="Onboarding-admin-:-step-2---creation-dՎquipes" transform="translate(-924.000000, -401.000000)">
            <g id="Group" transform="translate(343.000000, 181.000000)">
                <g id="bloc-2" transform="translate(581.000000, 195.000000)">
                    <g id="icon" transform="translate(0.000000, 25.000000)">
                        <mask id="mask-2" fill="white">
                            <use xlink:href="#path-1"></use>
                        </mask>
                        <use id="Base" fill="#D8843B" xlink:href="#path-1"></use>
                        <path d="M16.9196935,28.3333333 C18.805005,28.3333333 20.3333333,29.8257074 20.3333333,31.6666667 C20.3333333,33.499952 18.8176281,34.9870504 16.9431715,34.9994245 L16.9431715,34.9994245 L16.9431715,35 L11,35 C12.4784253,35 13.505366,32.4100719 13.505366,31.6506954 L13.505366,31.6506954 L13.5117132,31.4684355 C13.6209052,29.7230786 15.1053448,28.3333333 16.9196935,28.3333333 Z M18.3615443,25.6666667 C19.2330784,25.7837182 20.0395466,26.2135979 20.6701699,26.9086564 C21.1549821,27.4429691 21.4869341,28.0827036 21.6666667,28.761518 C21.1069196,29.1788733 20.6058729,29.4761636 20.1612196,29.6666667 C19.6299255,28.6584505 18.7302374,27.9142359 17.6666667,27.6589919 C17.7639025,27.0994421 17.9885789,26.4374838 18.3615443,25.6666667 Z M22.6742013,19.9376506 C27.6180454,14.4492777 34.1198875,10.3710149 34.8832268,11.0802254 L34.8832268,11.0802254 L34.892776,11.089292 L34.9270241,11.1290811 C35.544378,12.0263625 32.1785085,18.8519725 27.3408228,24.2737074 C25.7339906,26.0574626 24.3356567,27.388542 23.1355298,28.3333333 C22.8667678,27.5764727 22.4352743,26.8664562 21.840307,26.2607562 C21.05213,25.4583107 20.0691599,24.9262013 19,24.7100633 C19.8173688,23.3780773 21.0183368,21.793435 22.6742013,19.9376506 Z" id="Combined-Shape" fill="#FFFFFF" fill-rule="nonzero" mask="url(#mask-2)"></path>
                    </g>
                </g>
            </g>
        </g>
    </g>
</svg>