<?xml version="1.0" encoding="UTF-8"?>
<svg width="45px" height="45px" viewBox="0 0 45 45" version="1.1" xmlns="http://www.w3.org/2000/svg" xmlns:xlink="http://www.w3.org/1999/xlink">
    <title>icon copy 4</title>
    <g id="Page-1" stroke="none" stroke-width="1" fill="none" fill-rule="evenodd">
        <g id="Onboarding-admin-:-step-2---creation-dՎquipes" transform="translate(-1136.000000, -401.000000)">
            <g id="Group" transform="translate(343.000000, 181.000000)">
                <g id="bloc-2" transform="translate(581.000000, 195.000000)">
                    <g id="icon-copy-4" transform="translate(212.000000, 25.000000)">
                        <rect id="Base" fill="#58B89D" x="0" y="0" width="45" height="45" rx="22.5"></rect>
                        <path d="M32.2352941,27.4705882 L32.234435,32.2958026 C32.234435,33.4247521 28.3854935,35 22.1172175,35 C15.8489414,35 12,33.4247521 12,32.2958026 L12,32.2958026 L12,27.4736692 C12.0100949,27.4818117 12.0234115,27.489074 12.0335064,27.4972165 C12.1318778,27.5724798 12.238411,27.6459826 12.3518173,27.7175047 C12.3698592,27.7289483 12.3898342,27.7397316 12.4076613,27.7509551 C12.5111875,27.8132344 12.6183651,27.8739732 12.731127,27.9333916 L12.731127,27.9333916 L12.8230549,27.9822467 C12.9527848,28.0480471 13.0878844,28.1118669 13.2294275,28.1741462 L13.2294275,28.1741462 L13.3134083,28.2093571 C13.438413,28.2623935 13.5672838,28.3141095 13.7002355,28.3638449 L13.7002355,28.3638449 L13.8087018,28.4049976 C13.9639911,28.4617752 14.1242204,28.5163521 14.2896047,28.5689484 L14.2896047,28.5689484 L14.4008631,28.603279 C14.5439097,28.6472927 14.6903929,28.690206 14.8407421,28.7320189 L14.8407421,28.7320189 L14.958659,28.764589 C15.1358563,28.8114635 15.3171346,28.8565775 15.5027085,28.8997108 L15.5027085,28.8997108 L15.6348011,28.9294201 C15.796534,28.9668316 15.961059,29.0022626 16.1281615,29.035933 L16.1281615,29.035933 L16.2452192,29.0597004 C16.4402436,29.0979922 16.6382751,29.1340834 16.8395284,29.168414 L16.8395284,29.168414 L16.9873002,29.1928416 C17.1651419,29.2221107 17.3440576,29.2500593 17.5257654,29.2760274 L17.5257654,29.2760274 L17.6361647,29.2901118 C17.8449354,29.3187206 18.0554244,29.3455689 18.2678465,29.3706567 L18.2678465,29.3706567 L18.4278611,29.3887023 C18.6226707,29.4107091 18.8187692,29.4309554 19.0161563,29.449221 L19.0161563,29.449221 L19.0960562,29.4569234 C19.3159957,29.4767296 19.5359353,29.4934547 19.7558748,29.5086394 L19.7558748,29.5086394 L19.9203998,29.5198629 C20.1296,29.5335071 20.3392299,29.5451707 20.5495041,29.5550738 L20.5495041,29.5550738 L20.6019116,29.5577146 C20.825932,29.5673976 21.050382,29.5748799 21.2752616,29.5803816 L21.2752616,29.5803816 L21.4397866,29.5839027 C21.6663844,29.5885241 21.8929823,29.5916051 22.1189358,29.5916051 C22.345104,29.5916051 22.5717019,29.5885241 22.7980849,29.5839027 L22.7980849,29.5839027 L22.96261,29.5803816 C23.1872748,29.5753201 23.4117248,29.5676177 23.6361747,29.5577146 L23.6361747,29.5577146 L23.6883674,29.5550738 C23.8984268,29.5451707 24.1080567,29.5335071 24.3174717,29.5198629 L24.3174717,29.5198629 L24.4811377,29.507319 C24.7010772,29.4919142 24.9210167,29.4754091 25.1409562,29.455603 L25.1409562,29.455603 L25.2210709,29.4479006 C25.418458,29.4291948 25.6143416,29.4091686 25.8091513,29.3873819 L25.8091513,29.3873819 L25.9691659,29.3693363 C26.1818027,29.3455689 26.3925065,29.3187206 26.6008477,29.2887913 L26.6008477,29.2887913 L26.7095287,29.2729464 C26.8912365,29.2467583 27.0720852,29.2188096 27.2479939,29.1895406 C27.2971796,29.1813981 27.3470096,29.1739158 27.3957657,29.1653331 C27.5972337,29.1310025 27.7952652,29.0946912 27.990075,29.0566194 L27.990075,29.0566194 L28.1071326,29.032632 C28.2742351,28.9987415 28.4387601,28.9633105 28.600493,28.9263391 L28.600493,28.9263391 L28.7325856,28.8966299 C28.9194483,28.8541567 29.1007265,28.8092628 29.2766352,28.761508 C29.3163704,28.7509448 29.3550316,28.7397213 29.3945519,28.728938 C29.5440421,28.687125 29.6905252,28.645092 29.834431,28.599978 L29.834431,28.599978 L29.9456894,28.5658675 C30.1108589,28.512831 30.2710882,28.4582541 30.4265924,28.4016966 L30.4265924,28.4016966 L30.5352734,28.360764 C30.6680103,28.3108085 30.7968811,28.2593125 30.9218858,28.206056 L30.9218858,28.206056 L31.0058666,28.1710652 C31.1482689,28.1087859 31.2825093,28.0447461 31.4122392,27.9789457 L31.4122392,27.9789457 L31.5041671,27.9303106 C31.616929,27.8708922 31.7249657,27.8099334 31.8276328,27.7478742 C31.8456747,27.7364306 31.8654349,27.7256472 31.8834768,27.7144238 C31.9968832,27.6426816 32.1021276,27.5693989 32.2017877,27.4941355 L32.2017877,27.4941355 L32.2352941,27.4705882 Z M32.2352941,21.3529412 L32.234435,26.1781555 C32.234435,27.3071051 28.3854935,28.8823529 22.1172175,28.8823529 C15.8489414,28.8823529 12,27.3071051 12,26.1781555 L12,26.1781555 L12,21.3560222 C12.0100949,21.3641647 12.0234115,21.371427 12.0335064,21.3795695 C12.1318778,21.4548327 12.238411,21.5283355 12.3518173,21.5998577 L12.3518173,21.5998577 L12.4076613,21.633308 C12.5111875,21.6955873 12.6183651,21.7563261 12.731127,21.8157445 L12.731127,21.8157445 L12.8230549,21.8645997 C12.9527848,21.9304 13.0878844,21.9942198 13.2294275,22.0564991 L13.2294275,22.0564991 L13.3134083,22.09171 C13.438413,22.1447464 13.5672838,22.1964624 13.7002355,22.2461978 L13.7002355,22.2461978 L13.8087018,22.2873506 C13.9639911,22.343688 14.1242204,22.398485 14.2896047,22.4513013 L14.2896047,22.4513013 L14.4008631,22.485632 C14.5439097,22.5296456 14.6903929,22.5725589 14.8407421,22.6143719 L14.8407421,22.6143719 L14.958659,22.6469419 C15.1358563,22.6938165 15.3171346,22.7389304 15.5027085,22.7820638 C15.5467394,22.792407 15.5907703,22.8018699 15.6348011,22.811773 C15.796534,22.8487444 15.961059,22.8843955 16.1281615,22.918286 L16.1281615,22.918286 L16.2452192,22.9420533 C16.4402436,22.9803452 16.6382751,23.0164363 16.8395284,23.050767 C16.8882845,23.0593497 16.9381146,23.0670521 16.9873002,23.0751946 C17.1651419,23.1044636 17.3440576,23.1324123 17.5257654,23.1583803 L17.5257654,23.1583803 L17.6361647,23.1724647 C17.8449354,23.2010735 18.0554244,23.2279218 18.2678465,23.2530096 L18.2678465,23.2530096 L18.4278611,23.2710552 C18.6226707,23.293062 18.8187692,23.3133083 19.0161563,23.3315739 L19.0161563,23.3315739 L19.0960562,23.3392763 C19.3159957,23.3590825 19.5359353,23.3758076 19.7558748,23.3909924 L19.9203998,23.4022158 C20.1296,23.4158601 20.3392299,23.4275237 20.5495041,23.4374267 L20.5495041,23.4374267 L20.6019116,23.4400676 C20.825932,23.4497505 21.050382,23.4572329 21.2752616,23.4627346 L21.2752616,23.4627346 L21.4397866,23.4662556 C21.6663844,23.4708771 21.8929823,23.473958 22.1189358,23.473958 C22.345104,23.473958 22.5717019,23.4708771 22.7980849,23.4662556 L22.7980849,23.4662556 L22.96261,23.4627346 C23.1872748,23.457673 23.4117248,23.4499706 23.6361747,23.4400676 L23.6361747,23.4400676 L23.6883674,23.4374267 C23.8984268,23.4275237 24.1080567,23.4158601 24.3174717,23.4022158 L24.3174717,23.4022158 L24.4811377,23.3896719 C24.7010772,23.3742672 24.9210167,23.3577621 25.1409562,23.337956 L25.1409562,23.337956 L25.2210709,23.3302536 C25.418458,23.3115478 25.6143416,23.2915216 25.8091513,23.2697348 L25.8091513,23.2697348 L25.9691659,23.2516892 C26.1818027,23.2279218 26.3925065,23.2010735 26.6008477,23.1711443 L26.6008477,23.1711443 L26.7095287,23.1552994 C26.8912365,23.1291112 27.0720852,23.1011626 27.2479939,23.0718935 C27.2971796,23.063751 27.3470096,23.0562687 27.3957657,23.0476861 C27.5972337,23.0135755 27.7952652,22.9774843 27.990075,22.9389724 L27.990075,22.9389724 L28.1071326,22.9149849 C28.2742351,22.8810944 28.4387601,22.8456635 28.600493,22.808692 C28.6445239,22.798789 28.6885547,22.789326 28.7325856,22.7789828 C28.9194483,22.7365097 29.1007265,22.6916158 29.2766352,22.643861 L29.2766352,22.643861 L29.3945519,22.6112909 C29.5440421,22.5694779 29.6905252,22.5274449 29.834431,22.482331 L29.834431,22.482331 L29.9456894,22.4482204 C30.1108589,22.3951839 30.2710882,22.340607 30.4265924,22.2840495 L30.4265924,22.2840495 L30.5352734,22.2431169 C30.6680103,22.1931614 30.7968811,22.1416654 30.9218858,22.088409 L30.9218858,22.088409 L31.0058666,22.0534181 C31.1482689,21.9911389 31.2825093,21.927099 31.4122392,21.8612986 L31.4122392,21.8612986 L31.5041671,21.8126636 C31.616929,21.7532452 31.7249657,21.6922863 31.8276328,21.6302271 L31.8276328,21.6302271 L31.8834768,21.5967767 C31.9968832,21.5250345 32.1021276,21.4517518 32.2017877,21.3764885 L32.2017877,21.3764885 L32.2352941,21.3529412 Z M32.2352941,15.2352941 L32.234435,20.0605084 C32.234435,21.1872574 28.3854935,22.7647059 22.1172175,22.7647059 C15.8489414,22.7647059 12,21.1872574 12,20.0605084 L12,20.0605084 L12,15.2407959 C12.0100949,15.2489384 12.0234115,15.2559806 12.0335064,15.2641231 C12.1318778,15.3393864 12.238411,15.4128891 12.3518173,15.4846314 C12.3698592,15.4958548 12.3898342,15.5066382 12.4076613,15.5178617 C12.5111875,15.5779403 12.6183651,15.6386791 12.731127,15.6980975 L12.731127,15.6980975 L12.8230549,15.7469526 C12.9527848,15.8127529 13.0878844,15.8765727 13.2294275,15.938852 L13.2294275,15.938852 L13.3134083,15.9740629 C13.438413,16.0270994 13.5672838,16.0788154 13.7002355,16.1285508 L13.7002355,16.1285508 L13.8087018,16.1697035 C13.9639911,16.226041 14.1242204,16.2808379 14.2896047,16.3336543 L14.2896047,16.3336543 L14.4008631,16.3679849 C14.5439097,16.4119985 14.6903929,16.4549118 14.8407421,16.4967248 C14.8802625,16.5077282 14.9191386,16.5189517 14.958659,16.5292948 C15.1358563,16.5761694 15.3171346,16.6212834 15.5027085,16.6644167 L15.5027085,16.6644167 L15.6348011,16.6941259 C15.796534,16.7310974 15.961059,16.7667484 16.1281615,16.8006389 L16.1281615,16.8006389 L16.2452192,16.8244063 C16.4402436,16.8626981 16.6382751,16.8987893 16.8395284,16.9331199 L16.8395284,16.9331199 L16.9873002,16.9575475 C17.1651419,16.9868165 17.3440576,17.0147652 17.5257654,17.0407333 L17.5257654,17.0407333 L17.6361647,17.0548177 C17.8449354,17.0834265 18.0554244,17.1102748 18.2678465,17.1353626 L18.2678465,17.1353626 L18.4278611,17.1534082 C18.6226707,17.1754149 18.8187692,17.1956613 19.0161563,17.2139269 L19.0161563,17.2139269 L19.0960562,17.2216293 C19.3159957,17.2414354 19.5359353,17.2581606 19.7558748,17.2733453 L19.7558748,17.2733453 L19.9203998,17.2845687 C20.1296,17.298213 20.3392299,17.3098766 20.5495041,17.3197796 L20.5495041,17.3197796 L20.6019116,17.3224205 C20.825932,17.3321035 21.050382,17.3395858 21.2752616,17.3450875 L21.2752616,17.3450875 L21.4397866,17.3486086 C21.6663844,17.35323 21.8929823,17.356311 22.1189358,17.356311 C22.345104,17.356311 22.5717019,17.35323 22.7980849,17.3486086 L22.7980849,17.3486086 L22.96261,17.3450875 C23.1872748,17.340026 23.4117248,17.3323236 23.6361747,17.3224205 L23.6361747,17.3224205 L23.6883674,17.3197796 C23.8984268,17.3098766 24.1080567,17.298213 24.3174717,17.2845687 L24.3174717,17.2845687 L24.4811377,17.2698242 C24.7010772,17.2544194 24.9210167,17.2376942 25.1409562,17.2178881 L25.1409562,17.2178881 L25.2210709,17.2101857 C25.418458,17.1917 25.6143416,17.1714537 25.8091513,17.1498871 L25.8091513,17.1498871 L25.9691659,17.1318415 C26.1818027,17.1080741 26.3925065,17.0812258 26.6008477,17.0512966 L26.6008477,17.0512966 L26.7095287,17.0354517 C26.8912365,17.0092635 27.0720852,16.9813149 27.2479939,16.9520458 C27.2971796,16.9439033 27.3470096,16.9362009 27.3957657,16.9276182 C27.5972337,16.8937277 27.7952652,16.8576366 27.990075,16.8191246 L27.990075,16.8191246 L28.1071326,16.7951372 C28.2742351,16.7612467 28.4387601,16.7258158 28.600493,16.6888443 C28.6445239,16.6789412 28.6885547,16.6694783 28.7325856,16.6591351 C28.9194483,16.6166619 29.1007265,16.5715479 29.2766352,16.5237932 L29.2766352,16.5237932 L29.3945519,16.4914432 C29.5440421,16.4494102 29.6905252,16.4075972 29.834431,16.3624832 L29.834431,16.3624832 L29.9456894,16.3283726 C30.1108589,16.2753362 30.2710882,16.2207593 30.4265924,16.1642018 L30.4265924,16.1642018 L30.5352734,16.1232691 C30.6680103,16.0733136 30.7968811,16.0218177 30.9218858,15.9685613 L30.9218858,15.9685613 L31.0058666,15.9333504 C31.1482689,15.8712911 31.2825093,15.8072513 31.4122392,15.7414509 L31.4122392,15.7414509 L31.5041671,15.6928158 C31.616929,15.6355981 31.7249657,15.5746392 31.8276328,15.51258 C31.8456747,15.5011364 31.8654349,15.4903531 31.8834768,15.4791297 C31.9968832,15.4073874 32.1021276,15.3341048 32.2017877,15.2588414 C32.2120974,15.2506989 32.2251992,15.2434367 32.2352941,15.2352941 L32.2352941,15.2352941 Z M22.1176471,11 C27.7055077,11 32.2352941,12.2642464 32.2352941,13.8235294 C32.2352941,15.3828125 27.7055077,16.6470588 22.1176471,16.6470588 C16.5297864,16.6470588 12,15.3828125 12,13.8235294 C12,12.2642464 16.5297864,11 22.1176471,11 Z" id="Combined-Shape" fill="#FFFFFF" fill-rule="nonzero"></path>
                    </g>
                </g>
            </g>
        </g>
    </g>
</svg>