<?xml version="1.0" encoding="UTF-8"?>
<svg width="45px" height="45px" viewBox="0 0 45 45" version="1.1" xmlns="http://www.w3.org/2000/svg" xmlns:xlink="http://www.w3.org/1999/xlink">
    <title>icon copy 2</title>
    <g id="Page-1" stroke="none" stroke-width="1" fill="none" fill-rule="evenodd">
        <g id="Onboarding-admin-:-step-2---creation-dՎquipes" transform="translate(-1030.000000, -401.000000)">
            <g id="Group" transform="translate(343.000000, 181.000000)">
                <g id="bloc-2" transform="translate(581.000000, 195.000000)">
                    <g id="icon-copy-2" transform="translate(106.000000, 25.000000)">
                        <rect id="Base" fill="#D75846" x="0" y="0" width="45" height="45" rx="22.5"></rect>
                        <path d="M31.9037428,22.386385 C31.5730909,22.0681745 31.1718553,21.9091886 30.6994157,21.9091886 L30.1330712,21.9091886 L30.1330712,18.6362768 C30.1330712,16.5454007 29.3541072,14.7501082 27.795683,13.2501007 C26.2373829,11.7500336 24.3724343,11 22.1999068,11 C20.0274414,11 18.1621207,11.7500336 16.6039446,13.250041 C15.0455204,14.7501082 14.2665564,16.545341 14.2665564,18.6362768 L14.2665564,21.9091886 L13.6999638,21.9091886 C13.2278964,21.9091886 12.8264126,22.0681745 12.4958228,22.386385 C12.1652329,22.7043567 12,23.0908064 12,23.5456147 L12,33.3636934 C12,33.8180837 12.1652949,34.2046528 12.4958228,34.522923 C12.8264126,34.840835 13.2278964,35 13.6999638,35 L30.6998499,35 C31.1722894,35 31.573463,34.8410141 31.9041769,34.522923 C32.2344567,34.2046528 32.4,33.8180837 32.4,33.3636934 L32.4,23.5454355 C32.4002478,23.0909855 32.2344567,22.7045955 31.9037428,22.386385 Z M26.4,22.4 L17.4,22.4 L17.4,19.0569164 C17.4,17.8266084 17.8395395,16.7760748 18.7184337,15.9056815 C19.5974511,15.0351662 20.6579116,14.6 21.9001847,14.6 C23.142581,14.6 24.2027952,15.0351052 25.0818742,15.9056815 C25.9605221,16.7760138 26.4,17.8266084 26.4,19.0569164 L26.4,22.4 Z" id="Shape" fill="#FFFFFF" fill-rule="nonzero"></path>
                    </g>
                </g>
            </g>
        </g>
    </g>
</svg>