<?xml version="1.0" encoding="UTF-8"?>
<svg width="45px" height="45px" viewBox="0 0 45 45" version="1.1" xmlns="http://www.w3.org/2000/svg" xmlns:xlink="http://www.w3.org/1999/xlink">
    <title>icon copy 3</title>
    <g id="Page-1" stroke="none" stroke-width="1" fill="none" fill-rule="evenodd">
        <g id="Onboarding-admin-:-step-2---creation-dՎquipes" transform="translate(-1083.000000, -401.000000)">
            <g id="Group" transform="translate(343.000000, 181.000000)">
                <g id="bloc-2" transform="translate(581.000000, 195.000000)">
                    <g id="icon-copy-3" transform="translate(159.000000, 25.000000)">
                        <rect id="Base" fill="#5296D5" x="0" y="0" width="45" height="45" rx="22.5"></rect>
                        <path d="M34.8782848,28.4006416 C34.9137727,28.4006416 34.9475355,28.416414 34.9704548,28.44303 C34.9933741,28.4696459 35.0037248,28.5053803 34.9987959,28.5406218 C34.9950992,28.5628018 34.6367696,30.7625614 31.855895,30.7625614 L31.855895,30.7625614 L14.1442076,30.7625614 C11.3630865,30.7625614 11.0047569,28.5628018 11.0013067,28.5406218 C10.9961313,28.5053803 11.006482,28.4696459 11.0296477,28.44303 C11.0528135,28.4161676 11.0863299,28.4006416 11.1218178,28.4006416 L11.1218178,28.4006416 Z M24.7866474,29.1705328 L21.2132087,29.1705328 L21.2132087,29.9921773 L24.7866474,29.9921773 L24.7866474,29.1705328 Z M32.4103941,15 C32.6824683,15 32.9032822,15.2208139 32.9032822,15.4928881 L32.9032822,15.4928881 L32.9032822,27.0525926 C32.9032822,27.3246669 32.6824683,27.5454807 32.4103941,27.5454807 L32.4103941,27.5454807 L13.5894621,27.5454807 C13.3173878,27.5454807 13.096574,27.3246669 13.096574,27.0525926 L13.096574,27.0525926 L13.096574,15.4928881 C13.096574,15.2208139 13.3173878,15 13.5894621,15 L13.5894621,15 Z M31.1781738,16.7251083 L14.8216823,16.7251083 L14.8216823,25.8203724 L31.1781738,25.8203724 L31.1781738,16.7251083 Z" id="Combined-Shape" fill="#FFFFFF" fill-rule="nonzero"></path>
                    </g>
                </g>
            </g>
        </g>
    </g>
</svg>