<?xml version="1.0" encoding="UTF-8"?>
<svg width="45px" height="45px" viewBox="0 0 45 45" version="1.1" xmlns="http://www.w3.org/2000/svg" xmlns:xlink="http://www.w3.org/1999/xlink">
    <title>icon copy</title>
    <g id="Page-1" stroke="none" stroke-width="1" fill="none" fill-rule="evenodd">
        <g id="Onboarding-admin-:-step-2---creation-dՎquipes" transform="translate(-977.000000, -401.000000)">
            <g id="Group" transform="translate(343.000000, 181.000000)">
                <g id="bloc-2" transform="translate(581.000000, 195.000000)">
                    <g id="icon-copy" transform="translate(53.000000, 25.000000)">
                        <rect id="Base" fill="#EBC545" x="0" y="0" width="45" height="45" rx="22.5"></rect>
                        <path d="M24.4735806,13.364371 C24.5528149,13.0954314 24.8357221,12.94128 25.1044077,13.0210222 L25.1044077,13.0210222 L26.1809279,13.3387214 C26.3099376,13.3768148 26.4186309,13.4646837 26.4831357,13.5830272 C26.5476406,13.7011168 26.5621161,13.8400309 26.5240227,13.9692945 L26.5240227,13.9692945 L21.5264194,30.8939489 C21.4611526,31.1151447 21.2587496,31.258376 21.0395854,31.258376 C20.9920956,31.258376 20.94359,31.2515192 20.8955923,31.2372977 L20.8955923,31.2372977 L19.8190721,30.9195985 C19.6900624,30.8812511 19.5811152,30.7936362 19.5168643,30.6750387 C19.4526134,30.5569491 19.4378839,30.4180351 19.4759773,30.2887714 L19.4759773,30.2887714 Z M28.0081425,15.6436275 C28.1986096,15.4531604 28.5356094,15.4531604 28.7260765,15.6436275 L28.7260765,15.6436275 L34.8512452,21.7687962 C35.0495849,21.9671359 35.0495849,22.2888984 34.8512452,22.4874921 L34.8512452,22.4874921 L28.7265844,28.6124068 C28.6313509,28.7076403 28.5018332,28.761479 28.3674904,28.761479 C28.2328937,28.761479 28.10363,28.7076403 28.0083964,28.6124068 L28.0083964,28.6124068 L26.6804597,27.28447 C26.4821199,27.0861303 26.4821199,26.7646218 26.6804597,26.566282 L26.6804597,26.566282 L31.1185975,22.1276362 L26.6802057,17.6897523 C26.4818659,17.4914125 26.4818659,17.169904 26.6802057,16.9715643 L26.6802057,16.9715643 Z M17.6332714,15.4953171 C17.7678682,15.4953171 17.8971319,15.5489019 17.9923654,15.6441354 L17.9923654,15.6441354 L19.3203022,16.9720722 C19.4157897,17.0673058 19.4691205,17.1965694 19.4691205,17.3311662 C19.4691205,17.4660169 19.4155358,17.5950267 19.3203022,17.6902602 L19.3203022,17.6902602 L14.8819104,22.1281441 L19.3195403,26.566282 C19.518388,26.7646218 19.518388,27.0861303 19.3200483,27.2842161 L19.3200483,27.2842161 L17.9921115,28.6121528 C17.8968779,28.7073864 17.7676142,28.7612251 17.6330175,28.7612251 C17.4984207,28.7612251 17.369157,28.7073864 17.2739235,28.6121528 L17.2739235,28.6121528 L11.1487548,22.4872381 C10.9504151,22.2886444 10.9504151,21.9671359 11.1487548,21.7687962 L11.1487548,21.7687962 L17.2741774,15.6441354 C17.369411,15.5489019 17.4986747,15.4953171 17.6332714,15.4953171 Z" id="Combined-Shape" fill="#FFFFFF" fill-rule="nonzero"></path>
                    </g>
                </g>
            </g>
        </g>
    </g>
</svg>