<?xml version="1.0" encoding="UTF-8"?>
<svg width="70px" height="65px" viewBox="0 0 70 65" version="1.1" xmlns="http://www.w3.org/2000/svg" xmlns:xlink="http://www.w3.org/1999/xlink">
    <title>icon</title>
    <g id="Page-1" stroke="none" stroke-width="1" fill="none" fill-rule="evenodd">
        <g id="Old-customers-:-start-point---step-1" transform="translate(-412.000000, -736.000000)" fill="#C038CF">
            <g id="Group" transform="translate(343.000000, 158.000000)">
                <g id="bloc-1-copy-7" transform="translate(47.000000, 551.000000)">
                    <g id="icon" transform="translate(22.000000, 27.000000)">
                        <path d="M11.1064315,42.605677 C22.7481769,64.8560574 54.2255172,56.6140608 61.9961229,35.618348 C63.340702,31.9861496 63.9225595,27.6600564 61.7502074,24.4545975 C59.3119289,20.8566883 54.3672464,20.0001086 49.9989272,20.088429 C45.6302697,20.1767496 41.0563151,20.8509734 37.0457421,19.1364462 C30.3312366,16.2666022 27.5042045,8.46357931 19.0891096,9.25418783 C12.4246496,9.88035486 9.12321725,14.8590243 7.88120774,20.8736077 C6.3746818,28.1677827 7.63498368,35.9709901 11.1064315,42.605677 Z" id="Fill-165-Copy" fill-opacity="0.189958479" transform="translate(35.224641, 32.509418) scale(-1, 1) rotate(22.000000) translate(-35.224641, -32.509418) "></path>
                        <path d="M43.29375,26.20625 L45.7333333,28.6458333 C49.5916667,32.5041667 49.5916667,38.7833333 45.7333333,42.6416667 L37.6270833,50.75 L41.2104167,54.3333333 C41.65625,54.7791667 41.7916667,55.4520833 41.55,56.0354167 C41.3083333,56.61875 40.7354167,57 40.1041667,57 L26.5625,57 C25.7,57 25,56.3 25,55.4375 L25,41.8958333 C25,41.2645833 25.38125,40.69375 25.9645833,40.4520833 C26.55,40.2104167 27.2229167,40.34375 27.6666667,40.7916667 L31.25,44.3729167 L41.0833333,34.5395833 C42.7729167,32.85 42.7729167,30.1041667 41.0833333,28.4166667 C40.4729167,27.80625 40.4729167,26.8166667 41.0833333,26.20625 C41.69375,25.5958333 42.6833333,25.5958333 43.29375,26.20625 Z M48.4375,7 C49.3,7 50,7.7 50,8.5625 L50,22.1041667 C50,22.7354167 49.61875,23.30625 49.0354167,23.5479167 C48.4541667,23.7895833 47.78125,23.6583333 47.3333333,23.2083333 L43.75,19.6270833 L33.9166667,29.4604167 C32.2270833,31.15 32.2270833,33.8958333 33.9166667,35.5833333 C34.5270833,36.19375 34.5270833,37.1833333 33.9166667,37.79375 C33.30625,38.4041667 32.31875,38.4020833 31.7083333,37.7916667 L29.26875,35.3520833 C25.4104167,31.49375 25.4104167,25.2145833 29.26875,21.35625 L37.3729167,13.25 L33.7895833,9.66666667 C33.34375,9.22083333 33.2083333,8.54791667 33.45,7.96458333 C33.6916667,7.38125 34.2645833,7 34.8958333,7 L48.4375,7 Z" id="Combined-Shape" fill-rule="nonzero"></path>
                    </g>
                </g>
            </g>
        </g>
    </g>
</svg>