<?xml version="1.0" encoding="UTF-8"?>
<svg width="223px" height="126px" viewBox="0 0 223 126" version="1.1" xmlns="http://www.w3.org/2000/svg" xmlns:xlink="http://www.w3.org/1999/xlink">
    <title>illustration</title>
    <defs>
        <polygon id="path-1" points="0.280527182 0.0178350288 17.919 0.0178350288 17.919 22.7544624 0.280527182 22.7544624"></polygon>
        <polygon id="path-3" points="0 0.2496 2.9542125 0.2496 2.9542125 2.8756 0 2.8756"></polygon>
        <polygon id="path-5" points="0.0202509864 0.2 3.80512672 0.2 3.80512672 3.98496501 0.0202509864 3.98496501"></polygon>
        <polygon id="path-7" points="0.000136882129 0.153973384 89.7226084 0.153973384 89.7226084 88.87963 0.000136882129 88.87963"></polygon>
        <polygon id="path-9" points="0.190704545 0.293245201 59.7235227 0.293245201 59.7235227 37.9166667 0.190704545 37.9166667"></polygon>
    </defs>
    <g id="Page-1" stroke="none" stroke-width="1" fill="none" fill-rule="evenodd">
        <g id="Transférer-la-licence-:-confirmation-(modal)" transform="translate(-848.000000, -399.000000)">
            <g id="popup" transform="translate(542.000000, 354.000000)">
                <g id="illustration" transform="translate(306.000000, 45.000000)">
                    <path d="M10.9377641,73.7252252 C9.12167051,70.8765029 10.0233463,67.1348432 12.9513569,65.3682926 C15.8793674,63.6013775 21.7589984,63.2506197 23.575092,66.0993419 C25.3911855,68.9480642 20.9015444,71.8697091 19.2151183,74.7928124 C16.8634907,78.8695517 12.7538576,76.5735829 10.9377641,73.7252252" id="Fill-1" fill="#E0EFF4"></path>
                    <g id="Group-5" transform="translate(205.000000, 86.000000)">
                        <mask id="mask-2" fill="white">
                            <use xlink:href="#path-1"></use>
                        </mask>
                        <g id="Clip-4"></g>
                        <path d="M7.0290375,22.179541 C1.9781625,20.6102623 -0.8512125,15.2207213 0.7099125,10.142623 C2.2706625,5.06377049 8.7150375,-1.30911475 13.7659125,0.260163934 C18.8167875,1.82981967 16.6436625,9.87077049 17.7169125,15.0755574 C19.2135375,22.3345082 12.0799125,23.7488197 7.0290375,22.179541" id="Fill-3" fill="#E0EFF4" mask="url(#mask-2)"></path>
                    </g>
                    <path d="M206.494282,12.8784682 C205.113828,17.4604471 200.373302,20.0264016 195.905775,18.6105826 C191.438624,17.1947635 185.832722,11.3489505 187.213176,6.76735839 C188.59363,2.18576629 195.667089,4.1573166 200.245098,3.18353008 C206.630404,1.82572052 207.874736,8.29687614 206.494282,12.8784682" id="Fill-6" fill="#E0EFF4"></path>
                    <path d="M212,39.5 C212,40.3282559 211.328637,41 210.5,41 C209.671744,41 209,40.3282559 209,39.5 C209,38.6713633 209.671744,38 210.5,38 C211.328637,38 212,38.6713633 212,39.5" id="Fill-8" fill="#0069E4"></path>
                    <path d="M11,118.5 C11,119.328637 10.3282559,120 9.5,120 C8.67136329,120 8,119.328637 8,118.5 C8,117.671744 8.67136329,117 9.5,117 C10.3282559,117 11,117.671744 11,118.5" id="Fill-10" fill="#0069E4"></path>
                    <path d="M176,15.5 C176,16.3282559 175.328256,17 174.5,17 C173.671363,17 173,16.3282559 173,15.5 C173,14.6713633 173.671363,14 174.5,14 C175.328256,14 176,14.6713633 176,15.5" id="Fill-12" fill="#0069E4"></path>
                    <path d="M104,3.5 C104,4.3282559 103.328256,5 102.5,5 C101.671744,5 101,4.3282559 101,3.5 C101,2.67136329 101.671744,2 102.5,2 C103.328256,2 104,2.67136329 104,3.5" id="Fill-14" fill="#0069E4"></path>
                    <path d="M181,44 C181,44.5521807 180.552181,45 180,45 C179.447819,45 179,44.5521807 179,44 C179,43.4478193 179.447819,43 180,43 C180.552181,43 181,43.4478193 181,44" id="Fill-16" fill="#EF929C"></path>
                    <path d="M23,28.5 C23,29.3286367 22.3282559,30 21.5,30 C20.6713633,30 20,29.3286367 20,28.5 C20,27.6717441 20.6713633,27 21.5,27 C22.3282559,27 23,27.6717441 23,28.5" id="Fill-18" fill="#FF0000"></path>
                    <g id="Group-22" transform="translate(0.000000, 97.000000)">
                        <mask id="mask-4" fill="white">
                            <use xlink:href="#path-3"></use>
                        </mask>
                        <g id="Clip-21"></g>
                        <path d="M2.9542125,1.5626 C2.9542125,2.28793333 2.2930875,2.8756 1.4770875,2.8756 C0.6614625,2.8756 -3.75e-05,2.28793333 -3.75e-05,1.5626 C-3.75e-05,0.8376 0.6614625,0.2496 1.4770875,0.2496 C2.2930875,0.2496 2.9542125,0.8376 2.9542125,1.5626" id="Fill-20" fill="#FF0000" mask="url(#mask-4)"></path>
                    </g>
                    <path d="M186,28.5 C186,29.3281345 185.328134,30 184.5,30 C183.671866,30 183,29.3281345 183,28.5 C183,27.6714113 183.671866,27 184.5,27 C185.328134,27 186,27.6714113 186,28.5" id="Fill-23" fill="#0069E4"></path>
                    <path d="M34,8.49975518 C34,9.32821936 33.3282194,10 32.4997552,10 C31.671291,10 31,9.32821936 31,8.49975518 C31,7.67129101 31.671291,7 32.4997552,7 C33.3282194,7 34,7.67129101 34,8.49975518" id="Fill-25" fill="#0069E4"></path>
                    <path d="M13,35.5 C13,35.7760853 12.7760853,36 12.5,36 C12.2239147,36 12,35.7760853 12,35.5 C12,35.2239147 12.2239147,35 12.5,35 C12.7760853,35 13,35.2239147 13,35.5" id="Fill-27" fill="#3E479B"></path>
                    <g id="Group-31" transform="translate(128.000000, 0.000000)">
                        <mask id="mask-6" fill="white">
                            <use xlink:href="#path-5"></use>
                        </mask>
                        <g id="Clip-30"></g>
                        <path d="M3.76308,2.4876 C3.54468,3.5096 2.53948,4.1612 1.51748,3.9428 C0.49588,3.7248 -0.15572,2.7192 0.06228,1.6972 C0.28068,0.6756 1.28588,0.024 2.30788,0.242 C3.32988,0.4604 3.98108,1.4656 3.76308,2.4876" id="Fill-29" fill="#FF0000" mask="url(#mask-6)"></path>
                    </g>
                    <path d="M12.9666726,6.81318861 C12.7935625,7.62322573 11.9968125,8.13968384 11.1867462,7.96658002 C10.3769971,7.7934762 9.8605204,6.99675475 10.0333134,6.18671763 C10.2064234,5.37668051 11.0031735,4.86053944 11.8132397,5.03332623 C12.623306,5.20643005 13.1394656,6.00315149 12.9666726,6.81318861" id="Fill-32" fill="#FF0000"></path>
                    <path d="M117.988858,17.6043032 C117.931146,17.8744128 117.66542,18.04656 117.395571,17.9888606 C117.125405,17.9311611 116.953222,17.66549 117.011251,17.3953805 C117.068645,17.1255879 117.334371,16.9534407 117.604537,17.0111401 C117.874386,17.0688396 118.046569,17.3341937 117.988858,17.6043032" id="Fill-34" fill="#0069E4"></path>
                    <path d="M208.977812,115.208702 C208.862299,115.748448 208.331185,116.092933 207.791438,115.97783 C207.25128,115.862317 206.906796,115.331203 207.022309,114.791046 C207.137411,114.250888 207.668937,113.906815 208.208683,114.022328 C208.748841,114.13743 209.092914,114.668544 208.977812,115.208702" id="Fill-36" fill="#0069E4"></path>
                    <path d="M207.736297,61.3518837 C206.016693,45.5082463 195.249274,32.0178893 180.467162,26.3570167 C161.632271,19.1438585 141.163852,27.516643 121.826601,23.8787123 C108.662782,21.4023195 97.0273724,13.6141274 84.0010456,10.4896744 C61.5083322,5.09452571 34.423155,14.3478309 27.5809247,38.3512915 C26.1317353,43.4348361 25.7348745,49.1408243 27.1539756,54.2886013 C28.8556781,60.4629516 33.0402361,66.0072115 30.5569997,72.7271558 C29.4185958,75.8080224 27.0416206,78.2297411 24.8223233,80.64496 C12.4129969,94.1498458 11.9571021,111.05332 22.3497511,125.975527 L29.757946,125.975527 C75.2480182,125.975527 120.737709,125.947234 166.227401,125.969027 C173.960473,125.97285 181.693545,125.995408 189.426618,126 C197.375259,126.004966 198.596311,121.335874 198.14651,113.482303 C197.892092,109.041848 195.611095,104.367021 195.963776,100.056178 C196.329786,95.5832249 199.866113,91.5281652 202.104454,87.8730294 C206.923532,80.0037819 208.731115,70.5191632 207.736297,61.3518837" id="Fill-38" fill="#E0EFF4" opacity="0.419317336"></path>
                    <path d="M189.171107,115.347654 C190.89411,107.177289 188.132036,100.208031 187.44314,92.1968169 C186.791286,84.6120492 189.615605,78.2333738 191.182422,71.009475 C192.576634,64.5801782 192.112279,57.2979881 190.361781,50.9795215 C184.266354,28.9776357 160.359309,19.8838144 139.579025,25.7324995 C131.071317,28.1270434 123.099757,32.6028157 114.322066,33.6140925 C102.613896,34.9620781 91.200148,30.0046358 79.5588053,28.163092 C68.8366265,26.4672763 57.3904199,27.560621 47.9864604,33.0051022 C38.5825009,38.4491998 31.6125882,48.6835358 31.7244765,59.5836194 C31.7981776,66.7983144 34.8233611,73.9838636 33.4161658,81.0593498 C32.526406,85.5320541 29.9487755,89.4506079 28.1501623,93.6387588 C23.9606537,103.394109 23.3336212,117.162353 30.0851036,126 L184.803646,126 C186.891336,122.748344 188.376051,119.118562 189.171107,115.347654" id="Fill-40" fill="#E0EFF4"></path>
                    <g id="Group-19" transform="translate(58.000000, 25.000000)">
                        <g id="Group-3">
                            <mask id="mask-8" fill="white">
                                <use xlink:href="#path-7"></use>
                            </mask>
                            <g id="Clip-2"></g>
                            <path d="M89.7226084,44.5166833 C89.7226084,69.0174019 69.6375513,88.87963 44.8612015,88.87963 C20.0851939,88.87963 0.000136882129,69.0174019 0.000136882129,44.5166833 C0.000136882129,20.0156262 20.0851939,0.153736502 44.8612015,0.153736502 C69.6375513,0.153736502 89.7226084,20.0156262 89.7226084,44.5166833" id="Fill-1" fill="#FF0000" mask="url(#mask-8)"></path>
                            <path d="M30.0495272,36.0256874 C31.5249887,35.9000944 32.6479063,36.2517549 33.4574516,36.7164491 C34.6587123,37.3569736 35.1157136,38.1984469 35.1157136,38.1984469 C35.1157136,38.1984469 37.8707789,38.3868364 36.943719,43.7622182 C36.9176047,43.9380485 36.8784331,44.1013194 36.8262044,44.2645903 C37.3484917,44.2645903 37.8838361,44.6539287 37.3093201,46.6006207 C36.865376,48.1202964 36.4475462,48.5473127 36.1341738,48.5724314 C36.0297163,49.263193 35.7424584,50.0293105 35.3115714,50.7451908 L35.3115714,50.7451908 L35.3115714,53.4580003 C35.3115714,53.5584747 35.3638001,53.6463899 35.4552004,53.6840678 C35.5589882,53.733983 35.7151421,53.8092892 35.9163157,53.9088221 L36.1788633,54.0398158 C37.6893519,54.7996741 40.923481,56.5327754 43.9554255,58.9338565 C44.6213417,59.4613473 45,60.2400241 45,61.0689381 L45,61.0689381 L45,63.5807987 C45,64.3720348 44.3340837,65 43.5245385,65 L43.5245385,65 L17.4754615,65 C16.6528591,65 16,64.3594755 16,63.5807987 L16,63.5807987 L16,61.0689381 C16,60.2274648 16.3917154,59.4362287 17.0706889,58.9087379 C20.0078851,56.5926736 23.1183272,54.8955575 24.6773832,54.1075343 L24.9593006,53.9664434 C25.2209197,53.8368602 25.4202542,53.7420338 25.5447996,53.6840678 C25.6361999,53.6338306 25.7014858,53.5459154 25.6753715,53.4705596 L25.6753715,53.4705596 L25.6753715,50.7577501 C25.2444845,50.0293105 24.9572265,49.2757523 24.852769,48.5849907 C24.5393967,48.559872 24.1215669,48.1328557 23.6776227,46.61318 C23.1031067,44.6916066 23.625394,44.2897089 24.134624,44.2771496 C24.0954525,44.1013194 24.0432238,43.9380485 24.0171094,43.7747775 C23.8212517,42.8077112 23.769023,41.9034413 24.0040522,41.0368494 C24.278253,39.8813935 24.9311121,38.9520051 25.6623143,38.2361248 C26.1323728,37.7714306 26.6546601,37.3569736 27.2030617,37.0178724 C27.6470059,36.7164491 28.1431787,36.4527037 28.6915804,36.2768735 C29.1224674,36.1387211 29.5664115,36.050806 30.0495272,36.0256874 Z M63.0562556,36.0256874 C64.5310531,35.9000944 65.6534653,36.2517549 66.4626463,36.7164491 C67.6633663,37.3569736 68.120162,38.1984469 68.120162,38.1984469 C68.120162,38.1984469 70.8739874,38.3868364 69.9473447,43.7622182 C69.9212421,43.9380485 69.8820882,44.1013194 69.829883,44.2645903 C70.3519352,44.2645903 70.8870387,44.6539287 70.3127813,46.6006207 C69.8690369,48.1202964 69.4513951,48.5473127 69.1381638,48.5724314 C69.0337534,49.263193 68.7466247,50.0293105 68.3159316,50.7451908 L68.3159316,50.7451908 L68.3159316,53.4580003 C68.3159316,53.5584747 68.3681368,53.6463899 68.4594959,53.6840678 C68.5632371,53.733983 68.7193207,53.8092892 68.9204038,53.9088221 L69.1828332,54.0398158 C70.692642,54.7996741 73.9253156,56.5327754 76.9558956,58.9338565 C77.6215122,59.4613473 78,60.2400241 78,61.0689381 L78,61.0689381 L78,63.5807987 C78,64.3720348 77.3343834,65 76.5252025,65 L76.5252025,65 L50.4878488,65 C49.6656166,65 49.0130513,64.3720348 49,63.593358 L49,63.593358 L49,61.0814974 C49,60.2400241 49.3915392,59.448788 50.070207,58.9212972 C53.7637264,56.0075389 57.7313231,54.0734062 58.5405041,53.6966271 C58.6318632,53.6589492 58.6840684,53.571034 58.6840684,53.4705596 L58.6840684,53.4705596 L58.6840684,50.7577501 C58.2533753,50.0293105 57.9662466,49.2757523 57.8618362,48.5849907 C57.5486049,48.559872 57.1309631,48.1328557 56.6872187,46.61318 C56.1129613,44.6916066 56.6350135,44.2897089 57.1440144,44.2771496 C57.1048605,44.1013194 57.0526553,43.9380485 57.0265527,43.7747775 C56.8307831,42.8077112 56.7785779,41.9034413 57.0135014,41.0368494 C57.2875788,39.8813935 57.940144,38.9520051 58.6710171,38.2361248 C59.1408641,37.7714306 59.6629163,37.3569736 60.2110711,37.0178724 C60.6548155,36.7164491 61.1507651,36.4527037 61.6989199,36.2768735 C62.129613,36.1387211 62.5733573,36.050806 63.0562556,36.0256874 Z M64.1367963,12 C65.2392348,12 66.1365685,12.9375 66.1365685,14.0892857 L66.1365685,14.0892857 L66.1365685,22.1116071 L68.4696361,22.1116071 C68.8926649,22.1116071 69.1490459,22.6071429 68.9054839,22.9821429 L68.9054839,22.9821429 L64.5470059,29.7455357 C64.329082,30.0669643 63.8675961,30.0669643 63.6624913,29.7455357 L63.6624913,29.7455357 L59.3040133,22.9821429 C59.0604513,22.6071429 59.3168324,22.1116071 59.7398611,22.1116071 L59.7398611,22.1116071 L62.1242049,22.1116071 L62.1242049,16.1785714 L30.9995445,16.1785714 L30.9995445,30 L27,30 L27,14.0892857 C27,12.9375 27.8973337,12 29.0125913,12 L29.0125913,12 Z" id="Combined-Shape" fill="#FFFFFF" fill-rule="nonzero" mask="url(#mask-8)"></path>
                        </g>
                        <path d="M52.0384337,64.7461137 C52.5807237,66.4827577 52.2124547,67.5976906 49.6157401,66.7489139 C43.8887394,64.8763025 38.7751715,65.4857765 37.523894,66.5684172 C36.2729653,67.6524175 37.4224108,69.7252409 39.2829363,69.5478035 C40.7870499,69.4043578 43.3802771,69.9077772 45.3143866,70.3619084 C46.908475,70.7354789 48.4338618,71.3541307 49.8117317,72.2141247 C51.0058159,72.9585464 52.0384337,73.6513004 52.9535262,74.2913671 C52.9535262,74.2913671 58.2327454,78.0090565 59.888212,81 L78,73.4269542 L75.0827937,64.5843125 C75.0827937,64.5843125 74.1335247,59.3787995 68.9564862,57.7346134 C63.779099,56.0904273 55.5453585,56.7083992 55.5453585,56.7083992 C54.035665,57.6730881 48.2075298,49.4555567 46.4453489,46.5550315 C44.7051386,43.6888381 42.5771299,43.2952124 41.8953441,45.0675479 C41.4301256,46.2759584 46.6071641,55.2787017 48.4181685,58.1092036 C49.4085888,59.6561731 51.3848958,62.6525553 52.0384337,64.7461137" id="Fill-8" fill="#64CEFF"></path>
                        <path d="M64.0016436,57.0262058 C64.0142713,56.9702299 64.3781263,56.9865688 64.8985064,57.2495042 C65.4159499,57.5060855 66.0558531,58.0564644 66.4916568,58.8555578 C66.9245238,59.6567692 67.0446341,60.5063922 66.9861941,61.0955004 C66.9312782,61.6897524 66.7544899,62.0174382 66.7016296,61.9992838 C66.5650738,61.9802218 66.8910456,60.5554089 66.0714175,59.0979182 C65.2952523,57.6159192 63.9464339,57.1557068 64.0016436,57.0262058" id="Fill-10" fill="#008EFF"></path>
                        <path d="M58.0021823,57.0234715 C58.0196781,56.9659124 58.3877151,57.0010701 58.9069661,57.2782874 C59.4240301,57.5502154 60.058566,58.1065167 60.4912751,58.8983438 C60.9211724,59.6923488 61.0417686,60.5258673 60.9880314,61.1055034 C60.9377309,61.6901176 60.765897,62.0161823 60.7077859,61.9993813 C60.5612584,61.9794689 60.8505643,60.5812486 60.0407577,59.1413367 C59.2728162,57.6793346 57.9387599,57.1566353 58.0021823,57.0234715" id="Fill-12" fill="#008EFF"></path>
                        <g id="Group-16" transform="translate(54.000000, 63.000000)">
                            <mask id="mask-10" fill="white">
                                <use xlink:href="#path-9"></use>
                            </mask>
                            <g id="Clip-15"></g>
                            <path d="M59.7236591,37.9166667 L15.8043409,37.9166667 L12.8213864,34.4476243 L12.8179773,34.4476243 L0.190704545,19.7732091 C0.190704545,19.7732091 25.4520682,1.34703947 25.3872955,0.305994152 C25.3463864,-0.292690058 43.93275,20.3086988 59.7236591,37.9166667" id="Fill-14" fill="#0069E4" mask="url(#mask-10)"></path>
                        </g>
                    </g>
                </g>
            </g>
        </g>
    </g>
</svg>